<svg width="25" height="26" fill="none" xmlns="http://www.w3.org/2000/svg"><path d="M22.266 3.666h-1.953v-.781a1.563 1.563 0 10-3.125 0v.781h-3.125v-.781a1.563 1.563 0 10-3.126 0v.781H7.813v-.781a1.562 1.562 0 10-3.125 0v.781H2.734A1.953 1.953 0 00.781 5.619v15.625a1.953 1.953 0 001.953 1.953h10.938a.39.39 0 000-.781H2.734a1.176 1.176 0 01-1.171-1.172V9.134h21.875v6.641a.39.39 0 00.78 0V5.62a1.953 1.953 0 00-1.952-1.953zm-4.297-.781a.781.781 0 111.562 0v2.344a.781.781 0 11-1.562 0V2.885zm-6.25 0a.781.781 0 111.562 0v2.344a.781.781 0 11-1.562 0V2.885zm-6.25 0a.781.781 0 111.562 0v2.344a.781.781 0 11-1.562 0V2.885zm17.968 5.469H1.563V5.619a1.175 1.175 0 011.172-1.172h1.954v.782a1.562 1.562 0 003.125 0v-.782h3.125v.782a1.563 1.563 0 103.124 0v-.782h3.126v.782a1.563 1.563 0 103.125 0v-.782h1.953a1.175 1.175 0 011.172 1.172v2.735z" fill="#437FC8"/><path d="M11.719 11.87a.781.781 0 00-.781-.782H9.374a.781.781 0 00-.781.781v1.172a.781.781 0 00.781.781h1.563a.78.78 0 00.78-.781v-1.172zm-2.344 1.17v-1.172h1.563v1.172H9.374zm-2.344-1.17a.781.781 0 00-.781-.782H4.687a.781.781 0 00-.78.781v1.172a.781.781 0 00.78.781H6.25a.781.781 0 00.781-.781v-1.172zm-2.343 1.17v-1.172H6.25v1.172H4.687zm15.625.782a.78.78 0 00.78-.781v-1.172a.781.781 0 00-.78-.781H18.75a.781.781 0 00-.781.781v1.172a.781.781 0 00.781.781h1.563zM18.75 11.87h1.563v1.172H18.75V11.87zm-7.031 3.515a.782.782 0 00-.781-.781H9.374a.781.781 0 00-.781.78v1.173a.781.781 0 00.781.78h1.563a.781.781 0 00.78-.78v-1.172zm-2.344 1.172v-1.172h1.563v1.172H9.374zm-2.344-1.172a.782.782 0 00-.781-.781H4.687a.781.781 0 00-.78.78v1.173a.781.781 0 00.78.78H6.25a.781.781 0 00.781-.78v-1.172zm-2.343 1.172v-1.172H6.25v1.172H4.687zm6.25 1.563H9.374a.781.781 0 00-.781.78v1.172a.781.781 0 00.781.782h1.563a.781.781 0 00.78-.782V18.9a.781.781 0 00-.78-.78zm-1.563 1.952V18.9h1.563v1.172H9.374zm4.688-6.25h1.562a.78.78 0 00.781-.781v-1.172a.781.781 0 00-.781-.781h-1.563a.781.781 0 00-.78.781v1.172a.781.781 0 00.78.781zm0-1.953h1.562v1.172h-1.563v-1.172zm-.782 4.688a.782.782 0 00.781.78.39.39 0 000-.78v-1.172h1.563a.39.39 0 000-.781h-1.563a.781.781 0 00-.78.78v1.173zM6.25 18.12H4.687a.781.781 0 00-.78.78v1.172a.781.781 0 00.78.782H6.25a.781.781 0 00.781-.782V18.9a.781.781 0 00-.781-.78zm-1.563 1.952V18.9H6.25v1.172H4.687z" fill="#437FC8"/><path d="M19.14 14.604a5.078 5.078 0 100 10.156 5.078 5.078 0 000-10.157zm0 9.375a4.297 4.297 0 110-8.595 4.297 4.297 0 010 8.595z" fill="#437FC8"/><path d="M21.398 18.044l-3.039 3.038-1.38-1.38a.39.39 0 00-.553.552l1.657 1.657a.39.39 0 00.552 0l3.315-3.314a.39.39 0 00-.552-.553z" fill="#437FC8"/></svg>