<svg width="29" height="28" fill="none" xmlns="http://www.w3.org/2000/svg"><g clip-path="url(#clip0_29_107)" fill="#437FC8"><path d="M26.784 2.385h-4.7V.737a.55.55 0 00-.543-.556.55.55 0 00-.543.556v1.648H7.977V.737a.55.55 0 00-.543-.556.55.55 0 00-.542.556v1.648H2.195C1.4 2.385.75 3.053.75 3.87v22.466c0 .816.65 1.484 1.446 1.484h24.59c.794 0 1.445-.668 1.445-1.484V3.87c0-.816-.65-1.484-1.446-1.484zm.362 23.95a.372.372 0 01-.362.371H2.195a.371.371 0 01-.361-.37V9.031h25.312v17.303zm0-18.416H1.834v-4.05a.37.37 0 01.361-.371h4.697V5.56a.55.55 0 00.542.557.55.55 0 00.543-.557V3.498h13.021V5.56a.55.55 0 00.543.557.55.55 0 00.542-.557V3.498h4.701c.196 0 .362.17.362.371v4.05z"/><path d="M13.231 12.706h-2.53a.55.55 0 00-.543.556.55.55 0 00.543.557h2.53c.3 0 .542-.25.542-.557a.55.55 0 00-.542-.556zm5.062 0h-2.53a.55.55 0 00-.543.556.55.55 0 00.542.557h2.531c.3 0 .543-.25.543-.557a.55.55 0 00-.543-.556zm5.063 0h-2.531a.55.55 0 00-.543.556.55.55 0 00.543.557h2.53c.3 0 .543-.25.543-.557a.55.55 0 00-.542-.556zm-10.125 3.316h-2.53a.55.55 0 00-.543.556.55.55 0 00.543.557h2.53c.3 0 .542-.25.542-.557a.55.55 0 00-.542-.556zm5.062 0h-2.53a.55.55 0 00-.543.556.55.55 0 00.542.557h2.531c.3 0 .543-.25.543-.557a.55.55 0 00-.543-.556zm5.063 0h-2.531a.55.55 0 00-.543.556.55.55 0 00.543.557h2.53c.3 0 .543-.25.543-.557a.55.55 0 00-.542-.556zm-15.548 0H5.277a.55.55 0 00-.543.556.55.55 0 00.543.557h2.531a.55.55 0 00.542-.557.55.55 0 00-.542-.556zm5.423 3.316h-2.53a.55.55 0 00-.543.556.55.55 0 00.543.557h2.53c.3 0 .542-.25.542-.557a.55.55 0 00-.542-.556zm5.062 0h-2.53a.55.55 0 00-.543.556.55.55 0 00.542.557h2.531c.3 0 .543-.25.543-.557a.55.55 0 00-.543-.556zm5.063 0h-2.531a.55.55 0 00-.543.556.55.55 0 00.543.557h2.53c.3 0 .543-.25.543-.557a.55.55 0 00-.542-.556zm-15.548 0H5.277a.55.55 0 00-.543.556.55.55 0 00.543.557h2.531a.55.55 0 00.542-.557.55.55 0 00-.542-.556zm0 3.316H5.277a.55.55 0 00-.543.556.55.55 0 00.543.556h2.531a.55.55 0 00.542-.556.55.55 0 00-.542-.556zm5.062 0h-2.53a.55.55 0 00-.543.556.55.55 0 00.542.556h2.53a.55.55 0 00.543-.556.55.55 0 00-.542-.556zm5.062 0h-2.531a.55.55 0 00-.543.556.55.55 0 00.543.556h2.531c.3 0 .542-.249.542-.556a.55.55 0 00-.542-.556z"/></g><defs><clipPath id="clip0_29_107"><path fill="#fff" transform="translate(.749)" d="M0 0h27.482v28H0z"/></clipPath></defs></svg>