<svg width="14" height="15" fill="none" xmlns="http://www.w3.org/2000/svg"><g clip-path="url(#clip0_11_144)" fill="#437FC8"><path d="M.41 11.383h10.719a.41.41 0 00.263-.095c.103-.086 2.451-2.106 2.594-6.468H2.474C2.331 8.78.168 10.64.146 10.658a.41.41 0 00.264.725zM13.59 2.36h-2.051v-.41c0-.23-.18-.411-.41-.411-.23 0-.41.18-.41.41v.41H8.64v-.41c0-.23-.18-.41-.41-.41-.23 0-.41.18-.41.41v.41H5.77v-.41c0-.23-.181-.41-.411-.41-.23 0-.41.18-.41.41v.41H2.898c-.23 0-.41.18-.41.41V4H14V2.77c0-.23-.18-.41-.41-.41z"/><path d="M11.919 11.917a1.235 1.235 0 01-.79.287H2.488v1.23c0 .227.183.41.41.41H13.59a.41.41 0 00.41-.41V8.836c-.79 1.94-1.894 2.924-2.081 3.081z"/></g><defs><clipPath id="clip0_11_144"><path fill="#fff" transform="translate(0 .692)" d="M0 0h14v14H0z"/></clipPath></defs></svg>