<svg width="26" height="26" fill="none" xmlns="http://www.w3.org/2000/svg"><g clip-path="url(#clip0_31_12)" fill="#437FC8"><path d="M25.25 19.78l-5.06-3.374a1.477 1.477 0 00-1.978.321l-1.473 1.895a.63.63 0 01-.808.17l-.28-.154c-.93-.507-2.086-1.138-4.417-3.469-2.33-2.33-2.962-3.488-3.468-4.416l-.154-.28a.63.63 0 01.167-.81l1.893-1.474a1.478 1.478 0 00.322-1.978L6.62 1.151A1.47 1.47 0 004.64.705L2.522 1.976a2.985 2.985 0 00-1.36 1.767C.4 6.519.972 11.31 8.031 18.369c5.614 5.614 9.794 7.124 12.667 7.124a7.381 7.381 0 001.958-.255 2.982 2.982 0 001.766-1.361l1.273-2.115a1.47 1.47 0 00-.446-1.982zm-.272 1.554l-1.27 2.116a2.15 2.15 0 01-1.27.985c-2.563.704-7.04.12-13.817-6.655C1.845 11.004 1.262 6.526 1.966 3.963c.152-.535.505-.991.986-1.272l2.116-1.27a.637.637 0 01.86.194L7.76 4.367 9.3 6.674a.641.641 0 01-.14.859L7.266 9.006a1.458 1.458 0 00-.386 1.871l.15.274c.533.976 1.195 2.191 3.612 4.607 2.417 2.417 3.631 3.079 4.607 3.611l.274.151c.633.355 1.43.19 1.871-.386l1.474-1.895a.641.641 0 01.858-.139l5.06 3.375a.637.637 0 01.193.86zM15.072 4.663a7.09 7.09 0 017.082 7.082.417.417 0 10.833 0 7.924 7.924 0 00-7.915-7.915.417.417 0 100 .833z"/><path d="M15.072 7.163a4.588 4.588 0 014.582 4.582.417.417 0 00.834 0 5.422 5.422 0 00-5.416-5.416.417.417 0 100 .834z"/><path d="M15.072 9.662a2.086 2.086 0 012.083 2.083.417.417 0 10.833 0 2.92 2.92 0 00-2.916-2.916.417.417 0 100 .833z"/></g><defs><clipPath id="clip0_31_12"><path fill="#fff" transform="translate(.906 .494)" d="M0 0h25v25H0z"/></clipPath></defs></svg>