<svg width="27" height="27" fill="none" xmlns="http://www.w3.org/2000/svg"><g clip-path="url(#clip0_271_590)" fill="#6E6E6E"><path d="M26.102 6.185a2.903 2.903 0 00-2.13-.898H19.71v-.051c0-.642-.257-1.258-.693-1.669a2.349 2.349 0 00-1.668-.692h-7.7a2.364 2.364 0 00-2.387 2.36v.052H3.03c-.847 0-1.592.334-2.13.898a3.051 3.051 0 00-.9 2.13v12.782c0 .847.334 1.591.898 2.13a3.052 3.052 0 002.13.898h20.944c.846 0 1.59-.333 2.13-.898a3.051 3.051 0 00.898-2.13V8.316c0-.847-.334-1.592-.898-2.13zm-.437 14.912h-.025c0 .462-.18.873-.488 1.18a1.648 1.648 0 01-1.18.488H3.028c-.462 0-.873-.18-1.181-.487a1.648 1.648 0 01-.488-1.181V8.316c0-.462.18-.873.488-1.181a1.648 1.648 0 011.18-.488h4.954a.69.69 0 00.693-.693V5.21c0-.282.103-.539.282-.719.18-.18.437-.282.719-.282h7.674c.282 0 .539.103.718.282.18.18.283.437.283.72v.743a.69.69 0 00.693.693h4.953c.462 0 .873.18 1.18.488.309.308.488.719.488 1.18v12.782z"/><path d="M13.5 8.393a6.325 6.325 0 00-4.466 1.848 6.263 6.263 0 00-1.847 4.465c0 1.745.718 3.337 1.847 4.466A6.263 6.263 0 0013.5 21.02a6.325 6.325 0 004.466-1.848 6.263 6.263 0 001.848-4.466 6.325 6.325 0 00-1.848-4.465A6.325 6.325 0 0013.5 8.393zm3.49 9.83a5.015 5.015 0 01-3.49 1.437 5.015 5.015 0 01-3.49-1.438 4.906 4.906 0 01-1.438-3.49c0-1.36.565-2.592 1.438-3.49a4.906 4.906 0 013.49-1.438c1.36 0 2.592.565 3.49 1.437a4.907 4.907 0 011.438 3.49c.026 1.361-.539 2.593-1.437 3.491zm5.647-7.341a1.258 1.258 0 100-2.515 1.258 1.258 0 000 2.515z"/></g><defs><clipPath id="clip0_271_590"><path fill="#fff" d="M0 0h27v27H0z"/></clipPath></defs></svg>