<svg width="28" height="28" fill="none" xmlns="http://www.w3.org/2000/svg"><g clip-path="url(#clip0_29_176)" fill="#437FC8"><path d="M14.578 9.937H4.454a.395.395 0 000 .79h10.124a.395.395 0 000-.79zm0 2.779H4.454a.395.395 0 000 .79h10.124a.395.395 0 100-.79zm0 2.779H4.454a.395.395 0 000 .79h10.124a.395.395 0 100-.79zm.396 3.174a.395.395 0 00-.396-.395H4.454a.395.395 0 100 .79h10.124a.395.395 0 00.396-.395zm-10.52 3.677a.395.395 0 000 .791H9.53a.395.395 0 000-.79H4.454zM19.136 5.262V3.978a.888.888 0 00-.887-.886h-8.12a.888.888 0 00-.886.886v1.284c0 .489.398.886.887.886h.685a.395.395 0 100-.79h-.685a.096.096 0 01-.096-.096V3.978c0-.052.043-.095.096-.095h8.119c.053 0 .096.043.096.095v1.284a.096.096 0 01-.096.095h-5.585a.396.396 0 000 .791h5.585a.887.887 0 00.887-.886z"/><path d="M22.092 24.48a.395.395 0 00-.395.396v.532c0 .643-.523 1.166-1.166 1.166H3.036a1.167 1.167 0 01-1.166-1.166V6.4c0-.086.01-.17.028-.252h3.6c.753 0 1.364-.611 1.364-1.363v-3.6a1.11 1.11 0 01.251-.029h13.418c.643 0 1.166.523 1.166 1.166v5.265a.395.395 0 10.79 0V2.322A1.959 1.959 0 0020.532.365H7.113A1.95 1.95 0 005.73.938L1.652 5.016c-.37.37-.573.86-.573 1.384v19.008c0 1.08.878 1.957 1.957 1.957H20.53a1.959 1.959 0 001.957-1.956v-.533a.395.395 0 00-.396-.396zM6.072 1.715v3.07a.573.573 0 01-.573.572h-3.07l3.642-3.642z"/><path d="M27.509 14.498c.278-.407.35-.91.197-1.379a1.57 1.57 0 00-.97-1 .786.786 0 01-.523-.72 1.57 1.57 0 00-.651-1.231 1.57 1.57 0 00-1.373-.239.786.786 0 01-.846-.275 1.57 1.57 0 00-1.25-.614 1.57 1.57 0 00-1.251.614.786.786 0 01-.847.275 1.57 1.57 0 00-1.372.239 1.57 1.57 0 00-.651 1.231.786.786 0 01-.523.72 1.57 1.57 0 00-.97 1 1.57 1.57 0 00.197 1.379c.184.27.184.62 0 .89a1.57 1.57 0 00-.197 1.379c.152.469.506.833.97 1 .308.11.513.393.523.72a1.581 1.581 0 001.365 1.519v3.6a.84.84 0 001.28.715l1.45-.893c.024-.015.038-.008.05 0l1.451.893a.84.84 0 001.28-.715v-3.6a1.585 1.585 0 001.365-1.52.786.786 0 01.523-.72 1.57 1.57 0 00.97-1 1.57 1.57 0 00-.197-1.378.785.785 0 010-.89zm-3.526 9.15l-1.45-.893a.84.84 0 00-.88 0l-1.451.892a.048.048 0 01-.074-.04V19.93a.785.785 0 01.714.302c.302.39.757.614 1.25.614a1.57 1.57 0 001.251-.614.785.785 0 01.714-.302v3.676a.048.048 0 01-.074.041zm2.872-7.815a.785.785 0 01.099.69.785.785 0 01-.485.5 1.572 1.572 0 00-1.047 1.44.787.787 0 01-1.011.735 1.573 1.573 0 00-1.694.55.785.785 0 01-.625.307.785.785 0 01-.625-.307 1.571 1.571 0 00-1.693-.55.787.787 0 01-1.012-.735 1.572 1.572 0 00-1.046-1.44.785.785 0 01-.485-.5.785.785 0 01.098-.69 1.57 1.57 0 000-1.78.785.785 0 01-.098-.69.785.785 0 01.485-.5 1.572 1.572 0 001.046-1.44.785.785 0 01.326-.615.785.785 0 01.686-.12 1.572 1.572 0 001.693-.55.785.785 0 01.625-.307c.247 0 .475.112.625.307.4.518 1.066.734 1.694.55a.785.785 0 01.686.12.78.78 0 01.325.615c.02.654.43 1.22 1.047 1.44a.785.785 0 01.485.5.785.785 0 01-.099.69 1.573 1.573 0 000 1.78z"/><path d="M22.092 11.628a3.318 3.318 0 00-3.315 3.315 3.318 3.318 0 003.315 3.315 3.318 3.318 0 003.314-3.315 3.318 3.318 0 00-3.314-3.315zm0 5.839a2.526 2.526 0 01-2.524-2.524 2.526 2.526 0 012.524-2.524 2.526 2.526 0 012.524 2.524 2.526 2.526 0 01-2.524 2.524z"/></g><defs><clipPath id="clip0_29_176"><path fill="#fff" transform="translate(.932 .365)" d="M0 0h27v27H0z"/></clipPath></defs></svg>