<svg width="25" height="26" fill="none" xmlns="http://www.w3.org/2000/svg"><g clip-path="url(#clip0_34_42)" fill="#404040"><path d="M14.845 5.05H5.47a.782.782 0 000 1.562h9.375a.782.782 0 000-1.563zM11.72 8.174H5.47a.782.782 0 000 1.563h6.25a.782.782 0 000-1.563z"/><path d="M17.189.362H3.126A3.128 3.128 0 00.001 3.487v15.625a.78.78 0 001.281.6l4.47-3.725H17.19a3.128 3.128 0 003.125-3.125V3.487A3.128 3.128 0 0017.189.362zm1.562 12.5c0 .86-.7 1.562-1.563 1.562H5.47a.78.78 0 00-.5.182l-3.407 2.839V3.487c0-.861.7-1.563 1.563-1.563h14.063c.862 0 1.562.702 1.562 1.563v9.375z"/><path d="M21.876 6.612a.782.782 0 000 1.562c.862 0 1.563.702 1.563 1.563v13.217l-2.638-2.11a.788.788 0 00-.487-.17H9.376a1.564 1.564 0 01-1.563-1.562v-.781a.782.782 0 00-1.562 0v.78a3.128 3.128 0 003.125 3.126h10.662l3.693 2.955a.789.789 0 00.828.093.784.784 0 00.442-.704V9.737a3.128 3.128 0 00-3.125-3.125z"/></g><defs><clipPath id="clip0_34_42"><path fill="#fff" transform="translate(.001 .362)" d="M0 0h25v25H0z"/></clipPath></defs></svg>