<svg width="21" height="21" fill="none" xmlns="http://www.w3.org/2000/svg"><g clip-path="url(#clip0_88_190)" fill="#6E6E6E"><path d="M20.517 12.911c0-1.788-1.252-3.349-3.116-4.194.11.39.173.793.184 1.206.186.111.366.23.534.36.94.726 1.459 1.658 1.459 2.628 0 .97-.517 1.903-1.459 2.627-1.031.795-2.418 1.234-3.904 1.234-1.002 0-1.958-.2-2.792-.573a10.58 10.58 0 01-1.61.19c1.137.854 2.69 1.381 4.402 1.381a7.77 7.77 0 003.032-.598l2.294 1.17-.463-2.34c.898-.84 1.439-1.917 1.439-3.09z"/><path d="M16.933 9.27a5.023 5.023 0 00-.184-1.206c-.801-2.85-4.09-4.984-8.023-4.984-4.534 0-8.21 2.835-8.21 6.332 0 1.53.704 2.932 1.875 4.027l-.604 3.048 2.989-1.524a10.13 10.13 0 004.385.772 10.429 10.429 0 001.61-.19c3.544-.7 6.164-3.18 6.164-6.133l-.002-.143zm-3.12 3.566c-1.245.959-2.886 1.52-4.662 1.597a9.38 9.38 0 01-1.24-.025c-1.626-.135-3.12-.681-4.272-1.57-1.225-.945-1.9-2.161-1.9-3.425 0-1.263.675-2.479 1.9-3.424 1.343-1.036 3.15-1.606 5.086-1.606 1.938 0 3.745.57 5.087 1.606.608.47 1.08 1.004 1.402 1.58a3.9 3.9 0 01.426 1.134c.048.234.072.471.072.71 0 1.262-.674 2.478-1.899 3.423z"/><path d="M11.638 10.33a.898.898 0 100-1.797.898.898 0 000 1.796zm-2.912 0a.898.898 0 100-1.797.898.898 0 000 1.796zm-2.912 0a.899.899 0 100-1.797.899.899 0 000 1.797z"/></g><defs><clipPath id="clip0_88_190"><path fill="#fff" transform="translate(.517 .711)" d="M0 0h20v20H0z"/></clipPath></defs></svg>