<svg width="18" height="18" fill="none" xmlns="http://www.w3.org/2000/svg"><g clip-path="url(#clip0_13_42)"><path d="M16.05 2.768a4.793 4.793 0 00-6.704 0l-7.812 7.813a3.66 3.66 0 005.176 5.176l7.074-7.074a2.355 2.355 0 10-3.33-3.33l-6.767 6.766a.615.615 0 00.87.87l6.766-6.767a1.125 1.125 0 011.591 1.59L5.84 14.888a2.43 2.43 0 01-3.436-3.436l7.812-7.813a3.564 3.564 0 115.041 5.04L7.445 16.49a.615.615 0 10.867.868l7.813-7.813a4.793 4.793 0 00-.074-6.777z" fill="#C2C2C2"/></g><defs><clipPath id="clip0_13_42"><path fill="#fff" transform="translate(.492 .986)" d="M0 0h17v17H0z"/></clipPath></defs></svg>