<svg width="35" height="35" fill="none" xmlns="http://www.w3.org/2000/svg"><path d="M29.874 5.126A17.385 17.385 0 0017.5 0C12.826 0 8.431 1.82 5.126 5.126A17.386 17.386 0 000 17.5c0 4.674 1.82 9.07 5.126 12.375A17.386 17.386 0 0017.5 35c4.674 0 9.069-1.82 12.374-5.126A17.385 17.385 0 0035 17.5c0-4.674-1.82-9.069-5.126-12.374zm-1.45 23.298A15.348 15.348 0 0117.5 32.95a15.348 15.348 0 01-10.924-4.525A15.348 15.348 0 012.05 17.5c0-4.127 1.607-8.006 4.525-10.924A15.348 15.348 0 0117.5 2.05c4.127 0 8.006 1.607 10.924 4.525 6.024 6.023 6.024 15.825 0 21.848z" fill="#437FC8"/><path d="M25.215 23.765L18.95 17.5l6.265-6.264a1.025 1.025 0 10-1.45-1.45L17.5 16.05l-6.265-6.265a1.025 1.025 0 10-1.45 1.45L16.05 17.5l-6.265 6.265a1.025 1.025 0 101.45 1.45L17.5 18.95l6.264 6.265a1.022 1.022 0 001.45 0c.4-.4.4-1.05 0-1.45z" fill="#437FC8"/></svg>