<svg width="35" height="35" fill="none" xmlns="http://www.w3.org/2000/svg"><path d="M29.874 5.126A17.385 17.385 0 0017.5 0 17.38 17.38 0 005.126 5.126 17.386 17.386 0 000 17.5c0 4.674 1.82 9.07 5.126 12.374A17.386 17.386 0 0017.5 35c4.674 0 9.07-1.82 12.374-5.126A17.386 17.386 0 0035 17.5c0-4.674-1.82-9.07-5.126-12.374zM17.5 32.949c-8.519 0-15.45-6.93-15.45-15.449S8.982 2.05 17.5 2.05c8.519 0 15.45 6.931 15.45 15.45 0 8.519-6.931 15.45-15.45 15.45z" fill="#437FC8"/><path d="M18.599 16.475h-2.197a2.272 2.272 0 01-2.27-2.27 2.272 2.272 0 012.27-2.27h4.393a1.025 1.025 0 000-2.05h-2.27v-2.27a1.025 1.025 0 00-2.05 0v2.27h-.073a4.325 4.325 0 00-4.32 4.32 4.325 4.325 0 004.32 4.32h2.197a2.272 2.272 0 012.269 2.27 2.272 2.272 0 01-2.27 2.27h-4.393a1.025 1.025 0 000 2.05h2.27v2.27a1.025 1.025 0 002.05 0v-2.27h.074a4.325 4.325 0 004.32-4.32 4.325 4.325 0 00-4.32-4.32z" fill="#437FC8"/></svg>