<svg width="35" height="35" fill="none" xmlns="http://www.w3.org/2000/svg"><path d="M16.222 3.836l2.259-2.26L16.905 0l-4.794 4.795 4.794 4.794 1.577-1.577-1.918-1.919c7.344.825 12.628 7.446 11.804 14.79A13.38 13.38 0 0115.121 32.77c-.687 0-1.373-.052-2.052-.156l-.335 2.204c.79.12 1.588.182 2.387.182 8.617.008 15.608-6.971 15.615-15.587.007-8.2-6.334-15.006-14.514-15.577zM4.264 30.604c.575.557 1.192 1.07 1.845 1.533l1.29-1.821a13.39 13.39 0 01-1.583-1.313l-1.552 1.6zm3.904 2.767c.718.356 1.461.657 2.225.9l.669-2.125a13.495 13.495 0 01-1.906-.772l-.988 1.997z" fill="#437FC8"/></svg>