<svg width="35" height="35" fill="none" xmlns="http://www.w3.org/2000/svg"><g clip-path="url(#clip0_3001_68)" fill="#437FC8"><path d="M29.654 7.264L23.063 1.03A3.745 3.745 0 0020.479 0H7.929a3.764 3.764 0 00-3.76 3.76v27.48A3.764 3.764 0 007.93 35h19.14a3.764 3.764 0 003.76-3.76V9.996a3.775 3.775 0 00-1.176-2.732zm-1.992.94H22.56a.342.342 0 01-.342-.343v-4.81l5.445 5.152zm-.592 24.745H7.93a1.71 1.71 0 01-1.71-1.709V3.76a1.71 1.71 0 011.71-1.71h12.236v5.811a2.395 2.395 0 002.393 2.393h6.22V31.24a1.71 1.71 0 01-1.709 1.71z"/><path d="M24.814 13.672H9.775a1.025 1.025 0 000 2.05h15.04a1.025 1.025 0 000-2.05zm0 5.468H9.775a1.025 1.025 0 000 2.051h15.04a1.025 1.025 0 000-2.05zm-10.068 5.47h-4.97a1.025 1.025 0 000 2.05h4.97a1.025 1.025 0 000-2.05z"/></g><defs><clipPath id="clip0_3001_68"><path fill="#fff" d="M0 0h35v35H0z"/></clipPath></defs></svg>