<svg width="19" height="19" fill="#437FC8" xmlns="http://www.w3.org/2000/svg"><g clip-path="url(#clip0_1_664)"><path d="M13.845 2.543a5.058 5.058 0 00-3.897 1.8 4.99 4.99 0 00-3.896-1.8A5.104 5.104 0 00.948 7.646c0 4.83 8.43 9.547 8.773 9.73a.41.41 0 00.455 0c.342-.183 8.772-4.83 8.772-9.73a5.104 5.104 0 00-5.103-5.103zM9.948 16.464C8.627 15.69 1.86 11.565 1.86 7.646a4.192 4.192 0 014.192-4.192 4.101 4.101 0 013.509 1.891.478.478 0 00.775 0 4.192 4.192 0 017.7 2.301c.001 3.965-6.766 8.066-8.088 8.818z"/></g><defs><clipPath id="clip0_1_664"><path transform="translate(.948 .993)" d="M0 0h18v18H0z"/></clipPath></defs></svg>