<svg width="35" height="35" fill="none" xmlns="http://www.w3.org/2000/svg"><path d="M29.874 5.126A17.386 17.386 0 0017.5 0C12.826 0 8.431 1.82 5.126 5.126A17.386 17.386 0 000 17.5c0 4.674 1.82 9.069 5.126 12.374A17.385 17.385 0 0017.5 35c4.674 0 9.07-1.82 12.374-5.126A17.386 17.386 0 0035 17.5c0-4.674-1.82-9.07-5.126-12.374zM17.5 32.949c-8.519 0-15.45-6.93-15.45-15.449S8.982 2.05 17.5 2.05c8.519 0 15.45 6.931 15.45 15.45 0 8.519-6.931 15.45-15.45 15.45z" fill="#437FC8"/><path d="M18.225 6.89c-.191-.19-.455-.3-.725-.3-.27 0-.535.11-.725.3a1.03 1.03 0 000 1.451c.19.19.455.3.725.3.27 0 .534-.11.725-.3.19-.192.3-.456.3-.726 0-.27-.11-.534-.3-.725zm-.725 6.29c-.566 0-1.025.459-1.025 1.025v13.18a1.025 1.025 0 002.05 0v-13.18c0-.566-.459-1.025-1.025-1.025z" fill="#437FC8"/></svg>