<svg width="26" height="26" fill="none" xmlns="http://www.w3.org/2000/svg"><g clip-path="url(#clip0_31_109)"><path d="M12.104 9.396a5.475 5.475 0 005.469 5.468 5.475 5.475 0 005.469-5.468 5.475 5.475 0 00-5.47-5.47 5.475 5.475 0 00-5.468 5.47zm10.104 0a4.64 4.64 0 01-4.635 4.635 4.64 4.64 0 01-4.636-4.635 4.64 4.64 0 014.636-4.636 4.64 4.64 0 014.635 4.636zm-4.635-2.813c.23 0 .417.187.417.417v.176c.485.172.833.635.833 1.178a.417.417 0 11-.833 0 .417.417 0 00-.834 0v.168c0 .184.118.344.293.398l.497.155c.524.165.877.644.877 1.194v.168c0 .6-.425 1.103-.99 1.223v.131a.417.417 0 11-.833 0v-.243a1.25 1.25 0 01-.677-1.11.417.417 0 01.833 0 .417.417 0 00.834 0v-.17a.415.415 0 00-.293-.397l-.497-.155a1.245 1.245 0 01-.877-1.194v-.168c0-.543.348-1.006.833-1.178V7c0-.23.187-.417.417-.417zm6.77 11.042v5.312a2.92 2.92 0 01-2.916 2.917H5.385a2.92 2.92 0 01-2.916-2.917V2.521c0-.92.747-1.667 1.666-1.667h13.542c.92 0 1.667.748 1.667 1.667a.417.417 0 01-.834 0 .834.834 0 00-.833-.834H4.135a.834.834 0 00-.833.834v20.416c0 1.149.935 2.083 2.083 2.083H19.39a2.907 2.907 0 01-.879-2.083v-6.51a.417.417 0 01.834 0v6.51c0 1.149.934 2.083 2.083 2.083a2.086 2.086 0 002.083-2.083v-5.312a.834.834 0 00-.833-.834h-1.77a.417.417 0 110-.833h1.77c.92 0 1.667.748 1.667 1.667zM6.116 12.052c0-.23.186-.417.416-.417h3.542a.417.417 0 010 .834H6.53a.417.417 0 01-.416-.417zm0-4.688c0-.23.186-.416.416-.416h3.542a.417.417 0 010 .833H6.53a.417.417 0 01-.416-.417zm9.583 9.375c0 .23-.187.417-.417.417h-8.75a.417.417 0 010-.833h8.75c.23 0 .417.186.417.416zm0 4.375c0 .23-.187.417-.417.417h-8.75a.417.417 0 010-.833h8.75c.23 0 .417.186.417.416z" fill="#437FC8"/></g><defs><clipPath id="clip0_31_109"><path fill="#fff" transform="translate(.906 .854)" d="M0 0h25v25H0z"/></clipPath></defs></svg>