<svg width="18" height="18" fill="none" xmlns="http://www.w3.org/2000/svg"><g clip-path="url(#clip0_88_1328)" fill="#404040"><path d="M3.75 0h-3A.75.75 0 000 .75v3c0 .414.336.75.75.75h3a.75.75 0 00.75-.75v-3A.75.75 0 003.75 0zm0 6.75h-3A.75.75 0 000 7.5v3c0 .414.336.75.75.75h3a.75.75 0 00.75-.75v-3a.75.75 0 00-.75-.75zm0 6.75h-3a.75.75 0 00-.75.75v3c0 .414.336.75.75.75h3a.75.75 0 00.75-.75v-3a.75.75 0 00-.75-.75zM10.5 0h-3a.75.75 0 00-.75.75v3c0 .414.336.75.75.75h3a.75.75 0 00.75-.75v-3A.75.75 0 0010.5 0zm0 6.75h-3a.75.75 0 00-.75.75v3c0 .414.336.75.75.75h3a.75.75 0 00.75-.75v-3a.75.75 0 00-.75-.75zm0 6.75h-3a.75.75 0 00-.75.75v3c0 .414.336.75.75.75h3a.75.75 0 00.75-.75v-3a.75.75 0 00-.75-.75zM17.25 0h-3a.75.75 0 00-.75.75v3c0 .414.336.75.75.75h3a.75.75 0 00.75-.75v-3a.75.75 0 00-.75-.75zm0 6.75h-3a.75.75 0 00-.75.75v3c0 .414.336.75.75.75h3a.75.75 0 00.75-.75v-3a.75.75 0 00-.75-.75zm0 6.75h-3a.75.75 0 00-.75.75v3c0 .414.336.75.75.75h3a.75.75 0 00.75-.75v-3a.75.75 0 00-.75-.75z"/></g><defs><clipPath id="clip0_88_1328"><path fill="#fff" d="M0 0h18v18H0z"/></clipPath></defs></svg>