<svg width="22" height="22" fill="none" xmlns="http://www.w3.org/2000/svg"><g clip-path="url(#clip0_88_1320)" fill="#404040"><path d="M20.216 18.35H6.173a1.048 1.048 0 110-2.096h14.042a1.048 1.048 0 010 2.096zm0-6.579H6.173a1.048 1.048 0 110-2.095h14.042a1.048 1.048 0 010 2.095zm0-6.577H6.173a1.048 1.048 0 110-2.095h14.042a1.048 1.048 0 010 2.095zM1.67 5.635a1.407 1.407 0 100-2.815 1.407 1.407 0 000 2.815zm0 6.495a1.407 1.407 0 100-2.814 1.407 1.407 0 000 2.815zm0 6.497a1.407 1.407 0 100-2.814 1.407 1.407 0 000 2.814z"/></g><defs><clipPath id="clip0_88_1320"><path fill="#fff" transform="translate(.263 .224)" d="M0 0h21v21H0z"/></clipPath></defs></svg>