<svg width="25" height="26" fill="none" xmlns="http://www.w3.org/2000/svg"><g clip-path="url(#clip0_31_83)"><path d="M23.718 4.984H1.282C.577 4.984 0 5.561 0 6.266V20.37c0 .705.577 1.282 1.282 1.282h22.436c.705 0 1.282-.577 1.282-1.282V6.266c0-.705-.577-1.282-1.282-1.282zm-.481.962l-10 7.5c-.18.136-.455.222-.737.22a1.251 1.251 0 01-.738-.22l-9.999-7.5h21.474zm-5.341 7.995l5.448 6.73.018.018H1.638c.006-.006.012-.01.018-.018l5.448-6.73a.48.48 0 00-.747-.606L.962 20V6.547l10.224 7.668c.384.286.852.412 1.314.413.461 0 .93-.127 1.314-.413l10.224-7.668V20l-5.395-6.665a.48.48 0 10-.748.606z" fill="#437FC8"/></g><defs><clipPath id="clip0_31_83"><path fill="#fff" transform="translate(0 .817)" d="M0 0h25v25H0z"/></clipPath></defs></svg>