<svg width="21" height="21" fill="none" xmlns="http://www.w3.org/2000/svg"><g clip-path="url(#clip0_34_250)"><path d="M20.412 4.052l-2.728-2.73c-.687-.687-1.882-.689-2.572.002L2.894 13.662a.457.457 0 00-.114.195l-1.818 6.37a.455.455 0 00.562.562l6.363-1.82a.456.456 0 00.196-.115L20.412 6.625c.343-.344.532-.8.532-1.287 0-.486-.189-.942-.532-1.286zm-7.28.578l1.673 1.673-8.736 8.736-.627-1.254a.455.455 0 00-.407-.252h-.728l8.824-8.903zM2.06 19.69l.592-2.073 1.48 1.48-2.072.593zm5.247-1.5l-2.175.622-2.194-2.195.62-2.175h1.195l.784 1.567c.044.088.115.16.203.204l1.567.783v1.195zm.91-.747v-.728a.455.455 0 00-.252-.407l-1.254-.626 8.735-8.736 1.673 1.673-8.903 8.824zM19.77 5.993l-2.004 1.986-3.995-3.995 1.985-2.002a.93.93 0 011.286 0l2.727 2.727c.172.172.266.4.266.643a.902.902 0 01-.265.641z" fill="#437FC8"/></g><defs><clipPath id="clip0_34_250"><path fill="#fff" transform="translate(.944 .805)" d="M0 0h20v20H0z"/></clipPath></defs></svg>