<svg width="42" height="42" fill="none" xmlns="http://www.w3.org/2000/svg"><g clip-path="url(#clip0_29_0)" fill="#437FC8"><path d="M31.293 19.044l-1.073-5.599a.5.5 0 00-.264-.351l-1.337-.682 1.023-2.004a1.75 1.75 0 10-3.118-1.59L25.5 10.822l-3.563-1.817a.5.5 0 00-.44-.008l-5.162 2.418a.5.5 0 00-.233.226L6.788 29.903a.5.5 0 00.219.672l14.253 7.27a.5.5 0 00.672-.218l9.315-18.262a.5.5 0 00.046-.32zm-3.878-9.772a.75.75 0 111.336.682l-1.023 2.004-1.336-.682 1.023-2.004zm-3.067 6.013l.391-.767a.98.98 0 01.114.231 1 1 0 01-.642 1.26 1.023 1.023 0 01-1.26-.643 1 1 0 01.643-1.26.979.979 0 01.254-.043l-.391.768.89.454zm-3.08 21.442l-13.36-6.815 9.009-17.664 4.786-2.242 3.345 1.707-.721 1.414a1.924 1.924 0 00-1.041.03 2 2 0 102.519 1.285 1.924 1.924 0 00-.587-.861l.72-1.414 3.346 1.707.995 5.19-9.01 17.663z"/><path d="M22.73 21.757l.17-.334a1.622 1.622 0 00-.603-2.118l.46-.902-.89-.454-.46.901a1.62 1.62 0 00-1.86 2.546l1.131 1.335a.625.625 0 01-.759.96l-.668-.34a.626.626 0 01-.273-.842l.17-.334-.89-.454-.17.334a1.622 1.622 0 00.603 2.118l-.46.902.891.454.46-.902a1.62 1.62 0 001.86-2.546l-1.132-1.334a.625.625 0 01.759-.96l.668.34a.626.626 0 01.273.841l-.17.334.89.455zm2 1.581l-.89-.454-.454.89.89.455.455-.89zm-7.126-3.635l-.891-.454-.454.89.89.455.455-.89zm-4.508 4.437l-.89-.455-.455.89.89.455.455-.89zm1.782.908l-.89-.454-.455.89.89.455.455-.89zm7.772 6.771l-4.454-2.272-.454.89 4.454 2.273.454-.891zm-5.99-5.862l-.891-.455-.455.891.891.455.454-.891zm1.78.909l-.89-.455-.455.891.891.455.455-.891zm1.783.908l-.891-.454-.454.89.89.455.455-.89zm1.781.909l-.89-.454-.455.89.89.455.455-.89zm1.781.909l-.89-.454-.455.89.891.455.454-.891zm-6.48-.499l-.89-.455-.455.891.89.454.455-.89zm4.21 4.953l-4.454-2.272-.455.891 4.454 2.272.455-.891zM16.17 31.32l-.892-.455-.454.891.89.454.455-.89zm-1.092-3.363l-3.563-1.818a.5.5 0 00-.673.219l-1.136 2.227a.5.5 0 00.218.672l3.564 1.818a.5.5 0 00.672-.219l1.136-2.227a.5.5 0 00-.218-.672zm-1.581 2l-2.673-1.364.682-1.336 2.672 1.363-.681 1.337z"/></g><defs><clipPath id="clip0_29_0"><path fill="#fff" transform="rotate(27.024 5.806 30.302)" d="M0 0h30v30H0z"/></clipPath></defs></svg>