<svg width="31" height="31" fill="none" xmlns="http://www.w3.org/2000/svg"><g clip-path="url(#clip0_29_248)" fill="#437FC8"><path d="M19.37 12.278l-4.508 4.257L12.7 14.31a.623.623 0 00-.894.868l2.595 2.664c.24.242.63.25.881.018l4.958-4.676a.623.623 0 00.025-.881.638.638 0 00-.894-.025z"/><path d="M16.025 5.726c-5.152 0-9.34 4.189-9.34 9.34 0 5.152 4.188 9.34 9.34 9.34s9.34-4.188 9.34-9.34c0-5.151-4.188-9.34-9.34-9.34zm0 17.43c-4.464 0-8.09-3.632-8.09-8.09s3.626-8.09 8.09-8.09a8.09 8.09 0 110 16.18z"/><path d="M28.879 11.627l.206-3.707a.624.624 0 00-.344-.594l-3.3-1.67-1.67-3.3a.634.634 0 00-.594-.344l-3.714.2L16.368.168a.625.625 0 00-.687 0l-3.095 2.044-3.707-.206a.623.623 0 00-.594.344l-1.67 3.3-3.3 1.67a.633.633 0 00-.344.594l.206 3.707-2.045 3.095a.625.625 0 000 .688l2.039 3.1-.207 3.708a.623.623 0 00.344.594l3.301 1.67 1.67 3.3a.634.634 0 00.593.344l3.708-.206 3.095 2.044c.207.142.48.142.687 0l3.095-2.044 3.707.206a.624.624 0 00.594-.344l1.67-3.3 3.3-1.67a.634.634 0 00.345-.594l-.207-3.707 2.044-3.095a.625.625 0 000-.688l-2.031-3.095zm-1.163 6.365a.587.587 0 00-.1.381l.194 3.508-3.12 1.575a.617.617 0 00-.275.275l-1.576 3.12-3.507-.194a.683.683 0 00-.381.1l-2.927 1.932-2.925-1.932a.62.62 0 00-.344-.106h-.031l-3.508.194-1.575-3.12a.616.616 0 00-.275-.275L4.24 21.88l.194-3.506a.683.683 0 00-.1-.382l-1.932-2.926 1.931-2.926a.585.585 0 00.1-.381L4.24 8.25l3.12-1.575a.616.616 0 00.274-.275L9.21 3.28l3.507.194a.686.686 0 00.382-.1l2.925-1.932 2.927 1.932a.586.586 0 00.381.1l3.507-.194 1.576 3.12a.62.62 0 00.275.275l3.12 1.575-.194 3.508a.684.684 0 00.1.381l1.932 2.926-1.932 2.926z"/></g><defs><clipPath id="clip0_29_248"><path fill="#fff" transform="translate(.977 .064)" d="M0 0h30v30H0z"/></clipPath></defs></svg>