<svg width="30" height="31" fill="none" xmlns="http://www.w3.org/2000/svg"><g clip-path="url(#clip0_29_291)" fill="#437FC8"><path d="M22.031 22.038h.938a.469.469 0 01.468.469.469.469 0 10.938 0 1.406 1.406 0 00-1.406-1.406v-.47a.469.469 0 00-.938 0v.47a1.406 1.406 0 100 2.812h.938a.469.469 0 010 .938h-.938a.469.469 0 01-.468-.47.469.469 0 00-.938 0 1.406 1.406 0 001.406 1.407v.469a.469.469 0 10.938 0v-.469a1.406 1.406 0 000-2.812h-.938a.469.469 0 010-.938z"/><path d="M22.5 18.757a4.688 4.688 0 100 9.375 4.688 4.688 0 000-9.375zm0 8.437a3.75 3.75 0 110-7.5 3.75 3.75 0 010 7.5z"/><path d="M26.121 17.976a17.43 17.43 0 00.598-4.493V6.101a.47.47 0 00-.32-.445l-11.25-3.75a.469.469 0 00-.297 0l-11.25 3.75a.469.469 0 00-.32.445v7.382A17.25 17.25 0 0012.868 29l1.922.961a.469.469 0 00.419 0L17.13 29a15.71 15.71 0 001.082-.597 6.557 6.557 0 107.908-10.427zm-9.409 10.182L15 29.014l-1.712-.856a16.318 16.318 0 01-9.07-14.675V6.44L15 2.845l10.781 3.594v7.044a16.477 16.477 0 01-.508 4.022 6.492 6.492 0 00-1.793-.542c.28-1.139.423-2.307.426-3.48V8.126a.47.47 0 00-.32-.445l-8.438-2.813a.469.469 0 00-.296 0L6.414 7.681a.469.469 0 00-.32.445v5.357a14.445 14.445 0 008.031 12.997l.666.332a.469.469 0 00.419 0l.668-.334c.23-.117.442-.231.643-.344a6.554 6.554 0 001.008 1.582c-.275.159-.546.308-.817.442zm-.774-4.714a6.52 6.52 0 00.255 1.795c-.225.131-.461.262-.737.402l-.456.228-.456-.228a13.513 13.513 0 01-7.513-12.158v-5.02l7.97-2.656 7.968 2.657v5.02a13.758 13.758 0 01-.435 3.398H22.5a6.57 6.57 0 00-6.562 6.562zM22.5 29.07a5.625 5.625 0 115.625-5.625A5.631 5.631 0 0122.5 29.07z"/><path d="M14.063 19.226a.469.469 0 01-.331-.138l-3.978-3.977a.469.469 0 010-.663l1.326-1.326a.469.469 0 01.663 0l2.32 2.32 5.246-5.246a.469.469 0 01.663 0l1.326 1.326a.469.469 0 010 .662l-6.903 6.904a.469.469 0 01-.332.138zM10.75 14.78l3.314 3.314 6.241-6.24-.663-.664-5.246 5.247a.469.469 0 01-.663 0l-2.32-2.32-.663.662z"/></g><defs><clipPath id="clip0_29_291"><path fill="#fff" transform="translate(0 .944)" d="M0 0h30v30H0z"/></clipPath></defs></svg>