<svg width="25" height="26" fill="none" xmlns="http://www.w3.org/2000/svg"><g clip-path="url(#clip0_34_0)" fill="#FC443B"><path d="M23.288 6.941l-.018-.032a1.178 1.178 0 00-.089-.152L19.703.744a1.41 1.41 0 00-1.217-.702H6.516c-.5 0-.968.27-1.218.703L1.763 6.878a.734.734 0 00-.07.171c-.05.135-.078.28-.078.431v15.84c0 .95.773 1.723 1.723 1.723h18.326c.95 0 1.723-.773 1.723-1.723V7.422l-.002-.063a.729.729 0 00-.097-.418zm-10.03-5.434h5.194l2.736 4.73h-7.93v-4.73zm-6.707 0h5.242v4.73h-7.97l2.728-4.73zm15.37 21.812a.258.258 0 01-.257.257H3.338a.258.258 0 01-.257-.257V7.702h18.84V23.32z"/><path d="M15.826 13.226a.733.733 0 00-1.036 0l-3.271 3.272-1.258-1.258a.733.733 0 00-1.037 1.036l1.777 1.776a.73.73 0 001.036 0l3.79-3.79a.733.733 0 000-1.036z"/></g><defs><clipPath id="clip0_34_0"><path fill="#fff" transform="translate(0 .042)" d="M0 0h25v25H0z"/></clipPath></defs></svg>