<svg width="15" height="15" fill="none" xmlns="http://www.w3.org/2000/svg"><g clip-path="url(#clip0_88_477)"><path d="M14.185 5.56a1.014 1.014 0 00-.617-.33l-3.72-.514-1.473-3.518a1.01 1.01 0 00-1.865 0L5.038 4.716l-3.721.514a1.013 1.013 0 00-.535 1.76l2.804 2.5-.576 3.923a1 1 0 00.464 1.007.997.997 0 001.104-.02l2.864-1.949 2.865 1.95a1.011 1.011 0 001.568-.986L11.3 9.491l2.804-2.5a1.014 1.014 0 00.082-1.43zm-3.753 3.366a.5.5 0 00-.161.446l.6 4.2-3.146-2.14a.5.5 0 00-.562 0L3.999 13.56l.615-4.189a.5.5 0 00-.161-.444l-3-2.704 4.004-.552a.5.5 0 00.393-.303l1.598-3.79a.022.022 0 01.004.007l1.583 3.781a.5.5 0 00.393.303l4.009.577-3.005 2.681z" fill="#FFA800"/></g><defs><clipPath id="clip0_88_477"><path fill="#fff" transform="translate(.442 .577)" d="M0 0h14v14H0z"/></clipPath></defs></svg>