<svg width="31" height="31" fill="none" xmlns="http://www.w3.org/2000/svg"><g clip-path="url(#clip0_29_252)" fill="#437FC8"><path d="M15.277 15.365a.633.633 0 01-.22-.039L2.962 10.951a.624.624 0 01-.416-.586c0-.261.167-.496.417-.586l8.276-2.987a.642.642 0 01.817.37.623.623 0 01-.378.803l-6.652 2.4 10.251 3.709 10.252-3.709-6.652-2.401a.623.623 0 01-.379-.802.642.642 0 01.818-.372l8.275 2.988a.628.628 0 01.418.587.624.624 0 01-.416.586l-12.095 4.375a.632.632 0 01-.22.04zm0 15a.622.622 0 01-.218-.038l-6.76-2.438a.622.622 0 01-.38-.802.64.64 0 01.818-.372l6.54 2.359 6.542-2.359a.64.64 0 01.817.372.623.623 0 01-.378.802l-6.76 2.438a.635.635 0 01-.22.038z"/><path d="M3.182 22.565a.631.631 0 01-.636-.625V10.365a.63.63 0 01.636-.625c.352 0 .637.28.637.625V21.94a.631.631 0 01-.637.625zm24.191 0a.631.631 0 01-.637-.625V10.365c0-.345.285-.625.637-.625a.63.63 0 01.636.625V21.94a.631.631 0 01-.636.625zm-12.095-12.2a.631.631 0 01-.636-.625v-5a.63.63 0 01.636-.625c.352 0 .637.28.637.625v5a.631.631 0 01-.637.625zm11.382 16.8a.646.646 0 01-.451-.182l-3.107-3.05a.617.617 0 010-.884.645.645 0 01.9 0l3.107 3.05a.617.617 0 010 .884.64.64 0 01-.45.182zm-22.764 0a.646.646 0 01-.451-.182.617.617 0 010-.884l3.106-3.05a.645.645 0 01.9 0 .617.617 0 010 .884l-3.106 3.05a.64.64 0 01-.45.182zm11.382 3.2a.631.631 0 01-.636-.625v-15a.63.63 0 01.636-.625c.352 0 .637.28.637.625v15a.631.631 0 01-.637.625z"/><path d="M15.278 5.365c-1.405 0-2.547-1.121-2.547-2.5s1.143-2.5 2.547-2.5c1.404 0 2.546 1.121 2.546 2.5s-1.142 2.5-2.546 2.5zm0-3.75c-.702 0-1.273.561-1.273 1.25s.571 1.25 1.273 1.25c.701 0 1.273-.561 1.273-1.25s-.572-1.25-1.273-1.25zm12.732 28.75c-1.405 0-2.547-1.121-2.547-2.5 0-1.378 1.142-2.5 2.546-2.5s2.546 1.122 2.546 2.5c0 1.379-1.142 2.5-2.546 2.5zm0-3.75c-.702 0-1.274.562-1.274 1.25 0 .689.572 1.25 1.273 1.25.702 0 1.273-.561 1.273-1.25 0-.688-.571-1.25-1.273-1.25zm-25.464 3.75c-1.404 0-2.546-1.121-2.546-2.5 0-1.378 1.142-2.5 2.546-2.5 1.405 0 2.547 1.122 2.547 2.5 0 1.379-1.142 2.5-2.547 2.5zm0-3.75c-.701 0-1.273.562-1.273 1.25 0 .689.572 1.25 1.273 1.25.702 0 1.273-.561 1.273-1.25 0-.688-.571-1.25-1.273-1.25z"/></g><defs><clipPath id="clip0_29_252"><path fill="#fff" transform="translate(0 .365)" d="M0 0h30.556v30H0z"/></clipPath></defs></svg>