<svg width="49" height="50" fill="none" xmlns="http://www.w3.org/2000/svg"><g clip-path="url(#clip0_34_228)"><path d="M41.428 31.724c-2.614-2.669-5.726-4.644-9.12-5.84a14.243 14.243 0 006.024-11.672c0-7.81-6.224-14.164-13.875-14.164-7.65 0-13.875 6.354-13.875 14.164 0 4.837 2.389 9.116 6.025 11.672-3.395 1.196-6.506 3.171-9.12 5.84C2.952 36.35.456 42.504.456 49.048h3.75c0-11.399 9.084-20.672 20.25-20.672s20.25 9.273 20.25 20.672h3.75c0-6.544-2.496-12.697-7.03-17.324zm-16.971-7.176c-5.583 0-10.125-4.637-10.125-10.336 0-5.7 4.542-10.336 10.125-10.336s10.125 4.637 10.125 10.336c0 5.7-4.542 10.336-10.125 10.336z" fill="#437FC8"/></g><defs><clipPath id="clip0_34_228"><path fill="#fff" transform="translate(.457 .048)" d="M0 0h48v49H0z"/></clipPath></defs></svg>