<svg width="26" height="26" fill="none" xmlns="http://www.w3.org/2000/svg"><g clip-path="url(#clip0_34_71)" fill="#404040"><path d="M13.156 25.127a12.504 12.504 0 01-9.558-4.443 12.51 12.51 0 01-2.942-8.057c0-3.339 1.3-6.478 3.661-8.839a12.423 12.423 0 018.84-3.661c3.338 0 6.477 1.3 8.838 3.661a12.418 12.418 0 013.661 8.839 12.509 12.509 0 01-4.417 9.535 12.504 12.504 0 01-8.083 2.965zm0-23.438C7.126 1.69 2.22 6.596 2.22 12.627a10.945 10.945 0 003.865 8.344 10.94 10.94 0 0015.436-1.295 10.944 10.944 0 002.574-7.049c0-6.031-4.907-10.938-10.938-10.938z"/><path d="M13.156 12.627A4.693 4.693 0 018.47 7.939a4.693 4.693 0 014.687-4.687 4.693 4.693 0 014.688 4.687 4.693 4.693 0 01-4.688 4.688zm0-7.813a3.129 3.129 0 00-3.125 3.125 3.129 3.129 0 003.125 3.126 3.129 3.129 0 003.125-3.126 3.128 3.128 0 00-3.125-3.125z"/><path d="M20.735 22.348a.784.784 0 01-.759-.972 7.06 7.06 0 00.212-1.718c0-3.822-3.108-6.976-6.929-7.03l-.103-.001h-.103c-3.82.055-6.928 3.209-6.928 7.031 0 .581.071 1.16.211 1.718a.781.781 0 01-1.515.38 8.624 8.624 0 01-.258-2.098c0-2.274.88-4.418 2.477-6.036a8.542 8.542 0 015.994-2.557h.244c2.27.032 4.399.94 5.995 2.556a8.543 8.543 0 012.477 6.037c0 .71-.087 1.416-.258 2.099a.782.782 0 01-.758.59z"/></g><defs><clipPath id="clip0_34_71"><path fill="#fff" transform="translate(.656 .127)" d="M0 0h25v25H0z"/></clipPath></defs></svg>