<svg width="14" height="15" viewBox="0 0 14 15" fill="none" xmlns="http://www.w3.org/2000/svg">
<g clip-path="url(#clip0_11_144)">
<path d="M0.409547 11.3831H11.1288C11.2249 11.3831 11.3178 11.3495 11.3915 11.2882C11.4945 11.2019 13.8431 9.18155 13.9863 4.82031H2.47404C2.33138 8.77915 0.168446 10.6399 0.145969 10.6585C0.0141932 10.7698 -0.0342895 10.9517 0.0249945 11.1135C0.0838682 11.2749 0.237301 11.3831 0.409547 11.3831Z" fill="#437FC8"/>
<path d="M13.5899 2.35929H11.539V1.94912C11.539 1.71942 11.3585 1.53894 11.1288 1.53894C10.8991 1.53894 10.7186 1.71942 10.7186 1.94912V2.35929H8.64041V1.94912C8.64041 1.71942 8.45994 1.53894 8.23024 1.53894C8.00054 1.53894 7.82006 1.71942 7.82006 1.94912V2.35929H5.76919V1.94912C5.76919 1.71942 5.58871 1.53894 5.35902 1.53894C5.12932 1.53894 4.94884 1.71942 4.94884 1.94912V2.35929H2.89797C2.66827 2.35929 2.48779 2.53977 2.48779 2.76946V3.99999H14V2.76946C14 2.53977 13.8196 2.35929 13.5899 2.35929Z" fill="#437FC8"/>
<path d="M11.9186 11.9171C11.6958 12.1025 11.4163 12.2035 11.1291 12.2035H2.48804V13.434C2.48804 13.6607 2.67149 13.8442 2.89821 13.8442H13.5901C13.8168 13.8442 14.0003 13.6607 14.0003 13.434V8.83606C13.2095 10.7762 12.1059 11.7603 11.9186 11.9171Z" fill="#437FC8"/>
</g>
<defs>
<clipPath id="clip0_11_144">
<rect width="14" height="14" fill="white" transform="translate(0 0.691528)"/>
</clipPath>
</defs>
</svg>
