<svg width="29" height="28" viewBox="0 0 29 28" fill="none" xmlns="http://www.w3.org/2000/svg">
<g clip-path="url(#clip0_29_107)">
<path d="M26.7841 2.38495H22.0833V0.737434C22.0833 0.430199 21.8403 0.181152 21.5409 0.181152C21.2415 0.181152 20.9985 0.430199 20.9985 0.737434V2.38539H7.97665V0.737434C7.97665 0.430199 7.73367 0.181152 7.43427 0.181152C7.13487 0.181152 6.89189 0.430199 6.89189 0.737434V2.38539H2.19545C1.39956 2.38539 0.749023 3.05334 0.749023 3.869V26.3353C0.749023 27.1513 1.39956 27.8189 2.19545 27.8189H26.7841C27.5793 27.8189 28.2305 27.1509 28.2305 26.3353V3.869C28.2305 3.05296 27.5793 2.38495 26.7841 2.38495ZM27.1457 26.3353C27.1457 26.5361 26.9797 26.7063 26.7841 26.7063H2.19545C1.99911 26.7063 1.83384 26.5361 1.83384 26.3353V9.03172H27.1457V26.3353ZM27.1457 7.919H1.83384V3.869C1.83384 3.66781 1.99906 3.498 2.19545 3.498H6.89189V5.56043C6.89189 5.86767 7.13487 6.11671 7.43427 6.11671C7.73367 6.11671 7.97665 5.86767 7.97665 5.56043V3.498H20.9985V5.56043C20.9985 5.86767 21.2415 6.11671 21.5409 6.11671C21.8403 6.11671 22.0833 5.86767 22.0833 5.56043V3.498H26.7841C26.9797 3.498 27.1457 3.66786 27.1457 3.869V7.919H27.1457Z" fill="#437FC8"/>
<path d="M13.231 12.7058H10.7006C10.4012 12.7058 10.1582 12.9552 10.1582 13.2625C10.1582 13.5697 10.4012 13.8191 10.7006 13.8191H13.231C13.5304 13.8191 13.7734 13.5697 13.7734 13.2625C13.7734 12.9552 13.5304 12.7058 13.231 12.7058Z" fill="#437FC8"/>
<path d="M18.2933 12.7058H15.7621C15.4627 12.7058 15.2197 12.9552 15.2197 13.2625C15.2197 13.5697 15.4627 13.8191 15.7621 13.8191H18.2933C18.5927 13.8191 18.8357 13.5697 18.8357 13.2625C18.8357 12.9552 18.5927 12.7058 18.2933 12.7058Z" fill="#437FC8"/>
<path d="M23.3558 12.7058H20.8246C20.5252 12.7058 20.2822 12.9552 20.2822 13.2625C20.2822 13.5697 20.5252 13.8191 20.8246 13.8191H23.3558C23.6552 13.8191 23.8982 13.5697 23.8982 13.2625C23.8982 12.9552 23.6553 12.7058 23.3558 12.7058Z" fill="#437FC8"/>
<path d="M13.231 16.0217H10.7006C10.4012 16.0217 10.1582 16.2712 10.1582 16.5784C10.1582 16.8856 10.4012 17.1351 10.7006 17.1351H13.231C13.5304 17.1351 13.7734 16.8856 13.7734 16.5784C13.7734 16.2712 13.5304 16.0217 13.231 16.0217Z" fill="#437FC8"/>
<path d="M18.2933 16.0217H15.7621C15.4627 16.0217 15.2197 16.2712 15.2197 16.5784C15.2197 16.8856 15.4627 17.1351 15.7621 17.1351H18.2933C18.5927 17.1351 18.8357 16.8856 18.8357 16.5784C18.8357 16.2712 18.5927 16.0217 18.2933 16.0217Z" fill="#437FC8"/>
<path d="M23.3558 16.0217H20.8246C20.5252 16.0217 20.2822 16.2712 20.2822 16.5784C20.2822 16.8856 20.5252 17.1351 20.8246 17.1351H23.3558C23.6552 17.1351 23.8982 16.8856 23.8982 16.5784C23.8982 16.2712 23.6553 16.0217 23.3558 16.0217Z" fill="#437FC8"/>
<path d="M7.80795 16.0217H5.27676C4.97736 16.0217 4.73438 16.2712 4.73438 16.5784C4.73438 16.8856 4.97736 17.1351 5.27676 17.1351H7.80795C8.10665 17.1351 8.35033 16.8856 8.35033 16.5784C8.35028 16.2712 8.10697 16.0217 7.80795 16.0217Z" fill="#437FC8"/>
<path d="M13.231 19.3379H10.7006C10.4012 19.3379 10.1582 19.5869 10.1582 19.8942C10.1582 20.2014 10.4012 20.4508 10.7006 20.4508H13.231C13.5304 20.4508 13.7734 20.2014 13.7734 19.8942C13.7735 19.5869 13.5304 19.3379 13.231 19.3379Z" fill="#437FC8"/>
<path d="M18.2933 19.3379H15.7621C15.4627 19.3379 15.2197 19.5869 15.2197 19.8942C15.2197 20.2014 15.4627 20.4508 15.7621 20.4508H18.2933C18.5927 20.4508 18.8357 20.2014 18.8357 19.8942C18.8357 19.5869 18.5927 19.3379 18.2933 19.3379Z" fill="#437FC8"/>
<path d="M23.3558 19.3379H20.8246C20.5252 19.3379 20.2822 19.5869 20.2822 19.8942C20.2822 20.2014 20.5252 20.4508 20.8246 20.4508H23.3558C23.6552 20.4508 23.8982 20.2014 23.8982 19.8942C23.8982 19.5869 23.6553 19.3379 23.3558 19.3379Z" fill="#437FC8"/>
<path d="M7.80795 19.3379H5.27676C4.97736 19.3379 4.73438 19.5869 4.73438 19.8942C4.73438 20.2014 4.97736 20.4508 5.27676 20.4508H7.80795C8.10665 20.4508 8.35033 20.2014 8.35033 19.8942C8.35039 19.5869 8.10697 19.3379 7.80795 19.3379Z" fill="#437FC8"/>
<path d="M7.80795 22.6536H5.27676C4.97736 22.6536 4.73438 22.9026 4.73438 23.2098C4.73438 23.5171 4.97736 23.7665 5.27676 23.7665H7.80795C8.10665 23.7665 8.35033 23.5171 8.35033 23.2098C8.35028 22.9026 8.10697 22.6536 7.80795 22.6536Z" fill="#437FC8"/>
<path d="M12.8697 22.6536H10.3393C10.0399 22.6536 9.79688 22.9026 9.79688 23.2098C9.79688 23.5171 10.0399 23.7665 10.3393 23.7665H12.8697C13.1691 23.7665 13.4121 23.5171 13.4121 23.2098C13.4121 22.9026 13.1691 22.6536 12.8697 22.6536Z" fill="#437FC8"/>
<path d="M17.932 22.6536H15.4008C15.1014 22.6536 14.8584 22.9026 14.8584 23.2098C14.8584 23.5171 15.1014 23.7665 15.4008 23.7665H17.932C18.2314 23.7665 18.4744 23.5171 18.4744 23.2098C18.4744 22.9026 18.2314 22.6536 17.932 22.6536Z" fill="#437FC8"/>
</g>
<defs>
<clipPath id="clip0_29_107">
<rect width="27.4815" height="28" fill="white" transform="translate(0.749023)"/>
</clipPath>
</defs>
</svg>
