<svg width="27" height="27" viewBox="0 0 27 27" fill="none" xmlns="http://www.w3.org/2000/svg">
<g clip-path="url(#clip0_271_590)">
<path d="M26.1017 6.18535C25.5627 5.62071 24.8184 5.28706 23.9715 5.28706H19.711V5.23573C19.711 4.59409 19.4544 3.97812 19.0181 3.56748C18.5817 3.13117 17.9914 2.87451 17.3498 2.87451H9.65019C8.98289 2.87451 8.39259 3.13117 7.95627 3.56748C7.51996 4.00379 7.26331 4.59409 7.26331 5.23573V5.28706H3.02852C2.18156 5.28706 1.43726 5.62071 0.898289 6.18535C0.359316 6.72432 0 7.49428 0 8.31558V21.0969C0 21.9439 0.33365 22.6882 0.898289 23.2272C1.43726 23.7661 2.20722 24.1255 3.02852 24.1255H23.9715C24.8184 24.1255 25.5627 23.7918 26.1017 23.2272C26.6407 22.6882 27 21.9182 27 21.0969V8.31558C27 7.46862 26.6663 6.72432 26.1017 6.18535ZM25.6654 21.0969H25.6397C25.6397 21.5589 25.4601 21.9696 25.1521 22.2776C24.8441 22.5855 24.4335 22.7652 23.9715 22.7652H3.02852C2.56654 22.7652 2.15589 22.5855 1.84791 22.2776C1.53992 21.9696 1.36027 21.5589 1.36027 21.0969V8.31558C1.36027 7.8536 1.53992 7.44295 1.84791 7.13497C2.15589 6.82698 2.56654 6.64733 3.02852 6.64733H7.98194C8.36692 6.64733 8.6749 6.33934 8.6749 5.95436V5.21006C8.6749 4.92774 8.77757 4.67109 8.95722 4.49143C9.13688 4.31177 9.39354 4.20911 9.67586 4.20911H17.3498C17.6321 4.20911 17.8888 4.31177 18.0684 4.49143C18.2481 4.67109 18.3508 4.92774 18.3508 5.21006V5.95436C18.3508 6.33934 18.6587 6.64733 19.0437 6.64733H23.9971C24.4591 6.64733 24.8698 6.82698 25.1778 7.13497C25.4857 7.44295 25.6654 7.8536 25.6654 8.31558V21.0969Z" fill="#6E6E6E"/>
<path d="M13.5002 8.39258C11.755 8.39258 10.1637 9.11121 9.03443 10.2405C7.87949 11.3954 7.18652 12.961 7.18652 14.7063C7.18652 16.4515 7.90515 18.0428 9.03443 19.172C10.1894 20.327 11.755 21.02 13.5002 21.02C15.2455 21.02 16.8367 20.3013 17.966 19.172C19.1209 18.0171 19.8139 16.4515 19.8139 14.7063C19.8139 12.961 19.0953 11.3698 17.966 10.2405C16.8367 9.11121 15.2455 8.39258 13.5002 8.39258ZM16.9907 18.2224C16.0924 19.0951 14.8605 19.6597 13.5002 19.6597C12.1399 19.6597 10.908 19.0951 10.0097 18.2224C9.11143 17.3241 8.57246 16.0922 8.57246 14.7319C8.57246 13.3717 9.13709 12.1397 10.0097 11.2414C10.908 10.3431 12.1399 9.80418 13.5002 9.80418C14.8605 9.80418 16.0924 10.3688 16.9907 11.2414C17.889 12.1397 18.428 13.3717 18.428 14.7319C18.4536 16.0922 17.889 17.3241 16.9907 18.2224Z" fill="#6E6E6E"/>
<path d="M22.6375 10.8819C23.332 10.8819 23.8951 10.3189 23.8951 9.6243C23.8951 8.92975 23.332 8.3667 22.6375 8.3667C21.9429 8.3667 21.3799 8.92975 21.3799 9.6243C21.3799 10.3189 21.9429 10.8819 22.6375 10.8819Z" fill="#6E6E6E"/>
</g>
<defs>
<clipPath id="clip0_271_590">
<rect width="27" height="27" fill="white"/>
</clipPath>
</defs>
</svg>
