<svg width="12" height="12" viewBox="0 0 12 12" fill="none" xmlns="http://www.w3.org/2000/svg">
<g clip-path="url(#clip0_11_110)">
<path d="M7.06083 6.40138L11.8273 1.63491C11.9951 1.4671 11.9951 1.19502 11.8273 1.02723C11.6595 0.859435 11.3874 0.859414 11.2196 1.02723L6.45312 5.7937L1.68667 1.02723C1.51886 0.859414 1.24678 0.859414 1.07899 1.02723C0.911193 1.19504 0.911171 1.46712 1.07899 1.63491L5.84544 6.40136L1.07899 11.1678C0.911171 11.3356 0.911171 11.6077 1.07899 11.7755C1.16288 11.8594 1.27286 11.9014 1.38284 11.9014C1.49282 11.9014 1.60277 11.8594 1.68669 11.7755L6.45312 7.00907L11.2196 11.7755C11.3035 11.8594 11.4134 11.9014 11.5234 11.9014C11.6334 11.9014 11.7434 11.8594 11.8273 11.7755C11.9951 11.6077 11.9951 11.3356 11.8273 11.1678L7.06083 6.40138Z" fill="#437FC8"/>
</g>
<defs>
<clipPath id="clip0_11_110">
<rect width="11" height="11" fill="white" transform="translate(0.953613 0.900635)"/>
</clipPath>
</defs>
</svg>
