<svg width="28" height="28" viewBox="0 0 28 28" fill="none" xmlns="http://www.w3.org/2000/svg">
<g clip-path="url(#clip0_29_176)">
<path d="M14.5782 9.93689H4.45405C4.23562 9.93689 4.05859 10.114 4.05859 10.3323C4.05859 10.5508 4.23562 10.7278 4.45405 10.7278H14.5783C14.7967 10.7278 14.9737 10.5507 14.9737 10.3323C14.9737 10.114 14.7967 9.93689 14.5782 9.93689Z" fill="#437FC8"/>
<path d="M14.5782 12.7157H4.45405C4.23562 12.7157 4.05859 12.8928 4.05859 13.1112C4.05859 13.3295 4.23562 13.5066 4.45405 13.5066H14.5783C14.7967 13.5066 14.9737 13.3295 14.9737 13.1112C14.9737 12.8928 14.7967 12.7157 14.5782 12.7157Z" fill="#437FC8"/>
<path d="M14.5782 15.4946H4.45405C4.23562 15.4946 4.05859 15.6717 4.05859 15.8901C4.05859 16.1085 4.23562 16.2855 4.45405 16.2855H14.5783C14.7967 16.2855 14.9737 16.1085 14.9737 15.8901C14.9737 15.6717 14.7967 15.4946 14.5782 15.4946Z" fill="#437FC8"/>
<path d="M14.9737 18.669C14.9737 18.4506 14.7967 18.2736 14.5783 18.2736H4.45405C4.23562 18.2736 4.05859 18.4506 4.05859 18.669C4.05859 18.8874 4.23562 19.0645 4.45405 19.0645H14.5783C14.7967 19.0645 14.9737 18.8874 14.9737 18.669Z" fill="#437FC8"/>
<path d="M4.45405 22.3461C4.23562 22.3461 4.05859 22.5232 4.05859 22.7415C4.05859 22.9599 4.23562 23.137 4.45405 23.137H9.5291C9.74753 23.137 9.92456 22.9599 9.92456 22.7415C9.92456 22.5232 9.74753 22.3461 9.5291 22.3461H4.45405Z" fill="#437FC8"/>
<path d="M19.1356 5.26173V3.97849C19.1356 3.48964 18.7379 3.09192 18.249 3.09192H10.1297C9.64083 3.09192 9.24316 3.48964 9.24316 3.97849V5.26173C9.24316 5.75058 9.64083 6.14825 10.1297 6.14825H10.8153C11.0338 6.14825 11.2108 5.97116 11.2108 5.75279C11.2108 5.53436 11.0338 5.35734 10.8153 5.35734H10.1297C10.077 5.35734 10.0341 5.31446 10.0341 5.26178V3.97849C10.0341 3.92581 10.077 3.88288 10.1297 3.88288H18.249C18.3018 3.88288 18.3446 3.92575 18.3446 3.97849V5.26173C18.3446 5.31441 18.3018 5.35728 18.249 5.35728H12.6642C12.4458 5.35728 12.2687 5.53436 12.2687 5.75274C12.2687 5.97116 12.4458 6.14819 12.6642 6.14819H18.2491C18.7379 6.1483 19.1356 5.75058 19.1356 5.26173Z" fill="#437FC8"/>
<path d="M22.0924 24.4805C21.874 24.4805 21.6969 24.6575 21.6969 24.8759V25.4085C21.6969 26.0513 21.174 26.5743 20.5311 26.5743H3.03581C2.39303 26.5743 1.87001 26.0513 1.87001 25.4085V6.39952C1.87001 6.31394 1.88003 6.22998 1.89791 6.1483H5.49877C6.25055 6.1483 6.86216 5.53668 6.86216 4.7849V1.18409C6.94385 1.16622 7.02775 1.1562 7.11334 1.1562H20.531C21.1738 1.1562 21.6969 1.67916 21.6969 2.322V7.5871C21.6969 7.80553 21.8739 7.98256 22.0923 7.98256C22.3107 7.98256 22.4878 7.80547 22.4878 7.5871V2.32194C22.4878 1.24305 21.61 0.365234 20.5311 0.365234H7.11339C6.59074 0.365234 6.09931 0.568789 5.72975 0.938352L1.65217 5.01593C1.2826 5.38549 1.0791 5.87687 1.0791 6.39958V25.4085C1.0791 26.4875 1.95687 27.3652 3.03581 27.3652H20.5311C21.61 27.3652 22.4878 26.4874 22.4878 25.4085V24.876C22.4878 24.6575 22.3108 24.4805 22.0924 24.4805ZM6.07125 1.71545V4.7849C6.07125 5.10057 5.81444 5.35739 5.49877 5.35739H2.42931L6.07125 1.71545Z" fill="#437FC8"/>
<path d="M27.509 14.498C27.7866 14.0905 27.8584 13.5879 27.706 13.119C27.5537 12.6501 27.2001 12.2857 26.736 12.1192C26.4282 12.0088 26.2228 11.7262 26.213 11.3992C26.198 10.9064 25.9607 10.4575 25.5617 10.1677C25.1629 9.87793 24.6626 9.79097 24.1894 9.92903C23.8752 10.0207 23.5432 9.91268 23.343 9.65402C23.0413 9.26405 22.5855 9.04041 22.0924 9.04041C21.5994 9.04041 21.1435 9.26405 20.8418 9.65402C20.6416 9.91274 20.3093 10.0206 19.9954 9.92903C19.5222 9.79087 19.0219 9.87793 18.623 10.1677C18.2241 10.4575 17.9868 10.9064 17.9718 11.3992C17.962 11.7261 17.7566 12.0087 17.4487 12.1192C16.9847 12.2856 16.6311 12.6501 16.4788 13.1189C16.3264 13.5878 16.3983 14.0905 16.6758 14.4979C16.86 14.7683 16.86 15.1176 16.6758 15.3879C16.3983 15.7954 16.3264 16.298 16.4788 16.7669C16.6311 17.2359 16.9847 17.6002 17.4487 17.7667C17.7566 17.8772 17.962 18.1598 17.9718 18.4868C17.9856 18.9401 18.1933 19.366 18.5419 19.6553C18.7719 19.8462 19.0482 19.9656 19.3373 20.0055V23.6061C19.3373 23.9099 19.5021 24.1907 19.7673 24.3389C20.0322 24.4869 20.3578 24.4803 20.6167 24.3209L22.0671 23.428C22.0908 23.4134 22.1049 23.42 22.1179 23.428L23.5682 24.3209C23.827 24.4801 24.1525 24.487 24.4177 24.3388C24.6829 24.1906 24.8477 23.9098 24.8477 23.6061V20.0054C25.1367 19.9655 25.413 19.8461 25.643 19.6553C25.9916 19.366 26.1994 18.9401 26.2131 18.4867C26.2229 18.1598 26.4283 17.8771 26.7362 17.7667C27.2003 17.6002 27.5539 17.2358 27.7062 16.7669C27.8585 16.298 27.7867 15.7954 27.5091 15.3879C27.3248 15.1177 27.3248 14.7684 27.509 14.498ZM23.9828 23.6473L22.5324 22.7545C22.2627 22.5885 21.9223 22.5882 21.6524 22.7545L20.202 23.6473C20.169 23.6674 20.1282 23.6442 20.1282 23.6061V19.9304C20.4001 19.8989 20.6697 20.0096 20.8418 20.232C21.1436 20.6219 21.5994 20.8455 22.0925 20.8455C22.5855 20.8455 23.0413 20.6219 23.343 20.232C23.5151 20.0095 23.7848 19.8989 24.0566 19.9304V23.6061C24.0566 23.6445 24.0153 23.6674 23.9828 23.6473ZM26.8553 15.8334C26.9941 16.037 27.03 16.2882 26.9538 16.5226C26.8777 16.7569 26.701 16.9391 26.469 17.0223C25.8529 17.2432 25.4421 17.8087 25.4224 18.4629C25.4154 18.6929 25.3143 18.9002 25.1378 19.0466C24.9393 19.2113 24.6706 19.2735 24.411 19.1977C23.7828 19.0144 23.118 19.2304 22.7174 19.748C22.5666 19.9428 22.3388 20.0546 22.0924 20.0546C21.846 20.0546 21.6181 19.9429 21.4672 19.748C21.1614 19.3527 20.7015 19.1333 20.2215 19.1333C20.0729 19.1333 19.9223 19.1543 19.7738 19.1977C19.5117 19.274 19.2437 19.21 19.0469 19.0466C18.8704 18.9001 18.7693 18.6928 18.7624 18.4629C18.7426 17.8087 18.3318 17.2432 17.7157 17.0222C17.4837 16.939 17.3071 16.7569 17.2309 16.5226C17.1547 16.2882 17.1906 16.037 17.3294 15.8333C17.6978 15.2924 17.6978 14.5935 17.3294 14.0526C17.1906 13.849 17.1547 13.5978 17.2309 13.3634C17.307 13.129 17.4837 12.9469 17.7157 12.8637C18.3318 12.6427 18.7426 12.0772 18.7624 11.423C18.7698 11.1767 18.8884 10.9524 19.0878 10.8076C19.287 10.6627 19.537 10.6193 19.7737 10.6882C20.4018 10.8716 21.0668 10.6556 21.4672 10.138C21.6181 9.94311 21.8459 9.83132 22.0924 9.83132C22.3388 9.83132 22.5666 9.94306 22.7174 10.138C23.1179 10.6556 23.7826 10.8716 24.411 10.6882C24.6475 10.6192 24.8975 10.6627 25.0969 10.8075C25.2963 10.9523 25.4149 11.1767 25.4223 11.423C25.4421 12.0772 25.8529 12.6427 26.469 12.8636C26.701 12.9468 26.8776 13.129 26.9538 13.3633C27.03 13.5977 26.9941 13.8489 26.8553 14.0525C26.4868 14.5935 26.4868 15.2925 26.8553 15.8334Z" fill="#437FC8"/>
<path d="M22.0919 11.6284C20.2642 11.6284 18.7773 13.1153 18.7773 14.943C18.7773 16.7706 20.2642 18.2575 22.0919 18.2575C23.9195 18.2575 25.4064 16.7706 25.4064 14.943C25.4064 13.1153 23.9195 11.6284 22.0919 11.6284ZM22.0919 17.4666C20.7004 17.4666 19.5683 16.3345 19.5683 14.943C19.5683 13.5515 20.7004 12.4194 22.0919 12.4194C23.4835 12.4194 24.6155 13.5515 24.6155 14.943C24.6155 16.3346 23.4834 17.4666 22.0919 17.4666Z" fill="#437FC8"/>
</g>
<defs>
<clipPath id="clip0_29_176">
<rect width="27" height="27" fill="white" transform="translate(0.931641 0.365234)"/>
</clipPath>
</defs>
</svg>
