<svg width="21" height="21" viewBox="0 0 21 21" fill="none" xmlns="http://www.w3.org/2000/svg">
<g clip-path="url(#clip0_88_190)">
<path d="M20.5165 12.9113C20.5165 11.1226 19.2645 9.56195 17.4005 8.71729C17.5105 9.10729 17.5738 9.50995 17.5852 9.92329C17.7712 10.034 17.9512 10.1533 18.1192 10.2833C19.0592 11.0086 19.5778 11.9413 19.5778 12.9113C19.5778 13.8806 19.0612 14.814 18.1192 15.538C17.0878 16.3333 15.7012 16.772 14.2152 16.772C13.2132 16.772 12.2565 16.572 11.4232 16.1993C10.9058 16.3013 10.3678 16.366 9.81383 16.3886C10.9505 17.2426 12.5025 17.77 14.2152 17.77C15.3145 17.77 16.3478 17.554 17.2472 17.172L19.5412 18.3426L19.0778 16.002C19.9758 15.162 20.5165 14.0853 20.5165 12.9113Z" fill="#6E6E6E"/>
<path d="M16.9325 9.26941C16.9198 8.85675 16.8578 8.45341 16.7485 8.06408C15.9478 5.21475 12.6598 3.08008 8.72584 3.08008C4.19184 3.08074 0.51651 5.91541 0.51651 9.41208C0.51651 10.9421 1.21984 12.3441 2.39118 13.4394L1.78718 16.4874L4.77584 14.9627C5.94784 15.4601 7.29384 15.7441 8.72584 15.7441C8.87184 15.7441 9.01718 15.7401 9.16118 15.7347C9.71384 15.7127 10.2525 15.6474 10.7712 15.5447C14.3152 14.8441 16.9352 12.3641 16.9352 9.41208C16.9345 9.36474 16.9338 9.31741 16.9325 9.26941ZM13.8132 12.8361C12.5685 13.7947 10.9265 14.3561 9.15118 14.4334C9.01051 14.4407 8.86851 14.4441 8.72518 14.4441C8.45051 14.4441 8.17918 14.4321 7.91051 14.4087C6.28518 14.2727 4.79118 13.7267 3.63851 12.8374C2.41384 11.8927 1.73918 10.6767 1.73918 9.41341C1.73918 8.15008 2.41384 6.93408 3.63851 5.98941C4.98184 4.95341 6.78851 4.38274 8.72518 4.38274C10.6625 4.38274 12.4698 4.95341 13.8118 5.98941C14.4198 6.45808 14.8912 6.99341 15.2138 7.56808C15.4178 7.93274 15.5612 8.31341 15.6405 8.70274C15.6878 8.93675 15.7118 9.17408 15.7118 9.41275C15.7118 10.6754 15.0378 11.8914 13.8132 12.8361Z" fill="#6E6E6E"/>
<path d="M11.6379 10.3292C12.1338 10.3292 12.5359 9.92715 12.5359 9.4312C12.5359 8.93525 12.1338 8.5332 11.6379 8.5332C11.1419 8.5332 10.7399 8.93525 10.7399 9.4312C10.7399 9.92715 11.1419 10.3292 11.6379 10.3292Z" fill="#6E6E6E"/>
<path d="M8.72583 10.3292C9.22178 10.3292 9.62383 9.92715 9.62383 9.4312C9.62383 8.93525 9.22178 8.5332 8.72583 8.5332C8.22988 8.5332 7.82783 8.93525 7.82783 9.4312C7.82783 9.92715 8.22988 10.3292 8.72583 10.3292Z" fill="#6E6E6E"/>
<path d="M5.81384 10.33C6.31016 10.33 6.7125 9.9277 6.7125 9.43138C6.7125 8.93506 6.31016 8.53271 5.81384 8.53271C5.31752 8.53271 4.91517 8.93506 4.91517 9.43138C4.91517 9.9277 5.31752 10.33 5.81384 10.33Z" fill="#6E6E6E"/>
</g>
<defs>
<clipPath id="clip0_88_190">
<rect width="20" height="20" fill="white" transform="translate(0.51651 0.711426)"/>
</clipPath>
</defs>
</svg>
