<svg width="25" height="26" viewBox="0 0 25 26" fill="none" xmlns="http://www.w3.org/2000/svg">
<g clip-path="url(#clip0_34_42)">
<path d="M14.8447 5.04932H5.46973C5.03848 5.04932 4.68848 5.39932 4.68848 5.83057C4.68848 6.26182 5.03848 6.61182 5.46973 6.61182H14.8447C15.276 6.61182 15.626 6.26182 15.626 5.83057C15.626 5.39932 15.276 5.04932 14.8447 5.04932Z" fill="#404040"/>
<path d="M11.7197 8.17432H5.46973C5.03848 8.17432 4.68848 8.52432 4.68848 8.95557C4.68848 9.38682 5.03848 9.73682 5.46973 9.73682H11.7197C12.151 9.73682 12.501 9.38682 12.501 8.95557C12.501 8.52432 12.151 8.17432 11.7197 8.17432Z" fill="#404040"/>
<path d="M17.1885 0.361816H3.12598C1.40254 0.361816 0.000976562 1.76338 0.000976562 3.48682V19.1118C0.000976562 19.4149 0.175977 19.6915 0.450977 19.8196C0.555664 19.8681 0.669727 19.8931 0.782227 19.8931C0.961914 19.8931 1.14004 19.8306 1.28223 19.7118L5.75254 15.9868H17.1885C18.9119 15.9868 20.3135 14.5853 20.3135 12.8618V3.48682C20.3135 1.76338 18.9119 0.361816 17.1885 0.361816ZM18.751 12.8618C18.751 13.7228 18.051 14.4243 17.1885 14.4243H5.46973C5.28691 14.4243 5.11035 14.4884 4.96973 14.6056L1.56348 17.4446V3.48682C1.56348 2.62588 2.26348 1.92432 3.12598 1.92432H17.1885C18.051 1.92432 18.751 2.62588 18.751 3.48682V12.8618Z" fill="#404040"/>
<path d="M21.876 6.61182C21.4447 6.61182 21.0947 6.96182 21.0947 7.39307C21.0947 7.82432 21.4447 8.17432 21.876 8.17432C22.7385 8.17432 23.4385 8.87588 23.4385 9.73682V22.954L20.801 20.8446C20.6635 20.7353 20.49 20.6743 20.3135 20.6743H9.37598C8.51348 20.6743 7.81348 19.9728 7.81348 19.1118V18.3306C7.81348 17.8993 7.46348 17.5493 7.03223 17.5493C6.60098 17.5493 6.25098 17.8993 6.25098 18.3306V19.1118C6.25098 20.8353 7.65254 22.2368 9.37598 22.2368H20.0385L23.7307 25.1915C23.8729 25.304 24.0463 25.3618 24.2197 25.3618C24.3338 25.3618 24.4494 25.3368 24.5588 25.2853C24.8291 25.154 25.001 24.8806 25.001 24.5806V9.73682C25.001 8.01338 23.5994 6.61182 21.876 6.61182Z" fill="#404040"/>
</g>
<defs>
<clipPath id="clip0_34_42">
<rect width="25" height="25" fill="white" transform="translate(0.000976562 0.361816)"/>
</clipPath>
</defs>
</svg>
