<svg width="18" height="18" viewBox="0 0 18 18" fill="none" xmlns="http://www.w3.org/2000/svg">
<g clip-path="url(#clip0_13_42)">
<path d="M16.0508 2.76751C14.1876 0.944458 11.209 0.944854 9.34625 2.76841L1.53378 10.5809C0.121125 12.0269 0.148122 14.3442 1.59408 15.7569C3.01624 17.1463 5.28754 17.1463 6.70971 15.7569L13.784 8.68253C14.7037 7.76286 14.7037 6.27174 13.784 5.35207C12.8644 4.4324 11.3732 4.4324 10.4536 5.35207L3.68681 12.1188C3.4508 12.3632 3.45757 12.7526 3.70195 12.9886C3.94035 13.2189 4.31828 13.2189 4.55667 12.9886L11.3234 6.22189C11.7721 5.79203 12.4843 5.80735 12.9142 6.25606C13.331 6.69123 13.331 7.37755 12.9142 7.81271L5.83989 14.887C4.88421 15.8291 3.34573 15.8181 2.40363 14.8624C1.47106 13.9164 1.47106 12.3968 2.40363 11.4507L10.2161 3.63823C11.6077 2.24613 13.8643 2.24573 15.2564 3.6373C16.6485 5.02886 16.6489 7.28549 15.2573 8.6776L7.44484 16.4901C7.18679 16.7111 7.15673 17.0994 7.37772 17.3575C7.59871 17.6155 7.98705 17.6456 8.24509 17.4246C8.26917 17.404 8.29159 17.3816 8.31221 17.3575L16.1247 9.54497C17.9758 7.65304 17.9428 4.61864 16.0508 2.76751Z" fill="#C2C2C2"/>
</g>
<defs>
<clipPath id="clip0_13_42">
<rect width="17" height="17" fill="white" transform="translate(0.491699 0.98645)"/>
</clipPath>
</defs>
</svg>
