<svg width="35" height="35" viewBox="0 0 35 35" fill="none" xmlns="http://www.w3.org/2000/svg">
<path d="M29.8743 5.12559C26.569 1.82027 22.1743 0 17.5 0C12.8257 0 8.43097 1.82027 5.12565 5.12565C1.82034 8.43097 0 12.8256 0 17.5001C0 22.1745 1.82027 26.5692 5.12559 29.8745C8.4309 33.1797 12.8255 35 17.4999 35C22.1743 35 26.569 33.1797 29.8743 29.8744C33.1797 26.569 35 22.1744 35 17.5C35 12.8256 33.1797 8.43097 29.8743 5.12559ZM28.4242 28.4243C25.5063 31.3422 21.6266 32.9492 17.4999 32.9492C13.3733 32.9492 9.49361 31.3422 6.57569 28.4243C3.65771 25.5063 2.05078 21.6267 2.05078 17.5001C2.05078 13.3734 3.65784 9.49375 6.57576 6.57576C9.49375 3.65777 13.3733 2.05078 17.5 2.05078C21.6266 2.05078 25.5063 3.65777 28.4243 6.57569C34.4478 12.5994 34.4478 22.4006 28.4242 28.4243Z" fill="#437FC8"/>
<path d="M25.2145 23.7645L18.9499 17.5L25.2145 11.2355C25.6149 10.835 25.6149 10.1858 25.2144 9.78545C24.814 9.385 24.1647 9.385 23.7643 9.78545L17.4998 16.0499L11.2353 9.78538C10.8349 9.38493 10.1856 9.38493 9.7852 9.78538C9.38475 10.1858 9.38475 10.835 9.7852 11.2355L16.0497 17.5L9.7852 23.7645C9.38475 24.165 9.38475 24.8142 9.7852 25.2146C9.98543 25.4149 10.2479 25.5149 10.5102 25.5149C10.7727 25.5149 11.0351 25.4149 11.2353 25.2146L17.4998 18.9501L23.7644 25.2146C23.9646 25.4149 24.227 25.5149 24.4894 25.5149C24.7519 25.5149 25.0143 25.4149 25.2145 25.2146C25.6149 24.8142 25.6149 24.165 25.2145 23.7645Z" fill="#437FC8"/>
</svg>
