<svg width="16" height="16" viewBox="0 0 16 16" fill="none" xmlns="http://www.w3.org/2000/svg">
<g clip-path="url(#clip0_23_6)">
<path d="M9.62033 7.51559L15.461 1.67471C15.8411 1.29478 15.8411 0.680494 15.461 0.300569C15.0811 -0.0793563 14.4668 -0.0793563 14.0869 0.300569L8.24602 6.14145L2.40531 0.300569C2.02521 -0.0793563 1.4111 -0.0793563 1.03117 0.300569C0.651068 0.680494 0.651068 1.29478 1.03117 1.67471L6.87188 7.51559L1.03117 13.3565C0.651068 13.7364 0.651068 14.3507 1.03117 14.7306C1.22051 14.9201 1.46946 15.0153 1.71824 15.0153C1.96702 15.0153 2.21579 14.9201 2.40531 14.7306L8.24602 8.88972L14.0869 14.7306C14.2764 14.9201 14.5252 15.0153 14.774 15.0153C15.0227 15.0153 15.2715 14.9201 15.461 14.7306C15.8411 14.3507 15.8411 13.7364 15.461 13.3565L9.62033 7.51559Z" fill="#999999"/>
</g>
<defs>
<clipPath id="clip0_23_6">
<rect width="15" height="15" fill="white" transform="translate(0.746094 0.00292969)"/>
</clipPath>
</defs>
</svg>
