<svg width="35" height="35" viewBox="0 0 35 35" fill="none" xmlns="http://www.w3.org/2000/svg">
<path d="M29.8744 5.12559C26.5691 1.82027 22.1744 0 17.5 0C12.8256 0 8.4309 1.82027 5.12559 5.12559C1.82034 8.4309 0 12.8256 0 17.5C0 22.1744 1.82034 26.5691 5.12559 29.8744C8.4309 33.1797 12.8256 35 17.5 35C22.1744 35 26.5691 33.1797 29.8744 29.8744C33.1797 26.5691 35 22.1744 35 17.5C35 12.8256 33.1797 8.4309 29.8744 5.12559ZM17.5 32.9492C8.98126 32.9492 2.05078 26.0187 2.05078 17.5C2.05078 8.98126 8.98126 2.05078 17.5 2.05078C26.0187 2.05078 32.9492 8.98126 32.9492 17.5C32.9492 26.0187 26.0187 32.9492 17.5 32.9492Z" fill="#437FC8"/>
<path d="M18.5985 16.4746H16.4018C15.1503 16.4746 14.1323 15.4565 14.1323 14.2051C14.1323 12.9537 15.1504 11.9356 16.4018 11.9356H20.7951C21.3613 11.9356 21.8204 11.4765 21.8204 10.9102C21.8204 10.3439 21.3613 9.88483 20.7951 9.88483H18.5255V7.6153C18.5255 7.04901 18.0664 6.5899 17.5001 6.5899C16.9338 6.5899 16.4747 7.04901 16.4747 7.6153V9.88483H16.4019C14.0196 9.88483 12.0815 11.823 12.0815 14.2051C12.0815 16.5873 14.0197 18.5254 16.4019 18.5254H18.5985C19.8499 18.5254 20.868 19.5435 20.868 20.7949C20.868 22.0463 19.8499 23.0644 18.5985 23.0644H14.2053C13.639 23.0644 13.1799 23.5235 13.1799 24.0898C13.1799 24.6561 13.639 25.1152 14.2053 25.1152H16.4747V27.3848C16.4747 27.9511 16.9338 28.4102 17.5001 28.4102C18.0664 28.4102 18.5255 27.9511 18.5255 27.3848V25.1152H18.5985C20.9806 25.1152 22.9187 23.1771 22.9187 20.7949C22.9187 18.4127 20.9806 16.4746 18.5985 16.4746Z" fill="#437FC8"/>
</svg>
