<svg width="35" height="35" viewBox="0 0 35 35" fill="none" xmlns="http://www.w3.org/2000/svg">
<path d="M16.2219 3.83561L18.4809 1.57662L16.9054 0L12.1108 4.79452L16.9054 9.58903L18.482 8.01242L16.5642 6.0935C23.9077 6.9179 29.1924 13.5393 28.368 20.8828C27.6101 27.6332 21.9142 32.7446 15.1214 32.77C14.4342 32.77 13.7479 32.7178 13.0686 32.6139L12.7341 34.8182C13.5242 34.9389 14.3222 34.9997 15.1214 35C23.7376 35.0075 30.7286 28.0288 30.7362 19.4125C30.7433 11.2128 24.4017 4.40684 16.2219 3.83561Z" fill="#437FC8"/>
<path d="M4.26416 30.6035C4.83915 31.161 5.45603 31.6735 6.10949 32.1366L7.39844 30.3158C6.83822 29.9195 6.30922 29.4808 5.81624 29.0034L4.26416 30.6035Z" fill="#437FC8"/>
<path d="M8.16846 33.371C8.88575 33.7275 9.62946 34.0283 10.3929 34.2708L11.0619 32.1456C10.408 31.9372 9.771 31.6793 9.15635 31.374L8.16846 33.371Z" fill="#437FC8"/>
</svg>
