<svg width="35" height="35" viewBox="0 0 35 35" fill="none" xmlns="http://www.w3.org/2000/svg">
<g clip-path="url(#clip0_3001_68)">
<path d="M29.6542 7.26441L23.0627 1.02854C22.3617 0.365244 21.444 0 20.4789 0H7.92969C5.85655 0 4.16992 1.68663 4.16992 3.75977V31.2402C4.16992 33.3134 5.85655 35 7.92969 35H27.0703C29.1434 35 30.8301 33.3134 30.8301 31.2402V9.99564C30.8301 8.9669 30.4015 7.97139 29.6542 7.26441ZM27.6624 8.20312H22.5586C22.3701 8.20312 22.2168 8.0498 22.2168 7.86133V3.05129L27.6624 8.20312ZM27.0703 32.9492H7.92969C6.98735 32.9492 6.2207 32.1826 6.2207 31.2402V3.75977C6.2207 2.81743 6.98735 2.05078 7.92969 2.05078H20.166V7.86133C20.166 9.1806 21.2393 10.2539 22.5586 10.2539H28.7793V31.2402C28.7793 32.1826 28.0126 32.9492 27.0703 32.9492Z" fill="#437FC8"/>
<path d="M24.8145 13.6719H9.77539C9.2091 13.6719 8.75 14.131 8.75 14.6973C8.75 15.2636 9.2091 15.7227 9.77539 15.7227H24.8145C25.3807 15.7227 25.8398 15.2636 25.8398 14.6973C25.8398 14.131 25.3807 13.6719 24.8145 13.6719Z" fill="#437FC8"/>
<path d="M24.8145 19.1406H9.77539C9.2091 19.1406 8.75 19.5997 8.75 20.166C8.75 20.7323 9.2091 21.1914 9.77539 21.1914H24.8145C25.3807 21.1914 25.8398 20.7323 25.8398 20.166C25.8398 19.5997 25.3807 19.1406 24.8145 19.1406Z" fill="#437FC8"/>
<path d="M14.7465 24.6094H9.77539C9.2091 24.6094 8.75 25.0685 8.75 25.6348C8.75 26.2011 9.2091 26.6602 9.77539 26.6602H14.7465C15.3128 26.6602 15.7719 26.2011 15.7719 25.6348C15.7719 25.0685 15.3128 24.6094 14.7465 24.6094Z" fill="#437FC8"/>
</g>
<defs>
<clipPath id="clip0_3001_68">
<rect width="35" height="35" fill="white"/>
</clipPath>
</defs>
</svg>
