<svg width="51" height="51" viewBox="0 0 51 51" fill="none" xmlns="http://www.w3.org/2000/svg">
<g clip-path="url(#clip0_88_570)">
<path d="M25.3254 47.5322L24.1397 48.7179C23.613 49.2445 23.9934 50.1405 24.7289 50.1405C24.9422 50.1405 25.1555 50.0592 25.3182 49.8965L27.9224 47.2923C28.2479 46.9669 28.2479 46.4393 27.9224 46.1139L25.3182 43.5097C24.9928 43.1843 24.4652 43.1843 24.1398 43.5097C23.8143 43.8351 23.8143 44.3627 24.1398 44.6881L25.317 45.8653C14.0475 45.6777 4.93728 36.4538 4.93728 25.1405C4.93728 20.4656 6.45603 16.053 9.32926 12.3799C9.6128 12.0174 9.54884 11.4936 9.18624 11.2101C8.82384 10.9267 8.30009 10.9905 8.01645 11.3531C4.91176 15.3222 3.27061 20.0898 3.27061 25.1405C3.27061 37.4054 13.1034 47.3508 25.3254 47.5322ZM10.7419 10.4111C9.99561 10.4111 9.62197 9.49469 10.1663 8.975C10.5439 8.61354 11.0627 8.66927 11.3624 8.98083C11.8905 9.5299 11.4572 10.4111 10.7419 10.4111ZM30.2498 30.0364H32.7498C33.21 30.0364 33.5831 30.4095 33.5831 30.8697C33.5831 31.3299 33.21 31.703 32.7498 31.703H30.2498C29.7896 31.703 29.4164 31.3299 29.4164 30.8697C29.4164 30.4095 29.7896 30.0364 30.2498 30.0364ZM16.3956 36.078C16.3956 35.6178 16.7687 35.2447 17.2289 35.2447H34.104C35.0229 35.2447 35.7706 34.497 35.7706 33.578V16.703C35.7706 15.7841 35.0229 15.0364 34.104 15.0364H29.8331V20.8697C29.8331 21.4976 29.1631 21.9 28.6088 21.6056L25.6664 20.0424L22.7241 21.6055C22.1695 21.9002 21.4998 21.4971 21.4998 20.8697V17.953C21.4998 17.4928 21.8729 17.1197 22.3331 17.1197C22.7933 17.1197 23.1664 17.4928 23.1664 17.953V19.4833L25.2755 18.3629C25.5201 18.233 25.8129 18.233 26.0575 18.3629L28.1664 19.4833V15.0364H17.2289C16.31 15.0364 15.5623 15.7841 15.5623 16.703V31.4947C15.5623 31.9549 15.1892 32.328 14.7289 32.328C14.2687 32.328 13.8956 31.9549 13.8956 31.4947V16.703C13.8956 14.865 15.3909 13.3697 17.2289 13.3697H34.104C35.942 13.3697 37.4373 14.865 37.4373 16.703V33.578C37.4373 35.416 35.942 36.9114 34.104 36.9114H17.2289C16.7687 36.9114 16.3956 36.5382 16.3956 36.078ZM46.3956 25.1405C46.3956 13.8273 37.2854 4.60323 26.016 4.41583L27.1932 5.59302C27.7199 6.11948 27.3396 7.01552 26.6039 7.01552C26.3907 7.01552 26.1774 6.93417 26.0147 6.77146L23.4105 4.16729C23.085 3.84188 23.085 3.31427 23.4105 2.98885L26.0147 0.384687C26.3401 0.0592708 26.8677 0.0592708 27.1931 0.384687C27.5186 0.710104 27.5186 1.23771 27.1931 1.56313L26.0074 2.74885C38.2213 2.93 48.0623 12.8676 48.0623 25.1405C48.0623 30.1911 46.4212 34.9589 43.3165 38.928C43.0327 39.2908 42.5088 39.3544 42.1467 39.071C41.7842 38.7875 41.7201 38.2638 42.0036 37.9012C44.877 34.228 46.3956 29.8154 46.3956 25.1405ZM41.194 40.1278C41.4931 40.4412 41.5253 40.9627 41.1487 41.323C40.8172 41.642 40.2897 41.632 39.9704 41.3001C39.6513 40.9683 39.6617 40.4408 39.9933 40.1218C40.3768 39.755 40.8965 39.816 41.194 40.1278Z" fill="#404040"/>
</g>
<defs>
<clipPath id="clip0_88_570">
<rect width="50" height="50" fill="white" transform="matrix(-1 0 0 1 50.6664 0.140625)"/>
</clipPath>
</defs>
</svg>
