<svg width="21" height="24" viewBox="0 0 21 24" fill="none" xmlns="http://www.w3.org/2000/svg">
<g clip-path="url(#clip0_88_1629)">
<path fill-rule="evenodd" clip-rule="evenodd" d="M14.4727 5.03879C16.2067 5.50152 16.87 6.66756 17.7016 8.27246H14.4727V5.03879ZM4.33899 8.40723C4.6785 8.40723 4.92493 8.59569 4.92493 9.03613C4.92493 9.40762 4.66354 9.70891 4.34067 9.70996H0.800781C0.477142 9.70996 0.214844 10.0118 0.214844 10.3838C0.214844 10.756 0.477142 11.0576 0.800781 11.0576H6.07422C6.40091 11.0576 6.66245 11.3591 6.66245 11.7314C6.66245 12.1036 6.40015 12.4053 6.07651 12.4053H0.800781C0.477142 12.4053 0.214844 12.7069 0.214844 13.0791C0.214844 13.4513 0.477142 13.7529 0.800781 13.7529H2.08984V15.7744C2.08984 16.1466 2.35214 16.4482 2.67578 16.4482H3.85361C4.06357 17.6376 4.97742 18.5146 6.05469 18.5146C7.13196 18.5146 8.04581 17.6376 8.25577 16.4482H14.2052C14.4151 17.6376 15.329 18.5146 16.4062 18.5146C17.4835 18.5146 18.3974 17.6376 18.6073 16.4482H19.6289C19.9525 16.4482 20.2148 16.1466 20.2148 15.7744V11.7314C20.2148 9.75436 18.4015 9.6231 18.3998 9.62012H13.8867C13.5631 9.62012 13.3008 9.31847 13.3008 8.94629V4.90332H2.67578C2.35214 4.90332 2.08984 5.20496 2.08984 5.57715V7.05957H1.38672C1.06308 7.05957 0.800781 7.36121 0.800781 7.7334C0.800781 8.10558 1.06308 8.40723 1.38672 8.40723H4.33899ZM17.1658 15.0581C17.5853 15.5405 17.5853 16.323 17.1658 16.8053C16.4911 17.5813 15.332 17.0292 15.332 15.9316C15.332 14.8342 16.4911 14.2822 17.1658 15.0581ZM6.81427 15.0581C7.23373 15.5405 7.23373 16.323 6.81427 16.8053C6.13953 17.5813 4.98047 17.0292 4.98047 15.9316C4.98047 14.8342 6.13953 14.2822 6.81427 15.0581Z" fill="#1A467C"/>
</g>
<defs>
<clipPath id="clip0_88_1629">
<rect width="20" height="23" fill="white" transform="translate(0.214844 0.231445)"/>
</clipPath>
</defs>
</svg>
