<svg width="19" height="19" viewBox="0 0 19 19" fill="#437FC8" xmlns="http://www.w3.org/2000/svg">
<g clip-path="url(#clip0_1_664)">
<path d="M13.8446 2.54258C12.343 2.53456 10.9156 3.19401 9.94834 4.34256C8.98719 3.18616 7.55577 2.52483 6.05213 2.54258C3.23339 2.54258 0.948364 4.82761 0.948364 7.64635C0.948364 12.4768 9.37873 17.1932 9.72052 17.3755C9.85842 17.4676 10.0383 17.4676 10.1762 17.3755C10.518 17.1932 18.9484 12.5451 18.9484 7.64635C18.9484 4.82761 16.6633 2.54258 13.8446 2.54258ZM9.94834 16.4641C8.62683 15.6894 1.85976 11.5654 1.85976 7.64635C1.85976 5.33097 3.73675 3.45393 6.05218 3.45393C7.47007 3.43531 8.797 4.1505 9.56103 5.34506C9.71615 5.55898 10.0154 5.60664 10.2293 5.45147C10.2702 5.42182 10.3061 5.38592 10.3357 5.34506C11.6028 3.40718 14.201 2.86343 16.1389 4.13057C17.3252 4.90629 18.0393 6.22889 18.0369 7.64631C18.037 11.6109 11.2699 15.7122 9.94834 16.4641Z" fill="#437FC8"/>
</g>
<defs>
<clipPath id="clip0_1_664">
<rect width="18" height="18" fill="#437FC8" transform="translate(0.948364 0.993408)"/>
</clipPath>
</defs>
</svg>