<svg width="49" height="50" viewBox="0 0 49 50" fill="none" xmlns="http://www.w3.org/2000/svg">
<g clip-path="url(#clip0_88_559)">
<path d="M24.4999 0.151367C10.9691 0.151367 -6.10352e-05 11.1205 -6.10352e-05 24.6514C-6.10352e-05 38.1822 10.9691 49.1514 24.4999 49.1514C38.0308 49.1514 48.9999 38.1822 48.9999 24.6514C48.9848 11.1269 38.0244 0.16652 24.4999 0.151367ZM24.4999 47.518C11.8711 47.518 1.63327 37.2802 1.63327 24.6514C1.63327 12.0225 11.8711 1.7847 24.4999 1.7847C37.1288 1.7847 47.3666 12.0225 47.3666 24.6514C47.3522 37.2742 37.1228 47.5037 24.4999 47.518Z" fill="#404040"/>
<path d="M13.1416 23.0995C13.197 23.1107 13.2536 23.1167 13.3099 23.1167C13.6959 23.1159 14.0288 22.8451 14.1078 22.4675C14.2103 21.9834 14.3466 21.5077 14.5161 21.0431C14.6194 20.768 14.5668 20.4585 14.3785 20.2328C14.1903 20.0071 13.8952 19.9003 13.6061 19.9525C13.3166 20.0051 13.0782 20.2089 12.9809 20.486C12.7867 21.0232 12.63 21.5735 12.5127 22.1325C12.4202 22.5732 12.7013 23.0054 13.1416 23.0995Z" fill="#404040"/>
<path d="M15.2323 18.771C15.4947 18.7714 15.7407 18.6462 15.8946 18.4341C16.1853 18.0333 16.5028 17.6533 16.8453 17.2964C17.1575 16.971 17.1472 16.4538 16.8218 16.1416C16.4964 15.8293 15.9792 15.8397 15.6669 16.1651C15.2722 16.5746 14.9065 17.0113 14.5727 17.4718C14.3925 17.7203 14.3666 18.0485 14.5057 18.3216C14.6449 18.5952 14.9256 18.7674 15.2323 18.7678V18.771Z" fill="#404040"/>
<path d="M18.7569 15.5806C18.9005 15.5802 19.0417 15.5419 19.1653 15.4693C19.5908 15.2201 20.0338 15.0016 20.4908 14.8162C20.9091 14.6463 21.1101 14.1694 20.9402 13.7511C20.7699 13.3332 20.2934 13.1322 19.8751 13.3021C19.3475 13.5174 18.8351 13.7694 18.3422 14.0557C18.0232 14.2411 17.8677 14.6172 17.9634 14.9737C18.0587 15.3302 18.3817 15.5782 18.7506 15.579L18.7569 15.5806Z" fill="#404040"/>
<path d="M36.2706 21.2918C36.2658 21.2703 36.2706 21.25 36.2646 21.2288C36.2503 21.1766 36.2295 21.1252 36.2144 21.0729C36.1988 21.0207 36.1749 20.9561 36.1562 20.8971C36.0573 20.5916 35.9464 20.2897 35.824 19.9907C35.8017 19.9368 35.7805 19.8822 35.7578 19.8272C35.7283 19.7594 35.7048 19.69 35.6761 19.623C35.6617 19.6007 35.6461 19.5791 35.6294 19.5588C35.1732 18.5587 34.5846 17.6248 33.8792 16.7818C33.8697 16.7691 33.8673 16.7527 33.8565 16.7396C33.4884 16.3057 33.0909 15.8978 32.6666 15.5185C32.6403 15.5014 32.6132 15.4854 32.5848 15.4711C31.7746 14.7569 30.8734 14.1528 29.9048 13.6747C29.8828 13.6551 29.8597 13.6376 29.8354 13.6216C29.6783 13.5455 29.5168 13.4793 29.3557 13.4099C29.3094 13.3896 29.2635 13.3676 29.2161 13.3481C28.8967 13.2149 28.5753 13.0909 28.2475 12.986C28.2387 12.986 28.2304 12.986 28.2216 12.986C27.1657 12.6534 26.0695 12.4656 24.9629 12.4285C24.9378 12.4285 24.9162 12.4122 24.8911 12.4114C24.8094 12.4114 24.722 12.4114 24.6387 12.4114C24.592 12.4114 24.5474 12.4038 24.5007 12.4038C24.4876 12.4038 24.4772 12.4106 24.464 12.4114C24.037 12.4102 23.6099 12.4309 23.1852 12.474C22.7553 12.521 22.4367 12.8951 22.4587 13.3269C22.4802 13.7584 22.8343 14.0986 23.267 14.1025C23.2961 14.1025 23.3252 14.1009 23.3543 14.0978C23.7714 14.0555 24.1909 14.0371 24.61 14.0427C25.9789 14.0539 27.3319 14.3314 28.5948 14.8594L28.6837 14.8989C29.8226 15.3921 30.8666 16.0804 31.7682 16.933C31.9887 17.1407 32.1976 17.3576 32.3986 17.5865C33.1718 18.4431 33.8003 19.4196 34.2593 20.4784C34.2772 20.519 34.2927 20.5601 34.3099 20.6016C34.4188 20.8624 34.5161 21.1283 34.6022 21.3995C34.6185 21.4501 34.6365 21.5008 34.652 21.5514C34.9599 22.5559 35.1166 23.6007 35.1166 24.6514C35.1166 24.978 35.0963 25.2998 35.0675 25.6184C35.0604 25.7002 35.0512 25.7815 35.0424 25.8633C34.7302 28.5808 33.3796 31.0727 31.2733 32.8181L31.2302 32.8548C30.1823 33.7169 28.9788 34.3697 27.6848 34.778C27.6482 34.7896 27.6099 34.7991 27.5732 34.8099C27.3044 34.8916 27.0309 34.961 26.7565 35.0216L26.554 35.0647C20.8855 36.1884 15.3627 32.5621 14.1405 26.9144L15.9684 27.8363C16.3719 28.0381 16.8624 27.8742 17.0642 27.4707C17.266 27.0667 17.1021 26.5762 16.6981 26.3745L13.4315 24.7411C13.3206 24.6869 13.1986 24.659 13.0746 24.6594C13.063 24.6558 13.051 24.653 13.0387 24.6514C13.0152 24.6566 12.9916 24.6634 12.9685 24.671C12.884 24.6797 12.801 24.7021 12.7237 24.7371C12.5566 24.8105 12.4194 24.9381 12.3349 25.0996L10.7015 28.3663C10.4998 28.7702 10.6637 29.2607 11.0672 29.4625C11.4711 29.6639 11.9616 29.5004 12.1634 29.0964L12.7213 27.9811C12.9529 28.8017 13.2716 29.5957 13.6719 30.3493C13.6775 30.3721 13.6843 30.3944 13.6923 30.4163C13.9606 30.9196 14.2641 31.4029 14.6002 31.8634C14.6206 31.8914 14.6525 31.9025 14.6756 31.9272C15.3104 32.7758 16.0513 33.5398 16.8804 34.1998C16.9083 34.2393 16.9398 34.276 16.9745 34.3095C17.4227 34.662 17.8952 34.9822 18.3889 35.2681C18.4495 35.3036 18.5145 35.3311 18.5823 35.3498C19.4943 35.8578 20.4676 36.2474 21.4781 36.5086C21.502 36.5218 21.5268 36.5333 21.5519 36.5437C22.1058 36.6805 22.6684 36.7786 23.2358 36.8368H23.3172C23.7084 36.8763 24.104 36.8982 24.5039 36.8982C25.1694 36.8938 25.8334 36.8348 26.4894 36.7224H26.4993C26.5472 36.7228 26.595 36.7184 26.6421 36.7096C26.7131 36.6972 26.7824 36.6785 26.8534 36.6645C26.9443 36.6474 27.0333 36.6271 27.123 36.6075C27.4324 36.5405 27.7375 36.4616 28.0385 36.3715C28.086 36.3575 28.1343 36.3459 28.1805 36.3312C28.2272 36.3168 28.2623 36.3092 28.2997 36.2969C28.3185 36.2905 28.3308 36.2765 28.348 36.2694C29.4019 35.9224 30.4036 35.4332 31.3256 34.8155C31.3371 34.8083 31.3495 34.8067 31.3606 34.7991C31.6737 34.5878 31.9739 34.3549 32.2682 34.1141C32.287 34.0985 32.3049 34.0822 32.3245 34.0666C32.4517 33.9605 32.5817 33.8577 32.7041 33.7476C32.726 33.7217 32.7459 33.6946 32.7639 33.6658C33.5495 32.9477 34.2385 32.1306 34.8143 31.2354C34.8442 31.2039 34.8714 31.1704 34.8961 31.1349C35.1979 30.6516 35.4659 30.148 35.698 29.6272C35.7064 29.6092 35.704 29.5905 35.7104 29.5725C36.1502 28.5709 36.4524 27.5137 36.6088 26.4311C36.6191 26.4044 36.6283 26.3769 36.6355 26.3493C36.6494 26.2505 36.6558 26.15 36.6674 26.0503C36.6789 25.9506 36.6885 25.8545 36.6977 25.7564C36.7312 25.3871 36.7539 25.0163 36.7539 24.6458V24.5984C36.7539 24.5936 36.7539 24.5884 36.7539 24.5828C36.7435 23.4687 36.5812 22.3613 36.2706 21.2918Z" fill="#404040"/>
<path d="M24.5 17.3013C24.049 17.3013 23.6833 17.6669 23.6833 18.1179V24.6513C23.6833 24.8678 23.7694 25.0756 23.9225 25.2287L27.1892 28.4953C27.5098 28.8048 28.019 28.8004 28.3341 28.4854C28.6491 28.1704 28.6535 27.6611 28.344 27.3405L25.3166 24.3131V18.1179C25.3166 17.6669 24.951 17.3013 24.5 17.3013Z" fill="#404040"/>
</g>
<defs>
<clipPath id="clip0_88_559">
<rect width="49" height="49" fill="white" transform="translate(-6.10352e-05 0.151367)"/>
</clipPath>
</defs>
</svg>
