<svg width="35" height="35" viewBox="0 0 35 35" fill="none" xmlns="http://www.w3.org/2000/svg">
<path d="M29.8744 5.12559C26.5691 1.82034 22.1745 0 17.5 0C12.8256 0 8.43097 1.82027 5.12565 5.12559C1.82034 8.43097 0 12.8256 0 17.5C0 22.1744 1.82034 26.569 5.12565 29.8744C8.43097 33.1797 12.8256 35 17.5 35C22.1745 35 26.5691 33.1797 29.8744 29.8744C33.1797 26.5691 35 22.1744 35 17.5C35 12.8256 33.1797 8.4309 29.8744 5.12559ZM17.5 32.9492C8.98126 32.9492 2.05078 26.0187 2.05078 17.5C2.05078 8.98126 8.98126 2.05078 17.5 2.05078C26.0187 2.05078 32.9492 8.98126 32.9492 17.5C32.9492 26.0187 26.0187 32.9492 17.5 32.9492Z" fill="#437FC8"/>
<path d="M18.2252 6.88994C18.0339 6.69922 17.77 6.58984 17.5 6.58984C17.23 6.58984 16.9654 6.69922 16.7747 6.88994C16.584 7.08066 16.4746 7.34521 16.4746 7.61523C16.4746 7.88525 16.584 8.1498 16.7747 8.34053C16.9654 8.53125 17.23 8.64062 17.5 8.64062C17.77 8.64062 18.0339 8.53125 18.2252 8.34053C18.4159 8.14912 18.5254 7.88525 18.5254 7.61523C18.5254 7.34521 18.4159 7.08066 18.2252 6.88994Z" fill="#437FC8"/>
<path d="M17.5 13.1797C16.9337 13.1797 16.4746 13.6388 16.4746 14.2051V27.3848C16.4746 27.9511 16.9337 28.4102 17.5 28.4102C18.0663 28.4102 18.5254 27.9511 18.5254 27.3848V14.2051C18.5254 13.6388 18.0663 13.1797 17.5 13.1797Z" fill="#437FC8"/>
</svg>
