<svg width="22" height="22" viewBox="0 0 22 22" fill="none" xmlns="http://www.w3.org/2000/svg">
<g clip-path="url(#clip0_88_1320)">
<path d="M20.2157 18.3496H6.1731C5.59433 18.3496 5.12524 17.8805 5.12524 17.3018C5.12524 16.723 5.59433 16.2539 6.1731 16.2539H20.2154C20.7941 16.2539 21.2632 16.723 21.2632 17.3018C21.2632 17.8805 20.7945 18.3496 20.2157 18.3496Z" fill="#404040"/>
<path d="M20.2157 11.7715H6.1731C5.59433 11.7715 5.12524 11.3024 5.12524 10.7236C5.12524 10.1449 5.59433 9.67578 6.1731 9.67578H20.2154C20.7941 9.67578 21.2632 10.1449 21.2632 10.7236C21.2636 11.3024 20.7945 11.7715 20.2157 11.7715Z" fill="#404040"/>
<path d="M20.2157 5.19434H6.1731C5.59433 5.19434 5.12524 4.72525 5.12524 4.14648C5.12524 3.56772 5.59433 3.09863 6.1731 3.09863H20.2154C20.7941 3.09863 21.2632 3.56772 21.2632 4.14648C21.2632 4.72525 20.7945 5.19434 20.2157 5.19434Z" fill="#404040"/>
<path d="M1.67045 5.63484C2.44766 5.63484 3.07771 5.00479 3.07771 4.22758C3.07771 3.45037 2.44766 2.82031 1.67045 2.82031C0.893238 2.82031 0.263184 3.45037 0.263184 4.22758C0.263184 5.00479 0.893238 5.63484 1.67045 5.63484Z" fill="#404040"/>
<path d="M1.67045 12.1309C2.44766 12.1309 3.07771 11.5009 3.07771 10.7237C3.07771 9.94646 2.44766 9.31641 1.67045 9.31641C0.893238 9.31641 0.263184 9.94646 0.263184 10.7237C0.263184 11.5009 0.893238 12.1309 1.67045 12.1309Z" fill="#404040"/>
<path d="M1.67045 18.627C2.44766 18.627 3.07771 17.997 3.07771 17.2198C3.07771 16.4426 2.44766 15.8125 1.67045 15.8125C0.893238 15.8125 0.263184 16.4426 0.263184 17.2198C0.263184 17.997 0.893238 18.627 1.67045 18.627Z" fill="#404040"/>
</g>
<defs>
<clipPath id="clip0_88_1320">
<rect width="21" height="21" fill="white" transform="translate(0.263184 0.223633)"/>
</clipPath>
</defs>
</svg>
