<svg width="43" height="43" viewBox="0 0 43 43" fill="none" xmlns="http://www.w3.org/2000/svg">
<path d="M38.9305 13.5514C38.9832 13.077 38.9285 12.5969 38.7706 12.1465C38.6127 11.6961 38.3555 11.287 38.0182 10.9494C37.6808 10.6119 37.2718 10.3544 36.8215 10.1963C36.3712 10.0381 35.8911 9.98315 35.4167 10.0356C35.4293 9.92017 35.4357 9.8042 35.4359 9.68814C35.4359 8.84235 35.0999 8.03121 34.5019 7.43315C33.9038 6.83509 33.0927 6.4991 32.2469 6.4991C32.1308 6.49927 32.0148 6.50568 31.8995 6.51829C31.9716 5.86196 31.8381 5.19942 31.5175 4.62222C31.1968 4.04502 30.7048 3.58165 30.1095 3.29614C29.5141 3.01063 28.8448 2.91706 28.1939 3.02837C27.5431 3.13969 26.9429 3.45038 26.4763 3.91753L24.0713 6.32251C23.7131 5.84552 23.3218 5.39431 22.9003 4.97221L20.0878 2.15971C19.0235 1.09545 17.5801 0.497559 16.075 0.497559C14.5699 0.497559 13.1265 1.09545 12.0622 2.15971C11.9969 2.225 11.9451 2.30251 11.9098 2.38781C11.8744 2.47312 11.8562 2.56455 11.8562 2.65689C11.8562 2.74922 11.8744 2.84065 11.9098 2.92596C11.9451 3.01127 11.9969 3.08878 12.0622 3.15406L13.0813 4.17318C14.3909 5.48605 15.331 7.12105 15.807 8.91326C16.2829 10.7055 16.2778 12.5915 15.7922 14.3811C15.5132 15.4039 15.3719 16.4593 15.3719 17.5194V22.0531L13.9656 23.4594L13.7597 23.2535C13.6278 23.1216 13.449 23.0475 13.2625 23.0475C13.076 23.0475 12.8972 23.1216 12.7653 23.2535L10.45 25.5688L10.2441 25.3628C10.1122 25.231 9.93336 25.1569 9.74688 25.1569C9.56041 25.1569 9.38157 25.231 9.24971 25.3628L0.81221 33.8003L1.80656 34.7947L9.74688 26.8544L21.4088 38.5163L18.3903 41.5347L19.3847 42.5291L22.9003 39.0134C22.9656 38.9482 23.0174 38.8706 23.0527 38.7853C23.0881 38.7 23.1063 38.6086 23.1063 38.5163C23.1063 38.4239 23.0881 38.3325 23.0527 38.2472C23.0174 38.1619 22.9656 38.0844 22.9003 38.0191L21.9912 37.11L24.3066 34.7947C24.3719 34.7294 24.4237 34.6519 24.459 34.5666C24.4943 34.4813 24.5125 34.3898 24.5125 34.2975C24.5125 34.2052 24.4943 34.1137 24.459 34.0284C24.4237 33.9431 24.3719 33.8656 24.3066 33.8003L22.6944 32.1881L24.1007 30.7819H29.4344C29.5267 30.7819 29.6181 30.7637 29.7035 30.7284C29.7888 30.693 29.8663 30.6412 29.9316 30.5759L36.9628 23.5447L36.9352 23.5171C37.0699 23.4192 37.1966 23.3108 37.3144 23.1931L41.5331 18.9744C42.0004 18.5076 42.3111 17.9073 42.4224 17.2562C42.5336 16.6052 42.4399 15.9358 42.1541 15.3403C41.8683 14.7449 41.4047 14.253 40.8272 13.9325C40.2497 13.612 39.5869 13.4788 38.9305 13.5514ZM35.7625 11.4218C36.1151 11.4216 36.4599 11.5259 36.7531 11.7217C37.0464 11.9175 37.275 12.1959 37.41 12.5217C37.5449 12.8474 37.5802 13.2059 37.5114 13.5517C37.4425 13.8976 37.2726 14.2152 37.0231 14.4644L32.8044 18.6832C32.4701 19.0175 32.0166 19.2053 31.5438 19.2053C31.0709 19.2053 30.6175 19.0175 30.2831 18.6832C29.9488 18.3488 29.7609 17.8953 29.7609 17.4225C29.7609 16.9497 29.9488 16.4962 30.2831 16.1619L34.5019 11.9431C34.6673 11.7775 34.8638 11.6462 35.0802 11.5567C35.2965 11.4672 35.5284 11.4214 35.7625 11.4218ZM33.5075 8.4275C33.8414 8.76211 34.0288 9.21547 34.0288 9.68814C34.0288 10.1608 33.8414 10.6142 33.5075 10.9488L29.2888 15.1675C28.9544 15.5019 28.501 15.6897 28.0281 15.6897C27.5553 15.6897 27.1018 15.5019 26.7675 15.1675C26.4332 14.8332 26.2453 14.3797 26.2453 13.9069C26.2453 13.4341 26.4332 12.9806 26.7675 12.6462L30.9862 8.4275C31.3209 8.09368 31.7742 7.90621 32.2469 7.90621C32.7195 7.90621 33.1729 8.09368 33.5075 8.4275ZM27.4706 4.91187C27.805 4.57753 28.2584 4.3897 28.7313 4.3897C29.2041 4.3897 29.6576 4.57753 29.9919 4.91187C30.3262 5.24622 30.5141 5.69968 30.5141 6.17251C30.5141 6.64534 30.3262 7.09881 29.9919 7.43315L25.7731 11.6519C25.6076 11.8174 25.4111 11.9488 25.1948 12.0384C24.9785 12.128 24.7466 12.1741 24.5125 12.1741C24.2784 12.1741 24.0466 12.128 23.8303 12.0384C23.614 11.9488 23.4174 11.8174 23.2519 11.6519C23.0863 11.4864 22.955 11.2898 22.8654 11.0735C22.7758 10.8572 22.7297 10.6254 22.7297 10.3913C22.7297 10.1571 22.7758 9.92531 22.8654 9.70901C22.955 9.49271 23.0863 9.29617 23.2519 9.13062L27.4706 4.91187ZM20.9969 36.1157L11.4444 26.5631L13.2625 24.745L22.815 34.2975L20.9969 36.1157ZM29.1431 29.3756H23.8094C23.717 29.3756 23.6256 29.3938 23.5403 29.4292C23.455 29.4645 23.3775 29.5163 23.3122 29.5816L21.7 31.1938L14.96 24.4538L16.5722 22.8416C16.6375 22.7763 16.6893 22.6988 16.7246 22.6135C16.7599 22.5282 16.7781 22.4367 16.7781 22.3444V17.5194C16.7781 16.5843 16.9028 15.6533 17.1489 14.7511C17.6994 12.7223 17.7052 10.5842 17.1656 8.55243C16.6261 6.52068 15.5603 4.66716 14.0757 3.17882L13.5947 2.69783C14.4175 2.11222 15.421 1.83677 16.4275 1.92028C17.434 2.00379 18.3784 2.44086 19.0935 3.15406L21.906 5.96656C22.328 6.3889 22.716 6.84397 23.0663 7.32749L22.2575 8.13628C21.7899 8.60272 21.4787 9.20297 21.3671 9.854C21.2555 10.505 21.349 11.1746 21.6346 11.7702C21.9202 12.3658 22.3838 12.8579 22.9614 13.1784C23.5389 13.499 24.2018 13.6321 24.8583 13.5595C24.8457 13.6748 24.8393 13.7908 24.8391 13.9069C24.8379 14.4324 24.9673 14.95 25.2156 15.4131V15.9663C25.2197 17.4508 24.9292 18.9214 24.3611 20.293C23.793 21.6645 22.9585 22.9097 21.906 23.9566L22.9003 24.9509C25.097 22.7665 26.4128 19.8499 26.5969 16.7574C27.0409 16.9808 27.5311 17.0967 28.0281 17.0959C28.1442 17.0958 28.2602 17.0893 28.3755 17.0767C28.323 17.5512 28.3778 18.0313 28.5359 18.4817C28.694 18.9321 28.9514 19.3411 29.2891 19.6785C29.6267 20.0159 30.0359 20.2731 30.4863 20.431C30.9368 20.5888 31.417 20.6433 31.8914 20.5905C31.803 21.3857 32.0174 22.185 32.4917 22.8293C32.966 23.4737 33.6656 23.9158 34.4512 24.0676L29.1431 29.3756ZM40.5388 17.98L36.32 22.1988C35.9857 22.5331 35.5322 22.7209 35.0594 22.7209C34.5866 22.7209 34.1331 22.5331 33.7987 22.1988C33.4644 21.8644 33.2766 21.411 33.2766 20.9381C33.2766 20.4653 33.4644 20.0118 33.7987 19.6775L38.0175 15.4587C38.3518 15.1244 38.8053 14.9366 39.2781 14.9366C39.751 14.9366 40.2044 15.1244 40.5388 15.4587C40.8731 15.7931 41.0609 16.2466 41.0609 16.7194C41.0609 17.1922 40.8731 17.6457 40.5388 17.98Z" fill="#404040"/>
<path d="M40.6844 34.2974C39.7523 34.2963 38.8587 33.9256 38.1996 33.2665C37.5405 32.6074 37.1698 31.7138 37.1688 30.7817C37.1688 30.5953 37.0947 30.4164 36.9628 30.2846C36.831 30.1527 36.6521 30.0786 36.4656 30.0786C36.2792 30.0786 36.1003 30.1527 35.9685 30.2846C35.8366 30.4164 35.7625 30.5953 35.7625 30.7817C35.7615 31.7138 35.3907 32.6074 34.7316 33.2665C34.0726 33.9256 33.179 34.2963 32.2469 34.2974C32.0604 34.2974 31.8816 34.3714 31.7497 34.5033C31.6178 34.6352 31.5438 34.814 31.5438 35.0005C31.5438 35.187 31.6178 35.3658 31.7497 35.4977C31.8816 35.6295 32.0604 35.7036 32.2469 35.7036C33.179 35.7047 34.0726 36.0754 34.7316 36.7345C35.3907 37.3936 35.7615 38.2872 35.7625 39.2192C35.7625 39.4057 35.8366 39.5846 35.9685 39.7164C36.1003 39.8483 36.2792 39.9224 36.4656 39.9224C36.6521 39.9224 36.831 39.8483 36.9628 39.7164C37.0947 39.5846 37.1688 39.4057 37.1688 39.2192C37.1698 38.2872 37.5405 37.3936 38.1996 36.7345C38.8587 36.0754 39.7523 35.7047 40.6844 35.7036C40.8709 35.7036 41.0497 35.6295 41.1816 35.4977C41.3134 35.3658 41.3875 35.187 41.3875 35.0005C41.3875 34.814 41.3134 34.6352 41.1816 34.5033C41.0497 34.3714 40.8709 34.2974 40.6844 34.2974ZM36.4656 36.6862C36.0491 35.9957 35.4705 35.417 34.7799 35.0005C35.4705 34.5839 36.0491 34.0053 36.4656 33.3147C36.8822 34.0053 37.4608 34.5839 38.1514 35.0005C37.4608 35.417 36.8822 35.9957 36.4656 36.6862Z" fill="#404040"/>
<path d="M42.0906 4.06299C41.345 4.06215 40.6301 3.76557 40.1028 3.2383C39.5756 2.71104 39.279 1.99615 39.2781 1.25049C39.2781 1.06401 39.2041 0.885165 39.0722 0.753304C38.9403 0.621442 38.7615 0.547363 38.575 0.547363C38.3885 0.547363 38.2097 0.621442 38.0778 0.753304C37.946 0.885165 37.8719 1.06401 37.8719 1.25049C37.871 1.99615 37.5745 2.71104 37.0472 3.2383C36.5199 3.76557 35.8051 4.06215 35.0594 4.06299C34.8729 4.06299 34.6941 4.13707 34.5622 4.26893C34.4303 4.40079 34.3563 4.57963 34.3563 4.76611C34.3563 4.95259 34.4303 5.13144 34.5622 5.2633C34.6941 5.39516 34.8729 5.46924 35.0594 5.46924C35.8051 5.47008 36.5199 5.76666 37.0472 6.29393C37.5745 6.82119 37.871 7.53607 37.8719 8.28174C37.8719 8.46822 37.946 8.64706 38.0778 8.77892C38.2097 8.91078 38.3885 8.98486 38.575 8.98486C38.7615 8.98486 38.9403 8.91078 39.0722 8.77892C39.2041 8.64706 39.2781 8.46822 39.2781 8.28174C39.279 7.53607 39.5756 6.82119 40.1028 6.29393C40.6301 5.76666 41.345 5.47008 42.0906 5.46924C42.2771 5.46924 42.456 5.39516 42.5878 5.2633C42.7197 5.13144 42.7938 4.95259 42.7938 4.76611C42.7938 4.57963 42.7197 4.40079 42.5878 4.26893C42.456 4.13707 42.2771 4.06299 42.0906 4.06299ZM38.575 5.95199C38.2623 5.48191 37.8592 5.07878 37.3891 4.76611C37.8592 4.45344 38.2623 4.05032 38.575 3.58023C38.8877 4.05032 39.2908 4.45344 39.7609 4.76611C39.2908 5.07878 38.8877 5.48191 38.575 5.95199Z" fill="#404040"/>
<path d="M4.82501 18.1255C4.82501 18.312 4.89909 18.4908 5.03095 18.6227C5.16281 18.7545 5.34166 18.8286 5.52814 18.8286C5.71462 18.8286 5.89346 18.7545 6.02532 18.6227C6.15718 18.4908 6.23126 18.312 6.23126 18.1255C6.23231 17.1934 6.60305 16.2998 7.26213 15.6407C7.92121 14.9816 8.81481 14.6109 9.74689 14.6099C9.93337 14.6099 10.1122 14.5358 10.2441 14.4039C10.3759 14.2721 10.45 14.0932 10.45 13.9067C10.45 13.7203 10.3759 13.5414 10.2441 13.4096C10.1122 13.2777 9.93337 13.2036 9.74689 13.2036C8.81481 13.2026 7.92121 12.8318 7.26213 12.1727C6.60305 11.5137 6.23231 10.6201 6.23126 9.68799C6.23126 9.50151 6.15718 9.32267 6.02532 9.1908C5.89346 9.05894 5.71462 8.98486 5.52814 8.98486C5.34166 8.98486 5.16281 9.05894 5.03095 9.1908C4.89909 9.32267 4.82501 9.50151 4.82501 9.68799C4.82396 10.6201 4.45323 11.5137 3.79415 12.1727C3.13507 12.8318 2.24147 13.2026 1.30939 13.2036C1.12291 13.2036 0.944064 13.2777 0.812203 13.4096C0.680341 13.5414 0.606262 13.7203 0.606262 13.9067C0.606262 14.0932 0.680341 14.2721 0.812203 14.4039C0.944064 14.5358 1.12291 14.6099 1.30939 14.6099C2.24147 14.6109 3.13507 14.9816 3.79415 15.6407C4.45323 16.2998 4.82396 17.1934 4.82501 18.1255ZM5.52814 12.221C5.9447 12.9116 6.52332 13.4902 7.2139 13.9067C6.52332 14.3233 5.9447 14.9019 5.52814 15.5925C5.11158 14.9019 4.53295 14.3233 3.84238 13.9067C4.53295 13.4902 5.11158 12.9116 5.52814 12.221Z" fill="#404040"/>
</svg>
