<svg width="21" height="21" viewBox="0 0 21 21" fill="none" xmlns="http://www.w3.org/2000/svg">
<g clip-path="url(#clip0_34_250)">
<path d="M20.4117 4.05184L17.6844 1.32229C16.9973 0.634548 15.8019 0.633227 15.1121 1.32361L2.89447 13.6618C2.84031 13.7164 2.80123 13.7835 2.77993 13.8572L0.961782 20.2263C0.916484 20.3849 0.960887 20.5559 1.07765 20.6728C1.1642 20.7594 1.28006 20.8061 1.39904 20.8061C1.44076 20.8061 1.48294 20.8003 1.52377 20.7887L7.88735 18.969C7.96103 18.9477 8.02806 18.9086 8.08265 18.8544L20.4117 6.62505C20.7553 6.28121 20.9444 5.82448 20.9444 5.33847C20.9444 4.85247 20.7553 4.39569 20.4117 4.05184ZM13.1313 4.63007L14.8045 6.30324L6.06891 15.0389L5.44198 13.7846C5.36473 13.6305 5.20761 13.5333 5.03537 13.5333H4.30744L13.1313 4.63007ZM2.06087 19.6896L2.65294 17.6171L4.13341 19.0975L2.06087 19.6896ZM7.30807 18.1906L5.13329 18.8119L2.93857 16.6172L3.55984 14.4424H4.75433L5.53778 16.0093C5.58171 16.0972 5.65318 16.1687 5.74109 16.2126L7.30802 16.9961V18.1906H7.30807ZM8.21718 17.4431V16.7151C8.21718 16.5429 8.11998 16.3858 7.96593 16.3085L6.71165 15.6816L15.4472 6.94602L17.1204 8.61919L8.21718 17.4431ZM19.7703 5.99297L17.766 7.97931L13.7712 3.98443L15.7562 1.98156C16.0998 1.63797 16.6981 1.63797 17.0417 1.98156L19.7689 4.70882C19.9407 4.88059 20.0353 5.10874 20.0353 5.35155C20.0353 5.59436 19.9407 5.82252 19.7703 5.99297Z" fill="#437FC8"/>
</g>
<defs>
<clipPath id="clip0_34_250">
<rect width="20" height="20" fill="white" transform="translate(0.944336 0.805176)"/>
</clipPath>
</defs>
</svg>
