<svg width="42" height="42" viewBox="0 0 42 42" fill="none" xmlns="http://www.w3.org/2000/svg">
<g clip-path="url(#clip0_29_0)">
<path d="M31.2929 19.0442L30.2197 13.4452C30.1906 13.2936 30.0931 13.1639 29.9555 13.0938L28.6193 12.4123L29.6416 10.4079C30.0807 9.54698 29.7388 8.49303 28.8778 8.05388C28.0168 7.61473 26.9629 7.95668 26.5237 8.81766L25.5014 10.822L21.9382 9.00451C21.8007 8.93426 21.6384 8.93147 21.4986 8.99696L16.3361 11.4153C16.2355 11.4626 16.1535 11.542 16.1031 11.6411L6.7885 29.9028C6.66303 30.1488 6.76074 30.4499 7.00672 30.5754L21.2597 37.8453C21.5057 37.9707 21.8069 37.873 21.9323 37.6271L31.2469 19.3654C31.2975 19.2664 31.3136 19.1534 31.2929 19.0442ZM27.4146 9.27202C27.6028 8.90306 28.0545 8.7565 28.4234 8.94469C28.7924 9.13289 28.939 9.58461 28.7508 9.95358L27.7285 11.9579L26.3922 11.2764L27.4146 9.27202ZM24.3476 15.285L24.739 14.5176C24.7871 14.5894 24.8255 14.6673 24.8532 14.7493C25.0235 15.2745 24.7359 15.8384 24.2107 16.0089C23.6866 16.1658 23.1318 15.8828 22.9511 15.3664C22.7808 14.8412 23.0684 14.2773 23.5936 14.1068C23.6762 14.0811 23.7618 14.0664 23.8482 14.0632L23.4568 14.8306L24.3476 15.285ZM21.2687 36.7273L7.9065 29.9117L16.916 12.2482L21.7016 10.0064L25.047 11.7128L24.326 13.1265C23.9827 13.0406 23.6223 13.051 23.2846 13.1566C22.2339 13.4974 21.6583 14.6253 21.999 15.676C22.3398 16.7268 23.4677 17.3023 24.5184 16.9616C25.5692 16.6209 26.1447 15.4929 25.804 14.4422C25.8039 14.442 25.8039 14.4418 25.8038 14.4416C25.691 14.1062 25.4879 13.8084 25.2168 13.5809L25.9379 12.1672L29.2833 13.8736L30.2782 19.0638L21.2687 36.7273Z" fill="#437FC8"/>
<path d="M22.73 21.7568L22.9004 21.4228C23.2828 20.6675 23.02 19.7451 22.2969 19.3048L22.7569 18.4028L21.8661 17.9485L21.4061 18.8504C20.5813 18.5037 19.6316 18.8914 19.2849 19.7161C19.0477 20.2805 19.1489 20.9303 19.5464 21.3959L20.6784 22.731C20.8998 22.9958 20.8647 23.39 20.5999 23.6114C20.4091 23.771 20.1418 23.8022 19.9194 23.6909L19.2512 23.3501C18.9442 23.1929 18.8222 22.8169 18.9785 22.5094L19.1489 22.1753L18.258 21.721L18.0877 22.055C17.7053 22.8103 17.9681 23.7327 18.6912 24.173L18.2312 25.075L19.122 25.5293L19.582 24.6274C20.363 24.9542 21.264 24.6255 21.6509 23.8725C21.9502 23.2883 21.8676 22.5813 21.4417 22.0819L20.3097 20.7468C20.0883 20.482 20.1234 20.0878 20.3882 19.8664C20.579 19.7068 20.8463 19.6756 21.0687 19.7869L21.7368 20.1277C22.0439 20.2849 22.1658 20.6609 22.0096 20.9684L21.8392 21.3025L22.73 21.7568Z" fill="#437FC8"/>
<path d="M24.7307 23.3382L23.8398 22.8838L23.3855 23.7746L24.2763 24.229L24.7307 23.3382Z" fill="#437FC8"/>
<path d="M17.6037 19.7034L16.7129 19.249L16.2585 20.1398L17.1493 20.5942L17.6037 19.7034Z" fill="#437FC8"/>
<path d="M13.0959 24.1394L12.2051 23.6851L11.7507 24.5759L12.6415 25.0302L13.0959 24.1394Z" fill="#437FC8"/>
<path d="M14.8781 25.0481L13.9873 24.5938L13.5329 25.4846L14.4237 25.9389L14.8781 25.0481Z" fill="#437FC8"/>
<path d="M22.6504 31.819L18.1963 29.5471L17.7419 30.4379L22.196 32.7098L22.6504 31.819Z" fill="#437FC8"/>
<path d="M16.6594 25.9568L15.7686 25.5024L15.3142 26.3933L16.205 26.8476L16.6594 25.9568Z" fill="#437FC8"/>
<path d="M18.4406 26.8657L17.5498 26.4114L17.0954 27.3022L17.9862 27.7566L18.4406 26.8657Z" fill="#437FC8"/>
<path d="M20.2228 27.7742L19.332 27.3198L18.8777 28.2106L19.7685 28.665L20.2228 27.7742Z" fill="#437FC8"/>
<path d="M22.0041 28.6831L21.1133 28.2288L20.6589 29.1196L21.5497 29.5739L22.0041 28.6831Z" fill="#437FC8"/>
<path d="M23.7853 29.5918L22.8945 29.1375L22.4402 30.0283L23.331 30.4826L23.7853 29.5918Z" fill="#437FC8"/>
<path d="M17.3049 29.0926L16.4141 28.6382L15.9597 29.529L16.8505 29.9834L17.3049 29.0926Z" fill="#437FC8"/>
<path d="M21.5146 34.046L17.0605 31.7742L16.6062 32.665L21.0602 34.9368L21.5146 34.046Z" fill="#437FC8"/>
<path d="M16.1691 31.3196L15.2783 30.8652L14.824 31.756L15.7148 32.2104L16.1691 31.3196Z" fill="#437FC8"/>
<path d="M15.078 27.9568L11.5147 26.1393C11.2688 26.0138 10.9676 26.1115 10.8422 26.3575L9.70623 28.5846C9.58077 28.8305 9.67848 29.1317 9.92445 29.2571L13.4877 31.0746C13.7337 31.2001 14.0348 31.1024 14.1603 30.8564L15.2962 28.6294C15.4217 28.3834 15.324 28.0822 15.078 27.9568ZM13.4967 29.9566L10.8242 28.5935L11.5058 27.2573L14.1782 28.6204L13.4967 29.9566Z" fill="#437FC8"/>
</g>
<defs>
<clipPath id="clip0_29_0">
<rect width="30" height="30" fill="white" transform="translate(14.4023 0.67041) rotate(27.0243)"/>
</clipPath>
</defs>
</svg>
