<svg width="31" height="31" viewBox="0 0 31 31" fill="none" xmlns="http://www.w3.org/2000/svg">
<g clip-path="url(#clip0_29_248)">
<path d="M19.37 12.2777L14.8625 16.5352L12.6992 14.3096C12.4594 14.0627 12.0645 14.0571 11.8178 14.2969C11.5709 14.537 11.5653 14.9316 11.8051 15.1785L14.3997 17.842C14.6407 18.0845 15.0303 18.0928 15.2813 17.8605L20.2392 13.1843C20.3596 13.0707 20.4299 12.9139 20.4345 12.7486C20.4392 12.5833 20.3779 12.4228 20.2641 12.3026C20.0228 12.0518 19.625 12.0408 19.37 12.2777Z" fill="#437FC8"/>
<path d="M16.0249 5.72571C10.8734 5.72571 6.68457 9.91452 6.68457 15.066C6.68457 20.2178 10.8734 24.4066 16.0249 24.4066C21.1766 24.4066 25.3655 20.2178 25.3655 15.066C25.3655 9.91452 21.1766 5.72571 16.0249 5.72571ZM16.0249 23.1562C11.5611 23.1562 7.93496 19.5237 7.93496 15.066C7.93496 10.6083 11.5611 6.9761 16.0249 6.9761C20.4931 6.9761 24.1151 10.5981 24.1151 15.066C24.1151 19.534 20.4931 23.1562 16.0249 23.1562Z" fill="#437FC8"/>
<path d="M28.8786 11.6275L29.085 7.92C29.0994 7.67114 28.9641 7.43742 28.7411 7.32606L25.4401 5.65684L23.7708 2.35576C23.6573 2.13474 23.425 2.00018 23.1769 2.0119L19.4631 2.21216L16.3684 0.167574C16.1598 0.0300796 15.8895 0.0300796 15.6807 0.167574L12.5859 2.21216L8.87874 2.00579C8.62963 1.99114 8.39616 2.12644 8.2848 2.34965L6.61533 5.65073L3.3145 7.31996C3.09324 7.43327 2.95892 7.66552 2.97064 7.91389L3.17676 11.6213L1.13242 14.7161C0.994923 14.9246 0.994923 15.195 1.13242 15.4038L3.17065 18.5046L2.96429 22.2121C2.94988 22.4609 3.08493 22.6946 3.30815 22.806L6.60923 24.4752L8.27845 27.7763C8.39177 27.9976 8.62402 28.1319 8.87239 28.1202L12.5798 27.9138L15.6746 29.9581C15.8819 30.1 16.1549 30.1 16.3623 29.9581L19.457 27.9138L23.1645 28.1202C23.4133 28.1346 23.6468 27.9993 23.7584 27.7763L25.4276 24.4752L28.7287 22.806C28.9497 22.6924 29.0843 22.4604 29.0725 22.2121L28.8662 18.5046L30.9105 15.4099C31.048 15.2013 31.048 14.9307 30.9105 14.7222L28.8786 11.6275ZM27.7157 17.992C27.6395 18.1038 27.6041 18.2384 27.6158 18.3735L27.8095 21.8807L24.6898 23.4561C24.5709 23.5157 24.4744 23.6124 24.4148 23.7313L22.8392 26.851L19.332 26.6573C19.1976 26.6524 19.065 26.6871 18.9505 26.7572L16.0245 28.6892L13.0988 26.7572C12.9972 26.6886 12.8775 26.6514 12.7549 26.6509H12.7237L9.21624 26.8449L7.6408 23.725C7.58121 23.6061 7.48475 23.5096 7.36557 23.45L4.23959 21.8807L4.4335 18.3735C4.43838 18.2391 4.40346 18.1065 4.33337 17.992L2.40161 15.066L4.33337 12.1401C4.40981 12.0285 4.44522 11.8937 4.4335 11.7588L4.23959 8.2514L7.35946 6.67596C7.4784 6.61637 7.57486 6.5199 7.63445 6.40097L9.20989 3.2811L12.7173 3.475C12.8514 3.47964 12.984 3.44497 13.0988 3.37488L16.0245 1.44312L18.9505 3.37488C19.0623 3.45131 19.1971 3.48673 19.332 3.475L22.8392 3.2811L24.4148 6.40097C24.4744 6.5199 24.5709 6.61637 24.6898 6.67596L27.8095 8.2514L27.6158 11.7588C27.6109 11.8929 27.6458 12.0255 27.7157 12.1401L29.6477 15.066L27.7157 17.992Z" fill="#437FC8"/>
</g>
<defs>
<clipPath id="clip0_29_248">
<rect width="30" height="30" fill="white" transform="translate(0.976562 0.0644531)"/>
</clipPath>
</defs>
</svg>
