<svg width="30" height="31" viewBox="0 0 30 31" fill="none" xmlns="http://www.w3.org/2000/svg">
<g clip-path="url(#clip0_29_291)">
<path d="M22.0312 22.0381H22.9688C23.0931 22.0381 23.2123 22.0875 23.3002 22.1754C23.3881 22.2633 23.4375 22.3825 23.4375 22.5068C23.4375 22.6312 23.4869 22.7504 23.5748 22.8383C23.6627 22.9262 23.7819 22.9756 23.9062 22.9756C24.0306 22.9756 24.1498 22.9262 24.2377 22.8383C24.3256 22.7504 24.375 22.6312 24.375 22.5068C24.375 22.1339 24.2268 21.7762 23.9631 21.5125C23.6994 21.2487 23.3417 21.1006 22.9688 21.1006V20.6318C22.9688 20.5075 22.9194 20.3883 22.8315 20.3004C22.7435 20.2125 22.6243 20.1631 22.5 20.1631C22.3757 20.1631 22.2565 20.2125 22.1685 20.3004C22.0806 20.3883 22.0312 20.5075 22.0312 20.6318V21.1006C21.6583 21.1006 21.3006 21.2487 21.0369 21.5125C20.7732 21.7762 20.625 22.1339 20.625 22.5068C20.625 22.8798 20.7732 23.2375 21.0369 23.5012C21.3006 23.7649 21.6583 23.9131 22.0312 23.9131H22.9688C23.0931 23.9131 23.2123 23.9625 23.3002 24.0504C23.3881 24.1383 23.4375 24.2575 23.4375 24.3818C23.4375 24.5062 23.3881 24.6254 23.3002 24.7133C23.2123 24.8012 23.0931 24.8506 22.9688 24.8506H22.0312C21.9069 24.8506 21.7877 24.8012 21.6998 24.7133C21.6119 24.6254 21.5625 24.5062 21.5625 24.3818C21.5625 24.2575 21.5131 24.1383 21.4252 24.0504C21.3373 23.9625 21.2181 23.9131 21.0938 23.9131C20.9694 23.9131 20.8502 23.9625 20.7623 24.0504C20.6744 24.1383 20.625 24.2575 20.625 24.3818C20.625 24.7548 20.7732 25.1125 21.0369 25.3762C21.3006 25.6399 21.6583 25.7881 22.0312 25.7881V26.2568C22.0312 26.3812 22.0806 26.5004 22.1685 26.5883C22.2565 26.6762 22.3757 26.7256 22.5 26.7256C22.6243 26.7256 22.7435 26.6762 22.8315 26.5883C22.9194 26.5004 22.9688 26.3812 22.9688 26.2568V25.7881C23.3417 25.7881 23.6994 25.6399 23.9631 25.3762C24.2268 25.1125 24.375 24.7548 24.375 24.3818C24.375 24.0089 24.2268 23.6512 23.9631 23.3875C23.6994 23.1237 23.3417 22.9756 22.9688 22.9756H22.0312C21.9069 22.9756 21.7877 22.9262 21.6998 22.8383C21.6119 22.7504 21.5625 22.6312 21.5625 22.5068C21.5625 22.3825 21.6119 22.2633 21.6998 22.1754C21.7877 22.0875 21.9069 22.0381 22.0312 22.0381Z" fill="#437FC8"/>
<path d="M22.5 18.7568C21.5729 18.7568 20.6666 19.0318 19.8958 19.5468C19.1249 20.0619 18.5241 20.794 18.1693 21.6505C17.8145 22.507 17.7217 23.4495 17.9026 24.3588C18.0834 25.2681 18.5299 26.1033 19.1854 26.7589C19.841 27.4144 20.6762 27.8609 21.5855 28.0418C22.4948 28.2226 23.4373 28.1298 24.2938 27.775C25.1504 27.4202 25.8824 26.8194 26.3975 26.0486C26.9126 25.2777 27.1875 24.3714 27.1875 23.4443C27.1861 22.2015 26.6918 21.0101 25.8131 20.1313C24.9343 19.2525 23.7428 18.7582 22.5 18.7568ZM22.5 27.1943C21.7583 27.1943 21.0333 26.9744 20.4166 26.5623C19.7999 26.1503 19.3193 25.5646 19.0355 24.8794C18.7516 24.1942 18.6774 23.4402 18.8221 22.7127C18.9668 21.9853 19.3239 21.3171 19.8484 20.7927C20.3728 20.2682 21.041 19.9111 21.7684 19.7664C22.4958 19.6217 23.2498 19.696 23.9351 19.9798C24.6203 20.2636 25.206 20.7443 25.618 21.3609C26.0301 21.9776 26.25 22.7027 26.25 23.4443C26.2489 24.4385 25.8534 25.3917 25.1504 26.0947C24.4474 26.7978 23.4942 27.1932 22.5 27.1943Z" fill="#437FC8"/>
<path d="M26.1212 17.9764C26.5151 16.5111 26.716 15.0007 26.7189 13.4834V6.10058C26.7189 6.00216 26.6879 5.90623 26.6304 5.82638C26.5728 5.74654 26.4916 5.68683 26.3982 5.65573L15.1482 1.90573C15.0521 1.87371 14.9481 1.87371 14.852 1.90573L3.60198 5.65573C3.5086 5.68683 3.42739 5.74654 3.36984 5.82638C3.31229 5.90623 3.28133 6.00216 3.28136 6.10058V13.4834C3.26997 16.7071 4.16216 19.8695 5.85675 22.6119C7.55133 25.3543 9.98048 27.567 12.8687 28.999L14.7906 29.96C14.8556 29.9925 14.9274 30.0094 15.0001 30.0094C15.0728 30.0094 15.1446 29.9925 15.2096 29.96L17.1315 28.9995C17.4878 28.8232 17.8464 28.6217 18.2129 28.4028C18.891 28.9886 19.682 29.4292 20.537 29.6974C21.3921 29.9656 22.293 30.0556 23.1842 29.962C24.0754 29.8683 24.938 29.593 25.7186 29.153C26.4993 28.713 27.1814 28.1176 27.7229 27.4036C28.2645 26.6897 28.6539 25.8722 28.8672 25.0019C29.0805 24.1315 29.113 23.2267 28.9629 22.3432C28.8128 21.4598 28.4832 20.6165 27.9945 19.8654C27.5057 19.1143 26.8682 18.4714 26.1212 17.9764ZM16.7125 28.1581L15.0001 29.014L13.2878 28.1581C10.5561 26.8036 8.25854 24.7108 6.65563 22.1171C5.05272 19.5234 4.20856 16.5324 4.21886 13.4834V6.43855L15.0001 2.84464L25.7814 6.43855V13.4834C25.7782 14.8398 25.6075 16.1907 25.2732 17.5053C24.7048 17.2389 24.1007 17.0564 23.4798 16.9634C23.7602 15.8245 23.9034 14.6562 23.9064 13.4834V8.12558C23.9064 8.02716 23.8754 7.93123 23.8179 7.85138C23.7603 7.77154 23.6791 7.71183 23.5857 7.68073L15.1482 4.86823C15.0521 4.83621 14.9481 4.83621 14.852 4.86823L6.41448 7.68073C6.32111 7.71183 6.23989 7.77154 6.18234 7.85138C6.12479 7.93123 6.09383 8.02716 6.09386 8.12558V13.4834C6.08399 16.1838 6.83123 18.8328 8.25079 21.13C9.67034 23.4272 11.7054 25.2804 14.125 26.4795L14.7906 26.8123C14.8556 26.8448 14.9274 26.8617 15.0001 26.8617C15.0728 26.8617 15.1446 26.8448 15.2096 26.8123L15.8776 26.4781C16.1087 26.3609 16.3201 26.247 16.5207 26.134C16.7791 26.7068 17.1185 27.2395 17.5285 27.7156C17.2539 27.8745 16.9825 28.0245 16.7125 28.1581ZM15.9376 23.4443C15.939 24.0516 16.025 24.6557 16.1931 25.2392C15.9681 25.37 15.7318 25.5012 15.4562 25.6409L15.0001 25.8687L14.544 25.6409C12.2806 24.5192 10.3768 22.7856 9.04891 20.6366C7.72098 18.4877 7.02202 16.0095 7.03136 13.4834V8.46355L15.0001 5.80714L22.9689 8.46355V13.4834C22.9662 14.6299 22.8202 15.7715 22.5343 16.8818C22.5231 16.8818 22.5118 16.8818 22.5001 16.8818C20.7602 16.8837 19.0921 17.5757 17.8618 18.806C16.6315 20.0363 15.9395 21.7044 15.9376 23.4443ZM22.5001 29.0693C21.3876 29.0693 20.3001 28.7394 19.375 28.1213C18.45 27.5033 17.729 26.6248 17.3033 25.5969C16.8775 24.5691 16.7661 23.4381 16.9832 22.3469C17.2002 21.2558 17.736 20.2535 18.5226 19.4669C19.3093 18.6802 20.3116 18.1445 21.4027 17.9274C22.4939 17.7104 23.6249 17.8218 24.6527 18.2475C25.6805 18.6733 26.559 19.3942 27.1771 20.3192C27.7952 21.2443 28.1251 22.3318 28.1251 23.4443C28.1235 24.9357 27.5303 26.3655 26.4758 27.42C25.4213 28.4746 23.9915 29.0677 22.5001 29.0693Z" fill="#437FC8"/>
<path d="M14.0632 19.2256C13.9389 19.2256 13.8197 19.1762 13.7318 19.0883L9.75443 15.1109C9.66655 15.023 9.61719 14.9038 9.61719 14.7795C9.61719 14.6552 9.66655 14.536 9.75443 14.4481L11.0801 13.122C11.168 13.0341 11.2872 12.9848 11.4115 12.9848C11.5358 12.9848 11.655 13.0341 11.7429 13.122L14.0632 15.4423L19.3094 10.1961C19.3973 10.1082 19.5165 10.0588 19.6408 10.0588C19.7651 10.0588 19.8843 10.1082 19.9722 10.1961L21.2983 11.5217C21.3862 11.6096 21.4356 11.7288 21.4356 11.8531C21.4356 11.9774 21.3862 12.0966 21.2983 12.1845L14.3946 19.0883C14.3067 19.1762 14.1875 19.2256 14.0632 19.2256ZM10.7487 14.7795L14.0632 18.0941L20.3041 11.8531L19.6413 11.1903L14.3946 16.4366C14.3067 16.5244 14.1875 16.5738 14.0632 16.5738C13.9389 16.5738 13.8197 16.5244 13.7318 16.4366L11.4115 14.1162L10.7487 14.7795Z" fill="#437FC8"/>
</g>
<defs>
<clipPath id="clip0_29_291">
<rect width="30" height="30" fill="white" transform="translate(0 0.944336)"/>
</clipPath>
</defs>
</svg>
