<svg width="25" height="26" viewBox="0 0 25 26" fill="none" xmlns="http://www.w3.org/2000/svg">
<g clip-path="url(#clip0_34_0)">
<path d="M23.288 6.94113L23.2695 6.90914C23.2438 6.85597 23.2143 6.80504 23.1812 6.75665L19.7033 0.743654C19.4527 0.310547 18.9863 0.0415039 18.486 0.0415039H6.51637C6.01524 0.0415039 5.54845 0.311182 5.29801 0.74546L1.76333 6.8776C1.73149 6.93287 1.70855 6.99069 1.69233 7.04943C1.64258 7.18375 1.61523 7.32892 1.61523 7.48039V23.3186C1.61523 24.2686 2.38814 25.0415 3.33814 25.0415H21.6636C22.6136 25.0415 23.3865 24.2686 23.3865 23.3186V7.42233C23.3865 7.40109 23.3858 7.37999 23.3847 7.359C23.3947 7.21803 23.3641 7.07267 23.288 6.94113ZM13.2586 1.50689H18.4519L21.1878 6.23702H13.2586V1.50689ZM6.5505 1.50689H11.7932V6.23702H3.82393L6.5505 1.50689ZM21.9211 23.3186C21.9211 23.4606 21.8056 23.5761 21.6636 23.5761H3.33814C3.19615 23.5761 3.08062 23.4606 3.08062 23.3186V7.70241H21.9211V23.3186Z" fill="#FC443B"/>
<path d="M15.8263 13.2263C15.5402 12.9402 15.0763 12.9402 14.7901 13.2263L11.5186 16.4979L10.2605 15.2399C9.97447 14.9538 9.5105 14.9538 9.22437 15.2399C8.93823 15.5259 8.93823 15.9899 9.22437 16.276L11.0005 18.0521C11.1436 18.1952 11.3312 18.2668 11.5186 18.2668C11.7061 18.2668 11.8937 18.1952 12.0367 18.0521L15.8263 14.2625C16.1125 13.9763 16.1125 13.5124 15.8263 13.2263Z" fill="#FC443B"/>
</g>
<defs>
<clipPath id="clip0_34_0">
<rect width="25" height="25" fill="white" transform="translate(0 0.0415039)"/>
</clipPath>
</defs>
</svg>
