<svg width="46" height="46" viewBox="0 0 46 46" fill="none" xmlns="http://www.w3.org/2000/svg">
<g clip-path="url(#clip0_88_575)">
<path d="M39.2497 36.3271C37.9666 36.3271 36.9228 37.3709 36.9228 38.6541C36.9228 39.9371 37.9666 40.9809 39.2497 40.9809C40.5327 40.9809 41.5765 39.9371 41.5765 38.6541C41.5765 37.371 40.5327 36.3271 39.2497 36.3271ZM39.2496 39.6019C38.727 39.6019 38.3018 39.1767 38.3018 38.6541C38.3018 38.1315 38.727 37.7062 39.2496 37.7062C39.7722 37.7062 40.1974 38.1315 40.1974 38.6541C40.1974 39.1767 39.7722 39.6019 39.2496 39.6019Z" fill="#404040"/>
<path d="M45.5189 38.5335C45.475 36.8299 44.7539 35.263 43.4885 34.1215L29.606 21.6002L41.8806 9.32558C41.9613 9.3015 42.041 9.27153 42.1179 9.23093L44.776 7.82802C45.1432 7.63413 45.3895 7.28731 45.4514 6.87678C45.5135 6.46615 45.3807 6.06221 45.087 5.7683L42.0942 2.77554C41.8004 2.48189 41.3968 2.34909 40.9858 2.41114C40.5753 2.47311 40.2285 2.71938 40.0345 3.08667L38.6315 5.74457C38.5906 5.82218 38.5591 5.90242 38.535 5.9839L32.7412 11.7776C32.4719 12.047 32.4719 12.4835 32.7412 12.7529C33.0106 13.022 33.4471 13.022 33.7164 12.7529L39.0331 7.43611L40.4265 8.82944L26.8298 22.4261L25.4364 21.0328L31.3713 15.0981C31.6406 14.8287 31.6406 14.3922 31.3713 14.1228C31.1019 13.8537 30.6654 13.8537 30.396 14.1228L26.0899 18.4289L21.4034 14.2019C22.7321 10.3773 21.7699 6.12206 18.8875 3.23978C15.9352 0.287442 11.5062 -0.653427 7.60405 0.843086C7.38599 0.926758 7.22506 1.11502 7.17655 1.34345C7.12803 1.57188 7.19826 1.80936 7.3634 1.9745L12.7768 7.38795C12.9369 7.54809 13.0252 7.76104 13.0252 7.98754C13.0252 8.21403 12.937 8.42699 12.7768 8.58722L9.26123 12.1028C9.10109 12.263 8.88813 12.3512 8.66164 12.3512C8.43514 12.3512 8.22218 12.2631 8.06196 12.1028L2.64851 6.68931C2.48328 6.52416 2.24597 6.45393 2.01746 6.50245C1.78903 6.55105 1.60077 6.71189 1.5171 6.92995C0.0205814 10.8319 0.961451 15.2609 3.91387 18.2134C6.72558 21.0251 10.8984 22.015 14.6628 20.7986L18.2863 24.761C18.1122 25.1012 17.8858 25.4185 17.6065 25.6978C16.562 26.7423 14.9966 27.0713 13.6181 26.5362C13.3633 26.4371 13.0742 26.4981 12.8808 26.6914L4.43814 35.134C2.15263 37.4196 2.15263 41.1385 4.43814 43.4239C5.54547 44.5314 7.01755 45.1411 8.58333 45.1411C10.149 45.1411 11.6212 44.5314 12.7283 43.4242L21.171 34.9816C21.3642 34.7884 21.4251 34.4992 21.3261 34.2444C20.791 32.8659 21.12 31.3003 22.1644 30.2559C23.2091 29.2114 24.7746 28.8823 26.1531 29.4174C26.4081 29.5165 26.697 29.4553 26.8903 29.2623L28.4829 27.6697C28.9624 27.1901 29.2265 26.5525 29.2265 25.8744C29.2265 25.1963 28.9624 24.5587 28.4829 24.0792L27.805 23.4013L28.6297 22.5766L42.5649 35.1456C43.5468 36.0312 44.1064 37.2471 44.1404 38.569C44.1745 39.8909 43.6782 41.1339 42.7432 42.0689C41.8126 42.9996 40.5727 43.495 39.2595 43.4666C37.9437 43.4372 36.7299 42.8862 35.8418 41.9149L25.4805 30.5845C25.2232 30.3033 24.7873 30.284 24.5063 30.541C24.2253 30.7981 24.2058 31.2342 24.4628 31.5152L34.824 42.8456C35.9687 44.0972 37.533 44.8074 39.2287 44.8453C39.2761 44.8463 39.3235 44.8468 39.3709 44.8468C41.0134 44.8468 42.5524 44.2097 43.7183 43.044C44.9233 41.839 45.5627 40.2371 45.5189 38.5335ZM39.8804 6.333L41.2004 3.83216L44.0304 6.66215L41.5296 7.98218L39.8804 6.333ZM15.3743 19.5332C15.1844 19.3258 14.8879 19.2542 14.6244 19.3525C11.2527 20.6102 7.43099 19.7803 4.88893 17.2386C2.58075 14.9303 1.68637 11.5839 2.47449 8.46575L7.08672 13.078C7.50746 13.4986 8.0667 13.7302 8.66155 13.7302C9.25639 13.7302 9.81564 13.4986 10.2363 13.078L13.7518 9.56245C14.1725 9.14172 14.4041 8.58247 14.4041 7.98763C14.4041 7.39278 14.1725 6.83353 13.7518 6.41289L9.13967 1.80048C12.2576 1.01201 15.6043 1.90665 17.9124 4.21492C20.5191 6.82149 21.3202 10.7191 19.9534 14.1446C19.8464 14.4126 19.9176 14.7189 20.132 14.9122L25.1135 19.4053L24.4612 20.0576L23.7833 19.3797C23.3038 18.9002 22.6661 18.6362 21.9881 18.6362C21.31 18.6362 20.6723 18.9002 20.1928 19.3797L18.6002 20.9723C18.407 21.1656 18.3461 21.4548 18.4451 21.7095C18.6285 22.182 18.7081 22.6761 18.6944 23.164L15.3743 19.5332ZM27.5076 26.6945L26.2172 27.985C24.4425 27.4734 22.5114 27.9587 21.1894 29.2806H21.1893C19.8674 30.6026 19.382 32.5335 19.8938 34.3085L11.7532 42.4489C10.9065 43.2957 9.78075 43.762 8.58341 43.762C7.38608 43.762 6.2602 43.2957 5.41364 42.4489C3.66576 40.7011 3.66576 37.8572 5.41364 36.1093L13.5542 27.9688C15.329 28.4806 17.2599 27.995 18.5819 26.6731C19.9038 25.3511 20.3893 23.4202 19.8775 21.6453L21.168 20.3549C21.6201 19.9026 22.356 19.9026 22.8082 20.3549L23.9737 21.5204L26.3421 23.8888L27.5076 25.0543C27.9599 25.5066 27.9599 26.2424 27.5076 26.6945Z" fill="#404040"/>
<path d="M14.935 30.573C14.6656 30.3038 14.2292 30.3038 13.9598 30.573L7.42792 37.1049C7.15863 37.3742 7.15863 37.8107 7.42792 38.0801C7.56257 38.2147 7.73915 38.282 7.91554 38.282C8.09194 38.282 8.26851 38.2147 8.40316 38.0801L14.935 31.5482C15.2042 31.2789 15.2042 30.8423 14.935 30.573Z" fill="#404040"/>
<path d="M17.3484 32.9866C17.0791 32.7174 16.6426 32.7174 16.3732 32.9866L9.84132 39.5183C9.57202 39.7877 9.57202 40.2242 9.84132 40.4936C9.97596 40.6281 10.1524 40.6955 10.3289 40.6955C10.5053 40.6955 10.6819 40.6281 10.8165 40.4936L17.3484 33.9618C17.6177 33.6924 17.6177 33.256 17.3484 32.9866Z" fill="#404040"/>
</g>
<defs>
<clipPath id="clip0_88_575">
<rect width="45" height="45" fill="white" transform="translate(0.668091 0.141113)"/>
</clipPath>
</defs>
</svg>
