<svg width="42" height="42" viewBox="0 0 42 42" fill="none" xmlns="http://www.w3.org/2000/svg">
<g clip-path="url(#clip0_88_684)">
<path d="M12.6084 27.6538H35.7504C38.3745 27.6538 40.5152 25.5131 40.5152 22.889V13.1523C40.5152 13.1436 40.5152 13.1264 40.5152 13.1177C40.5152 13.0918 40.5152 13.0746 40.5152 13.0487C40.5152 13.0314 40.5152 13.0142 40.5066 12.9969C40.5066 12.9796 40.498 12.9537 40.498 12.9365C40.498 12.9192 40.4893 12.9019 40.4893 12.8847C40.4807 12.8674 40.4807 12.8502 40.4721 12.8243C40.4634 12.807 40.4634 12.7897 40.4548 12.7725C40.4462 12.7552 40.4462 12.7379 40.4375 12.7207C40.4289 12.7034 40.4203 12.6862 40.4117 12.6603C40.403 12.643 40.3944 12.6257 40.3858 12.6171C40.3771 12.5998 40.3685 12.5826 40.3599 12.5653C40.3512 12.548 40.3426 12.5394 40.334 12.5221C40.3253 12.5049 40.3081 12.4876 40.2994 12.4704C40.2908 12.4531 40.2822 12.4445 40.2649 12.4272C40.2563 12.4099 40.239 12.4013 40.2304 12.384C40.2218 12.3668 40.2045 12.3581 40.1959 12.3409C40.1872 12.3236 40.17 12.315 40.1613 12.3063C40.1441 12.2891 40.1354 12.2805 40.1182 12.2632C40.1009 12.2546 40.0923 12.2373 40.075 12.2287C40.0578 12.22 40.0405 12.2028 40.0232 12.1941C40.006 12.1855 39.9973 12.1769 39.9801 12.1682C39.9628 12.1596 39.9455 12.151 39.9283 12.1337C39.911 12.1251 39.8937 12.1164 39.8765 12.1078C39.8592 12.0992 39.8419 12.0906 39.8247 12.0819C39.8074 12.0733 39.7902 12.0647 39.7729 12.056C39.7556 12.0474 39.7384 12.0474 39.7211 12.0388C39.7038 12.0301 39.6779 12.0215 39.6607 12.0215C39.6434 12.0215 39.6262 12.0129 39.6175 12.0129C39.5916 12.0042 39.5744 12.0042 39.5485 12.0042C39.5398 12.0042 39.5312 11.9956 39.5139 11.9956L10.1828 7.94725V3.85575C10.1828 3.81259 10.1828 3.76943 10.1742 3.7349C10.1742 3.72627 10.1742 3.71764 10.1656 3.70037C10.1656 3.67448 10.157 3.64858 10.157 3.62269C10.1483 3.59679 10.1483 3.57953 10.1397 3.55363C10.1397 3.53637 10.1311 3.52774 10.1311 3.51047C10.1224 3.48458 10.1138 3.45868 10.1052 3.43279C10.1052 3.42415 10.0965 3.40689 10.0965 3.39826C10.0879 3.37236 10.0793 3.3551 10.062 3.3292C10.0534 3.32057 10.0534 3.30331 10.0447 3.29468C10.0361 3.27741 10.0275 3.26015 10.0102 3.24289C10.0016 3.22562 9.99295 3.21699 9.98431 3.19973C9.97568 3.18246 9.96705 3.17383 9.95842 3.15657C9.94979 3.1393 9.93252 3.12204 9.92389 3.10478C9.91526 3.09614 9.90663 3.08751 9.89799 3.07888C9.88073 3.06162 9.86347 3.04435 9.8462 3.02709C9.83757 3.01846 9.82894 3.00982 9.82031 3.00119C9.80304 2.98393 9.78578 2.96667 9.75988 2.9494C9.75125 2.94077 9.73399 2.93214 9.72536 2.92351C9.70809 2.90624 9.69083 2.89761 9.67357 2.88035C9.64767 2.86308 9.62177 2.84582 9.60451 2.83719C9.59588 2.82856 9.58725 2.82856 9.57862 2.81992C9.54409 2.80266 9.50093 2.7854 9.4664 2.76813L3.10471 0.0922531C2.50911 -0.158071 1.8272 0.118149 1.57687 0.713748C1.32655 1.30935 1.60277 1.99126 2.19837 2.24159L7.84361 4.62398V9.90669V10.744V17.1661V22.9063V30.1571C7.84361 32.574 9.6563 34.5766 11.9955 34.8787C11.5726 35.5865 11.3223 36.4152 11.3223 37.2956C11.3223 39.8938 13.4371 42 16.0266 42C18.6162 42 20.731 39.8852 20.731 37.2956C20.731 36.4324 20.4979 35.6124 20.0836 34.9218H30.5627C30.1484 35.621 29.9153 36.4324 29.9153 37.2956C29.9153 39.8938 32.0301 42 34.6197 42C37.2092 42 39.324 39.8852 39.324 37.2956C39.324 34.706 37.2092 32.5912 34.6197 32.5912H12.6084C11.2618 32.5912 10.1742 31.495 10.1742 30.1571V26.9978C10.882 27.4121 11.7193 27.6538 12.6084 27.6538ZM18.409 37.287C18.409 38.599 17.3387 39.6607 16.0353 39.6607C14.7318 39.6607 13.6615 38.5904 13.6615 37.287C13.6615 35.9836 14.7318 34.9132 16.0353 34.9132C17.3387 34.9132 18.409 35.9749 18.409 37.287ZM37.0021 37.287C37.0021 38.599 35.9317 39.6607 34.6283 39.6607C33.3249 39.6607 32.2545 38.5904 32.2545 37.287C32.2545 35.9836 33.3249 34.9132 34.6283 34.9132C35.9317 34.9132 37.0021 35.9749 37.0021 37.287ZM35.7504 25.3232H12.6084C11.2618 25.3232 10.1742 24.227 10.1742 22.889V17.1488V10.7267V10.2951L38.1846 14.1536V22.8804C38.1846 24.2356 37.0884 25.3232 35.7504 25.3232Z" fill="#595959"/>
</g>
<defs>
<clipPath id="clip0_88_684">
<rect width="42" height="42" fill="white"/>
</clipPath>
</defs>
</svg>
