<svg width="15" height="14" viewBox="0 0 15 14" fill="none" xmlns="http://www.w3.org/2000/svg">
<path d="M14.3934 5.08146C14.3012 4.79798 14.0498 4.59727 13.7535 4.57046L9.71212 4.20356L8.11494 0.464241C7.99701 0.189517 7.7287 0.012207 7.43005 0.012207C7.1314 0.012207 6.86298 0.189517 6.7458 0.464241L5.14862 4.20356L1.10659 4.57046C0.810295 4.59781 0.55939 4.79851 0.466676 5.08146C0.374496 5.36494 0.459627 5.67588 0.683721 5.87241L3.73869 8.55118L2.83793 12.5184C2.77203 12.8101 2.88525 13.1118 3.12729 13.2867C3.25739 13.3813 3.41024 13.4285 3.56362 13.4285C3.69543 13.4285 3.82734 13.3935 3.94516 13.323L7.43005 11.2392L10.9143 13.323C11.1699 13.4757 11.4913 13.4617 11.7328 13.2867C11.9748 13.1118 12.0881 12.8101 12.0222 12.5184L11.1214 8.55118L14.1764 5.87241C14.4004 5.67588 14.4856 5.36558 14.3934 5.08146Z" fill="#FFA800"/>
</svg>
