<svg width="15" height="15" viewBox="0 0 15 15" fill="none" xmlns="http://www.w3.org/2000/svg">
<g clip-path="url(#clip0_88_477)">
<path d="M14.185 5.56035C14.0249 5.38077 13.8063 5.26398 13.5681 5.23081V5.23032L9.84732 4.71634L8.37493 1.19808C8.15994 0.683104 7.56818 0.439927 7.05323 0.654922C6.80774 0.757425 6.61255 0.952588 6.51008 1.19808L5.03769 4.71634L1.31694 5.23032C0.762593 5.30748 0.375754 5.81947 0.452917 6.37381C0.486079 6.61204 0.602877 6.8307 0.782455 6.99071L3.58577 9.49053L3.00978 13.4132C2.94738 13.8116 3.13032 14.2084 3.47375 14.4197C3.81234 14.6362 4.24787 14.6281 4.57817 14.3992L7.44247 12.4513L10.3068 14.4011C10.769 14.7148 11.398 14.5945 11.7117 14.1323C11.8542 13.9222 11.9126 13.6663 11.8752 13.4152L11.2992 9.491L14.1026 6.99117C14.5204 6.61884 14.5573 5.97821 14.185 5.56035ZM10.4323 8.92604C10.3069 9.0381 10.2462 9.20566 10.2708 9.37203L10.8707 13.5717L7.72496 11.4329C7.55538 11.3176 7.33259 11.3176 7.163 11.4329L3.99871 13.5587L4.61417 9.37004C4.63807 9.20435 4.57743 9.03769 4.45267 8.92607L1.45287 6.22224L5.4566 5.66977C5.6319 5.6456 5.78134 5.53056 5.84956 5.3673L7.44845 1.57657C7.45027 1.5788 7.45161 1.58134 7.45246 1.58407L9.03486 5.36531C9.10308 5.52857 9.25255 5.64361 9.42782 5.66778L13.4366 6.24474L10.4323 8.92604Z" fill="#FFA800"/>
</g>
<defs>
<clipPath id="clip0_88_477">
<rect width="14" height="14" fill="white" transform="translate(0.442017 0.57666)"/>
</clipPath>
</defs>
</svg>
