<svg width="31" height="31" viewBox="0 0 31 31" fill="none" xmlns="http://www.w3.org/2000/svg">
<g clip-path="url(#clip0_29_252)">
<path d="M15.2774 15.3653C15.2023 15.3653 15.1284 15.3528 15.0571 15.3265L2.96222 10.9515C2.71141 10.8615 2.5459 10.6265 2.5459 10.3653C2.5459 10.104 2.71268 9.86904 2.96349 9.77904L11.239 6.79154C11.5674 6.67404 11.9354 6.83904 12.0563 7.16279C12.1773 7.48654 12.0079 7.84529 11.6782 7.96529L5.02599 10.3653L15.2774 14.074L25.5288 10.3653L18.8766 7.96404C18.5468 7.84529 18.3775 7.48529 18.4984 7.16154C18.6194 6.83779 18.9861 6.67279 19.3158 6.79029L27.5913 9.77779C27.8421 9.86904 28.0089 10.104 28.0089 10.3653C28.0089 10.6265 27.8434 10.8615 27.5925 10.9515L15.4976 15.3265C15.4263 15.3528 15.3525 15.3653 15.2774 15.3653Z" fill="#437FC8"/>
<path d="M15.2774 30.3652C15.2023 30.3652 15.1285 30.3527 15.0585 30.3265L8.29805 27.889C7.9683 27.7702 7.79897 27.4115 7.91992 27.0865C8.04087 26.7627 8.40754 26.5965 8.73728 26.7152L15.2774 29.074L21.8189 26.7152C22.1486 26.5952 22.514 26.7627 22.6362 27.0865C22.7572 27.4102 22.5879 27.769 22.2581 27.889L15.4977 30.3265C15.4264 30.3527 15.3526 30.3652 15.2774 30.3652Z" fill="#437FC8"/>
<path d="M3.18247 22.5652C2.83108 22.5652 2.5459 22.2852 2.5459 21.9402V10.3652C2.5459 10.0202 2.83108 9.74023 3.18247 9.74023C3.53386 9.74023 3.81905 10.0202 3.81905 10.3652V21.9402C3.81905 22.2852 3.53386 22.5652 3.18247 22.5652Z" fill="#437FC8"/>
<path d="M27.3729 22.5652C27.0215 22.5652 26.7363 22.2852 26.7363 21.9402V10.3652C26.7363 10.0202 27.0215 9.74023 27.3729 9.74023C27.7243 9.74023 28.0095 10.0202 28.0095 10.3652V21.9402C28.0095 22.2852 27.7243 22.5652 27.3729 22.5652Z" fill="#437FC8"/>
<path d="M15.2782 10.3652C14.9268 10.3652 14.6416 10.0852 14.6416 9.74024V4.74023C14.6416 4.39523 14.9268 4.11523 15.2782 4.11523C15.6296 4.11523 15.9147 4.39523 15.9147 4.74023V9.74024C15.9147 10.0852 15.6296 10.3652 15.2782 10.3652Z" fill="#437FC8"/>
<path d="M26.6594 27.1653C26.4964 27.1653 26.3335 27.104 26.2087 26.9828L23.1022 23.9328C22.8539 23.689 22.8539 23.2928 23.1022 23.049C23.3505 22.8053 23.7541 22.8053 24.0023 23.049L27.1088 26.099C27.3571 26.3428 27.3571 26.739 27.1088 26.9828C26.9853 27.104 26.8224 27.1653 26.6594 27.1653Z" fill="#437FC8"/>
<path d="M3.89568 27.1653C3.73272 27.1653 3.56976 27.104 3.44499 26.9828C3.19672 26.739 3.19672 26.3428 3.44499 26.099L6.55147 23.049C6.79973 22.8053 7.20332 22.8053 7.45158 23.049C7.69985 23.2928 7.69985 23.689 7.45158 23.9328L4.3451 26.9828C4.22161 27.104 4.05864 27.1653 3.89568 27.1653Z" fill="#437FC8"/>
<path d="M15.2782 30.3652C14.9268 30.3652 14.6416 30.0852 14.6416 29.7402V14.7402C14.6416 14.3952 14.9268 14.1152 15.2782 14.1152C15.6296 14.1152 15.9147 14.3952 15.9147 14.7402V29.7402C15.9147 30.0852 15.6296 30.3652 15.2782 30.3652Z" fill="#437FC8"/>
<path d="M15.2777 5.36523C13.8735 5.36523 12.7314 4.24398 12.7314 2.86523C12.7314 1.48648 13.8735 0.365234 15.2777 0.365234C16.682 0.365234 17.824 1.48648 17.824 2.86523C17.824 4.24398 16.682 5.36523 15.2777 5.36523ZM15.2777 1.61523C14.5762 1.61523 14.0046 2.17648 14.0046 2.86523C14.0046 3.55398 14.5762 4.11523 15.2777 4.11523C15.9792 4.11523 16.5509 3.55398 16.5509 2.86523C16.5509 2.17648 15.9792 1.61523 15.2777 1.61523Z" fill="#437FC8"/>
<path d="M28.0092 30.3652C26.6049 30.3652 25.4629 29.244 25.4629 27.8652C25.4629 26.4865 26.6049 25.3652 28.0092 25.3652C29.4135 25.3652 30.5555 26.4865 30.5555 27.8652C30.5555 29.244 29.4135 30.3652 28.0092 30.3652ZM28.0092 26.6152C27.3077 26.6152 26.736 27.1765 26.736 27.8652C26.736 28.554 27.3077 29.1152 28.0092 29.1152C28.7107 29.1152 29.2823 28.554 29.2823 27.8652C29.2823 27.1765 28.7107 26.6152 28.0092 26.6152Z" fill="#437FC8"/>
<path d="M2.5463 30.3652C1.14201 30.3652 0 29.244 0 27.8652C0 26.4865 1.14201 25.3652 2.5463 25.3652C3.95058 25.3652 5.09259 26.4865 5.09259 27.8652C5.09259 29.244 3.95058 30.3652 2.5463 30.3652ZM2.5463 26.6152C1.84479 26.6152 1.27315 27.1765 1.27315 27.8652C1.27315 28.554 1.84479 29.1152 2.5463 29.1152C3.2478 29.1152 3.81944 28.554 3.81944 27.8652C3.81944 27.1765 3.2478 26.6152 2.5463 26.6152Z" fill="#437FC8"/>
</g>
<defs>
<clipPath id="clip0_29_252">
<rect width="30.5556" height="30" fill="white" transform="translate(0 0.365234)"/>
</clipPath>
</defs>
</svg>
