<svg width="26" height="27" viewBox="0 0 26 27" fill="none" xmlns="http://www.w3.org/2000/svg">
<g clip-path="url(#clip0_88_640)">
<path d="M25.5985 2.68204C25.2809 2.2787 24.8052 2.05664 24.2589 2.05664C23.962 2.05664 23.6474 2.12153 23.324 2.24986L1.31553 10.9743C0.147563 11.4372 -0.00974006 12.1318 0.0003765 12.5046C0.0104931 12.8775 0.205485 13.5618 1.39686 13.9555C1.404 13.9577 1.41114 13.96 1.41828 13.962L5.98344 15.3187L8.45228 22.65C8.78891 23.6495 9.54448 24.2704 10.4244 24.2704C10.9792 24.2704 11.5249 24.029 12.0026 23.5725L14.8263 20.8725L18.9219 24.2972C18.9223 24.2976 18.9229 24.2978 18.9233 24.2982L18.9622 24.3307C18.9658 24.3336 18.9696 24.3367 18.9731 24.3396C19.4284 24.7063 19.9253 24.8999 20.4107 24.9001H20.4109C21.3592 24.9001 22.1144 24.1711 22.3344 23.0431L25.9405 4.55225C26.0853 3.81006 25.9639 3.14594 25.5985 2.68204ZM7.51065 15.061L16.3182 10.3885L10.834 16.4399C10.7442 16.539 10.6805 16.6604 10.6492 16.7924L9.59169 21.2406L7.51065 15.061ZM10.9705 22.4086C10.934 22.4434 10.8973 22.4745 10.8606 22.5032L11.8417 18.3767L13.6264 19.8691L10.9705 22.4086ZM24.4474 4.23811L20.8413 22.7291C20.8066 22.9061 20.6957 23.3179 20.4107 23.3179C20.2698 23.3179 20.0929 23.2381 19.9118 23.0933L15.2709 19.2128C15.2703 19.2122 15.2695 19.2116 15.2687 19.2112L12.5072 16.902L20.438 8.15076C20.692 7.87061 20.715 7.44152 20.4926 7.13377C20.27 6.82601 19.8668 6.72919 19.5369 6.90429L6.49284 13.8244L1.8656 12.4496L23.8674 3.72787C24.0532 3.65412 24.183 3.63867 24.2589 3.63867C24.3056 3.63867 24.3885 3.64444 24.4192 3.68378C24.4597 3.73508 24.5113 3.90997 24.4474 4.23811Z" fill="#6E6E6E"/>
</g>
<defs>
<clipPath id="clip0_88_640">
<rect width="26" height="27" fill="white"/>
</clipPath>
</defs>
</svg>
