<svg width="26" height="26" viewBox="0 0 26 26" fill="none" xmlns="http://www.w3.org/2000/svg">
<g clip-path="url(#clip0_88_700)">
<path d="M25.487 3.26266C25.1817 2.88921 24.7243 2.68359 24.199 2.68359C23.9135 2.68359 23.611 2.74368 23.3001 2.8625L2.13804 10.9407C1.01499 11.3693 0.86374 12.0124 0.873468 12.3577C0.883195 12.7029 1.07069 13.3365 2.21624 13.701C2.22311 13.7031 2.22997 13.7052 2.23684 13.7071L6.62641 14.9633L9.0003 21.7515C9.32397 22.677 10.0505 23.2519 10.8966 23.2519C11.4301 23.2519 11.9548 23.0283 12.4141 22.6057L15.1292 20.1057L19.0673 23.2767C19.0677 23.277 19.0682 23.2772 19.0686 23.2776L19.106 23.3078C19.1094 23.3104 19.1131 23.3133 19.1165 23.316C19.5542 23.6555 20.032 23.8348 20.4987 23.8349H20.4989C21.4108 23.8349 22.137 23.1599 22.3485 22.1155L25.8159 4.99435C25.9551 4.30713 25.8384 3.6922 25.487 3.26266ZM8.09488 14.7247L16.5637 10.3982L11.2905 16.0015C11.204 16.0932 11.1428 16.2056 11.1127 16.3278L10.0959 20.4465L8.09488 14.7247ZM11.4217 21.528C11.3866 21.5602 11.3513 21.589 11.316 21.6156L12.2594 17.7948L13.9754 19.1766L11.4217 21.528ZM24.3802 4.70348L20.9128 21.8248C20.8795 21.9886 20.7728 22.3699 20.4987 22.3699C20.3633 22.3699 20.1932 22.2961 20.019 22.162L15.5566 18.5689C15.556 18.5684 15.5553 18.5678 15.5545 18.5674L12.8993 16.4293L20.5251 8.32629C20.7692 8.06689 20.7913 7.66959 20.5775 7.38464C20.3635 7.09968 19.9757 7.01003 19.6586 7.17216L7.11622 13.5797L2.66695 12.3067L23.8225 4.23103C24.0012 4.16274 24.1259 4.14844 24.199 4.14844C24.2438 4.14844 24.3235 4.15378 24.3531 4.19021C24.392 4.2377 24.4416 4.39964 24.3802 4.70348Z" fill="#437FC8"/>
</g>
<defs>
<clipPath id="clip0_88_700">
<rect width="25" height="25" fill="white" transform="translate(0.873047 0.779297)"/>
</clipPath>
</defs>
</svg>
