<svg width="30" height="30" viewBox="0 0 30 30" fill="none" xmlns="http://www.w3.org/2000/svg">
<g clip-path="url(#clip0_29_64)">
<path d="M26.4017 7.79408H25.0133C25.0936 7.61244 25.1386 7.41182 25.1386 7.20076C25.1386 6.45217 24.5769 5.83277 23.8529 5.74072V5.56055C23.8529 4.24857 23.3854 2.9741 22.5365 1.97186C22.3796 1.78664 22.1024 1.76361 21.9171 1.92053C21.732 2.07738 21.709 2.35471 21.8659 2.53986C22.5804 3.38355 22.974 4.45635 22.974 5.56055V5.72848H20.8952V5.56078C20.8952 4.12553 19.7276 2.95793 18.2924 2.95793H11.7075C10.2726 2.95793 9.10521 4.12559 9.10521 5.56078V5.72848H7.02648V5.56055C7.02648 2.97908 9.12637 0.878906 11.7075 0.878906H18.2924C19.1206 0.878906 19.9352 1.09922 20.648 1.51611C20.8575 1.63857 21.1267 1.56809 21.2492 1.35855C21.3718 1.14902 21.3012 0.879902 21.0917 0.757383C20.2443 0.261914 19.2763 0 18.2923 0H11.7075C8.6418 0 6.14758 2.49445 6.14758 5.56055V5.74061C5.4233 5.83236 4.86127 6.45193 4.86127 7.2007C4.86127 7.41176 4.90627 7.61238 4.9866 7.79402H3.59805C1.66311 7.79402 0.0888672 9.3682 0.0888672 11.3032V14.5486C0.0888672 15.8456 0.803066 17.0276 1.93059 17.6366V25.9729C1.93059 27.8254 3.18432 29.4319 4.97945 29.8797C5.01514 29.8886 5.05094 29.8929 5.08615 29.8929C5.28309 29.8929 5.46238 29.7595 5.51219 29.5597C5.5709 29.3242 5.42764 29.0856 5.19215 29.0269C3.78924 28.677 2.80943 27.4211 2.80943 25.9729V17.968C3.06607 18.027 3.32945 18.0578 3.59799 18.0578H4.49793V19.7876C4.49793 20.8183 5.33646 21.6568 6.36707 21.6568H8.87816C9.90883 21.6568 10.7473 20.8182 10.7473 19.7876V18.0578H19.2522V19.7876C19.2522 20.8183 20.0907 21.6568 21.1213 21.6568H23.6324C24.6631 21.6568 25.5016 20.8182 25.5016 19.7876V18.0578H26.4014C26.67 18.0578 26.9334 18.027 27.1901 17.968V25.9729C27.1901 27.7088 25.7778 29.1211 24.0419 29.1211H6.83664C6.59389 29.1211 6.39719 29.3179 6.39719 29.5605C6.39719 29.8032 6.59389 30 6.83664 30H24.0422C26.2627 30 28.0693 28.1934 28.0693 25.9729V17.6365C29.1968 17.0275 29.9109 15.8456 29.9109 14.5487V11.3033C29.9108 9.36826 28.3366 7.79408 26.4017 7.79408ZM24.2597 7.2007C24.2597 7.52789 23.9935 7.79402 23.6663 7.79402H20.2594C19.9322 7.79402 19.666 7.52789 19.666 7.2007C19.666 6.87352 19.9322 6.60738 20.2594 6.60738H23.6663C23.9935 6.60738 24.2597 6.87352 24.2597 7.2007ZM11.7075 3.83678H18.2924C19.243 3.83678 20.0163 4.61016 20.0163 5.56072V5.74887C19.3199 5.86518 18.7872 6.47174 18.7872 7.2007C18.7872 7.41176 18.8322 7.61238 18.9125 7.79402H11.0874C11.1677 7.61238 11.2127 7.41176 11.2127 7.2007C11.2127 6.47191 10.6803 5.86547 9.98412 5.74898V5.56078C9.98406 4.61016 10.7572 3.83678 11.7075 3.83678ZM5.74018 7.2007C5.74018 6.87352 6.00637 6.60738 6.33355 6.60738H9.74043C10.0676 6.60738 10.3338 6.87352 10.3338 7.2007C10.3338 7.52789 10.0676 7.79402 9.74043 7.79402H6.33355C6.00637 7.79408 5.74018 7.52789 5.74018 7.2007ZM9.86857 19.7876C9.86857 20.3337 9.42437 20.7779 8.87834 20.7779H6.36725C5.82121 20.7779 5.37701 20.3336 5.37701 19.7876V16.9224C5.37701 16.3764 5.82121 15.9322 6.36725 15.9322H8.87834C9.42437 15.9322 9.86857 16.3764 9.86857 16.9224V19.7876ZM24.6229 19.7876C24.6229 20.3337 24.1787 20.7779 23.6327 20.7779H21.1216C20.5755 20.7779 20.1313 20.3336 20.1313 19.7876V16.9224C20.1313 16.3764 20.5755 15.9322 21.1216 15.9322H23.6327C24.1787 15.9322 24.6229 16.3764 24.6229 16.9224V19.7876ZM29.0319 14.5486C29.0319 15.5946 28.4124 16.5411 27.4535 16.9602C27.1221 17.1053 26.7682 17.1789 26.4016 17.1789H25.5018V16.9224C25.5018 15.8917 24.6633 15.0533 23.6327 15.0533H21.1216C20.0909 15.0533 19.2524 15.8918 19.2524 16.9224V17.1789H10.7475V16.9224C10.7475 15.8917 9.909 15.0533 8.8784 15.0533H6.3673C5.33664 15.0533 4.49816 15.8918 4.49816 16.9224V17.1789H3.59805C3.23148 17.1789 2.87758 17.1053 2.54588 16.9601C1.58728 16.5411 0.967773 15.5946 0.967773 14.5486V11.3032C0.967773 9.85289 2.14773 8.67293 3.59805 8.67293H26.4017C27.852 8.67293 29.0319 9.85283 29.0319 11.3032V14.5486H29.0319Z" fill="#437FC8"/>
<path d="M22.7763 16.5322H21.9781C21.2907 16.5322 20.7314 17.0915 20.7314 17.7789V18.9312C20.7314 19.6187 21.2907 20.1779 21.9781 20.1779H22.7763C23.4637 20.1779 24.023 19.6187 24.023 18.9312V17.7789C24.023 17.0915 23.4637 16.5322 22.7763 16.5322ZM23.1441 18.9312C23.1441 19.134 22.9791 19.299 22.7763 19.299H21.9781C21.7754 19.299 21.6104 19.134 21.6104 18.9312V17.7789C21.6104 17.5761 21.7754 17.4111 21.9781 17.4111H22.7763C22.9791 17.4111 23.1441 17.5761 23.1441 17.7789V18.9312Z" fill="#437FC8"/>
<path d="M8.02143 16.5322H7.22326C6.53584 16.5322 5.97656 17.0915 5.97656 17.7789V18.9312C5.97656 19.6187 6.53584 20.1779 7.22326 20.1779H8.02143C8.70885 20.1779 9.26813 19.6187 9.26813 18.9312V17.7789C9.26818 17.0915 8.70891 16.5322 8.02143 16.5322ZM8.38928 18.9312C8.38928 19.134 8.22428 19.299 8.02148 19.299H7.22332C7.02053 19.299 6.85553 19.134 6.85553 18.9312V17.7789C6.85553 17.5761 7.02053 17.4111 7.22332 17.4111H8.02148C8.22428 17.4111 8.38928 17.5761 8.38928 17.7789V18.9312Z" fill="#437FC8"/>
<path d="M8.1475 25.781C7.99966 25.781 7.86168 25.8554 7.78041 25.9789C7.69908 26.1024 7.68537 26.2585 7.74385 26.3943C8.23398 27.5326 9.35189 28.2681 10.5917 28.2681C11.7314 28.2681 12.7687 27.6457 13.3098 26.6599H16.6904C17.2315 27.6457 18.2687 28.2681 19.4085 28.2681C20.6483 28.2681 21.7662 27.5326 22.2563 26.3943C22.3148 26.2585 22.3011 26.1024 22.2198 25.9789C22.1385 25.8554 22.0006 25.781 21.8527 25.781H19.8772V24.554H21.8527C22.0005 24.554 22.1385 24.4796 22.2198 24.3562C22.3011 24.2326 22.3148 24.0765 22.2563 23.9407C21.7662 22.8024 20.6483 22.0669 19.4085 22.0669C18.2687 22.0669 17.2315 22.6893 16.6904 23.6751H13.3098C12.7687 22.6893 11.7314 22.0669 10.5917 22.0669C9.35189 22.0669 8.23398 22.8024 7.74385 23.9407C7.68537 24.0765 7.69908 24.2326 7.78041 24.3562C7.86168 24.4796 7.99961 24.554 8.1475 24.554H10.123V25.781H8.1475ZM10.5624 23.6751H8.94508C9.35886 23.2185 9.95265 22.9457 10.5918 22.9457C11.4795 22.9457 12.2805 23.4729 12.6325 24.2886C12.702 24.4497 12.8607 24.554 13.036 24.554H16.9643C17.1396 24.554 17.2983 24.4497 17.3678 24.2886C17.7198 23.4729 18.5208 22.9457 19.4085 22.9457C20.0476 22.9457 20.6414 23.2184 21.0552 23.6751H19.4379C19.1951 23.6751 18.9984 23.8718 18.9984 24.1145V26.2205C18.9984 26.4632 19.1951 26.6599 19.4379 26.6599H21.0552C20.6414 27.1165 20.0477 27.3893 19.4085 27.3893C18.5208 27.3893 17.7198 26.8622 17.3678 26.0464C17.2983 25.8853 17.1396 25.781 16.9643 25.781H13.036C12.8607 25.781 12.702 25.8853 12.6325 26.0464C12.2805 26.8622 11.4795 27.3893 10.5918 27.3893C9.95271 27.3893 9.35886 27.1166 8.94508 26.6599H10.5624C10.8052 26.6599 11.0019 26.4632 11.0019 26.2205V24.1145C11.0019 23.8718 10.8051 23.6751 10.5624 23.6751Z" fill="#437FC8"/>
</g>
<defs>
<clipPath id="clip0_29_64">
<rect width="30" height="30" fill="white"/>
</clipPath>
</defs>
</svg>
