<svg width="20" height="19" viewBox="0 0 20 19" fill="none" xmlns="http://www.w3.org/2000/svg">
<g clip-path="url(#clip0_88_1633)">
<path d="M4.65998 17.3715C4.70677 18.2188 5.47814 18.8806 6.42249 18.8806H13.5773C14.5216 18.8806 15.2931 18.2188 15.3398 17.3715L16.3704 6.7041H3.62939L4.65998 17.3715ZM11.7646 9.35116H12.9411V15.1747H11.7646V9.35116ZM9.41167 9.35116H10.5881V15.1747H9.41167V9.35116ZM7.05873 9.35116H8.2352V15.1747H7.05873V9.35116Z" fill="#1A467C"/>
<path d="M12.9413 3.52792V2.46909C12.9413 1.59338 12.1497 0.880859 11.1766 0.880859H8.82362C7.8506 0.880859 7.05891 1.59338 7.05891 2.46909V3.52792H2.35303V5.64557H17.6471V3.52792H12.9413ZM8.23538 3.52792V2.46909C8.23538 2.17718 8.4993 1.93968 8.82362 1.93968H11.1766C11.5009 1.93968 11.7648 2.17718 11.7648 2.46909V3.52792H8.23538Z" fill="#1A467C"/>
</g>
<defs>
<clipPath id="clip0_88_1633">
<rect width="20" height="18" fill="white" transform="translate(0 0.880859)"/>
</clipPath>
</defs>
</svg>
