<svg width="49" height="50" viewBox="0 0 49 50" fill="none" xmlns="http://www.w3.org/2000/svg">
<g clip-path="url(#clip0_34_228)">
<path d="M41.4277 31.7237C38.8136 29.0553 35.7023 27.0799 32.3076 25.8841C35.9434 23.3277 38.332 19.0495 38.332 14.2119C38.332 6.40187 32.1077 0.0478516 24.457 0.0478516C16.8064 0.0478516 10.582 6.40187 10.582 14.2119C10.582 19.0495 12.9707 23.3277 16.6066 25.8841C13.2119 27.0799 10.1005 29.0553 7.4865 31.7237C2.9535 36.3512 0.457031 42.5037 0.457031 49.0479H4.20703C4.20703 37.6493 13.2911 28.376 24.457 28.376C35.6229 28.376 44.707 37.6493 44.707 49.0479H48.457C48.457 42.5037 45.9606 36.3512 41.4277 31.7237ZM24.457 24.5479C18.8741 24.5479 14.332 19.9112 14.332 14.2119C14.332 8.5126 18.8741 3.87598 24.457 3.87598C30.0399 3.87598 34.582 8.5126 34.582 14.2119C34.582 19.9112 30.0399 24.5479 24.457 24.5479Z" fill="#437FC8"/>
</g>
<defs>
<clipPath id="clip0_34_228">
<rect width="48" height="49" fill="white" transform="translate(0.457031 0.0478516)"/>
</clipPath>
</defs>
</svg>
