<svg width="26" height="26" viewBox="0 0 26 26" fill="none" xmlns="http://www.w3.org/2000/svg">
<g clip-path="url(#clip0_34_71)">
<path d="M13.1562 25.127C10.1965 25.127 7.32588 24.074 5.0731 22.1621C4.54414 21.7134 4.04795 21.216 3.59844 20.6838C1.70103 18.4348 0.65625 15.5736 0.65625 12.627C0.65625 9.28804 1.95645 6.14902 4.31738 3.78809C6.67832 1.42715 9.81733 0.126953 13.1562 0.126953C16.4952 0.126953 19.6342 1.42715 21.9951 3.78809C24.3561 6.14902 25.6562 9.28804 25.6562 12.627C25.6562 15.5736 24.6115 18.4348 22.7143 20.6835C22.2646 21.216 21.7684 21.7134 21.2393 22.1622C18.9866 24.074 16.116 25.127 13.1562 25.127ZM13.1562 1.68945C7.12529 1.68945 2.21875 6.596 2.21875 12.627C2.21875 15.2053 3.13276 17.7087 4.79243 19.6759C5.18599 20.1419 5.62061 20.5776 6.08398 20.9707C8.05488 22.6433 10.5665 23.5645 13.1562 23.5645C15.746 23.5645 18.2576 22.6433 20.2284 20.9708C20.6919 20.5776 21.1265 20.1418 21.5203 19.6756C23.1797 17.7087 24.0938 15.2054 24.0938 12.627C24.0938 6.596 19.1872 1.68945 13.1562 1.68945Z" fill="#404040"/>
<path d="M13.1562 12.627C10.5715 12.627 8.46875 10.5242 8.46875 7.93945C8.46875 5.35474 10.5715 3.25195 13.1562 3.25195C15.741 3.25195 17.8438 5.35474 17.8438 7.93945C17.8438 10.5242 15.741 12.627 13.1562 12.627ZM13.1562 4.81445C11.4331 4.81445 10.0312 6.21631 10.0312 7.93945C10.0312 9.6626 11.4331 11.0645 13.1562 11.0645C14.8794 11.0645 16.2812 9.6626 16.2812 7.93945C16.2812 6.21631 14.8794 4.81445 13.1562 4.81445Z" fill="#404040"/>
<path d="M20.7345 22.3479C20.6715 22.3479 20.6075 22.3402 20.5437 22.3242C20.1252 22.2191 19.8711 21.7947 19.9761 21.3762C20.1164 20.8175 20.1875 20.2395 20.1875 19.6582C20.1875 15.8357 17.0798 12.6823 13.2591 12.6274L13.1562 12.627L13.0534 12.6274C9.23272 12.6823 6.125 15.8357 6.125 19.6582C6.125 20.2395 6.19614 20.8175 6.33638 21.3762C6.44141 21.7947 6.1873 22.2191 5.76885 22.3242C5.35039 22.4292 4.92593 22.1751 4.8209 21.7566C4.64941 21.0736 4.5625 20.3676 4.5625 19.6582C4.5625 17.3839 5.44224 15.2401 7.03965 13.6216C8.6355 12.0047 10.7645 11.0968 13.0345 11.065C13.0381 11.065 13.0417 11.065 13.0454 11.065L13.1562 11.0645L13.2671 11.0649C13.2708 11.0649 13.2744 11.0649 13.278 11.065C15.548 11.0967 17.677 12.0046 19.2729 13.6215C20.8703 15.2401 21.75 17.3839 21.75 19.6582C21.75 20.3676 21.6631 21.0736 21.4916 21.7566C21.4026 22.1112 21.0842 22.3478 20.7345 22.3479Z" fill="#404040"/>
</g>
<defs>
<clipPath id="clip0_34_71">
<rect width="25" height="25" fill="white" transform="translate(0.65625 0.126953)"/>
</clipPath>
</defs>
</svg>
