<svg width="27" height="26" viewBox="0 0 27 26" fill="none" xmlns="http://www.w3.org/2000/svg">
<path d="M25.8654 9.17653C25.8656 6.73466 24.8717 4.43285 23.067 2.69498C21.2623 0.957108 18.8719 0 16.3359 0H10.6896C8.15405 0 5.76329 0.957108 3.95879 2.69478C2.15408 4.43285 1.16016 6.73466 1.16016 9.17653V13.4505C1.16016 15.3417 1.75919 17.1607 2.89256 18.7113C3.89246 20.0792 5.23718 21.1478 6.805 21.8252V24.2802C6.805 25.5495 7.54308 26 8.17506 26C8.6266 26 9.07814 25.7854 9.51773 25.3623L12.358 22.6272L16.3361 22.627C18.8719 22.627 21.2623 21.6699 23.067 19.9322C24.8717 18.1944 25.8656 15.8923 25.8656 13.4505L25.8654 9.17653ZM16.3361 21.1036L12.0304 21.1038C11.8205 21.1038 11.6195 21.1839 11.4712 21.3267L8.39919 24.2849C8.39527 24.2889 8.39115 24.2927 8.38703 24.2964C8.38703 24.2911 8.38703 24.2855 8.38703 24.2802V21.3168C8.38703 21.0008 8.18454 20.7178 7.87802 20.6051C4.80624 19.4764 2.74239 16.6011 2.74239 13.4505V9.17653C2.74239 7.14151 3.57172 5.22214 5.07754 3.7719C6.58335 2.32205 8.57634 1.52344 10.6896 1.52344H16.3359C18.4492 1.52344 20.4424 2.32205 21.9482 3.77209C23.4542 5.22234 24.2836 7.14171 24.2834 9.17653L24.2836 13.4505C24.2834 17.6705 20.7182 21.1036 16.3361 21.1036Z" fill="#6E6E6E"/>
<path d="M15.6164 12.4584C15.3076 12.1608 14.8068 12.1608 14.4978 12.4584L13.8588 13.0735L11.3828 10.6894L12.0218 10.0742C12.1701 9.93143 12.2535 9.73762 12.2535 9.53549C12.2535 9.33356 12.1701 9.13975 12.0218 8.99693L9.02624 6.11232C8.87792 5.9695 8.67687 5.88916 8.46696 5.88916C8.25726 5.88916 8.05601 5.9695 7.90769 6.11232L5.81068 8.13167C4.67668 9.22366 4.67668 11.0008 5.81088 12.0934L12.4008 18.4397C12.9488 18.9671 13.6794 19.2575 14.4579 19.2575C15.2365 19.2575 15.9672 18.9671 16.5151 18.4397L18.6122 16.4205C18.7605 16.2775 18.8439 16.0839 18.8439 15.8818C18.8439 15.6798 18.7605 15.486 18.6122 15.3432L15.6164 12.4584ZM15.3964 17.3622C15.1473 17.602 14.814 17.7341 14.4579 17.7341C14.1017 17.7341 13.7684 17.602 13.5194 17.3622L6.92963 11.0161C6.41218 10.5178 6.41197 9.70688 6.92943 9.20879L8.46696 7.728L10.3438 9.53549L9.70478 10.1506C9.55646 10.2934 9.47304 10.4872 9.47304 10.6892C9.47304 10.8913 9.55646 11.0849 9.70478 11.2279L13.2994 14.6894C13.6084 14.9867 14.1091 14.9869 14.4181 14.6894L15.0571 14.0743L16.9339 15.8816L15.3964 17.3622Z" fill="#6E6E6E"/>
<path d="M13.7048 3.36963C13.2679 3.36963 12.9138 3.71062 12.9138 4.13135C12.9138 4.55188 13.2679 4.89307 13.7048 4.89307C15.515 4.89307 17.2172 5.57187 18.4972 6.8047C19.7775 8.03734 20.4824 9.67622 20.4824 11.4196C20.4824 11.8402 20.8365 12.1814 21.2734 12.1814C21.7101 12.1814 22.0644 11.8404 22.0644 11.4196C22.0644 9.26938 21.1949 7.24785 19.616 5.72739C18.037 4.20692 15.9377 3.36963 13.7048 3.36963Z" fill="#6E6E6E"/>
<path d="M17.0934 11.4194C17.0934 11.8399 17.4477 12.1811 17.8844 12.1811C18.3213 12.1811 18.6754 11.8399 18.6754 11.4194C18.6754 8.78015 16.4455 6.63306 13.7048 6.63306C13.2679 6.63306 12.9138 6.97404 12.9138 7.39478C12.9138 7.81551 13.2679 8.15649 13.7048 8.15649C15.5733 8.15649 17.0934 9.62022 17.0934 11.4194Z" fill="#6E6E6E"/>
</svg>
