<svg width="26" height="25" viewBox="0 0 26 25" fill="none" xmlns="http://www.w3.org/2000/svg">
<path d="M24.2912 8.82359C24.2914 6.47564 23.3711 4.26235 21.7001 2.59132C20.0291 0.920296 17.8158 0 15.4676 0H10.2396C10.2394 0 10.2394 0 10.2394 0C7.89165 0 5.67818 0.920296 4.00734 2.59113C2.33631 4.26235 1.41602 6.47564 1.41602 8.82359V12.9332C1.41602 14.7516 1.97067 16.5007 3.0201 17.9916C3.94592 19.3069 5.19104 20.3344 6.64272 20.9858V23.3463C6.64272 24.5668 7.32613 25 7.9113 25C8.32939 25 8.74748 24.7936 9.15451 24.3868L11.7844 21.7569L15.4678 21.7567C17.8158 21.7567 20.0291 20.8364 21.7001 19.1656C23.3711 17.4946 24.2914 15.2811 24.2914 12.9332L24.2912 8.82359ZM15.4678 20.2919L11.4811 20.2921C11.2867 20.2921 11.1006 20.3691 10.9632 20.5065L8.11882 23.3509C8.1152 23.3547 8.11138 23.3583 8.10757 23.362C8.10757 23.3568 8.10757 23.3515 8.10757 23.3463V20.4969C8.10757 20.1931 7.92007 19.9209 7.63626 19.8126C4.79202 18.7273 2.88105 15.9626 2.88105 12.9332V8.82359C2.88105 6.86684 3.64895 5.02129 5.04322 3.62682C6.43749 2.23274 8.28285 1.46484 10.2396 1.46484H15.4676C17.4244 1.46484 19.2699 2.23274 20.6642 3.62701C22.0587 5.02148 22.8266 6.86703 22.8264 8.82359L22.8266 12.9332C22.8264 16.9909 19.5253 20.2919 15.4678 20.2919Z" fill="#437FC8"/>
<path d="M14.8014 11.9797C14.5155 11.6936 14.0518 11.6936 13.7657 11.9797L13.1741 12.5711L10.8814 10.2787L11.4731 9.68721C11.6104 9.54988 11.6877 9.36353 11.6877 9.16917C11.6877 8.97501 11.6104 8.78866 11.4731 8.65133L8.69941 5.87766C8.56209 5.74033 8.37593 5.66309 8.18157 5.66309C7.9874 5.66309 7.80105 5.74033 7.66372 5.87766L5.72204 7.81934C4.67205 8.86934 4.67205 10.5781 5.72223 11.6287L11.824 17.7309C12.3314 18.238 13.0079 18.5173 13.7287 18.5173C14.4497 18.5173 15.1262 18.238 15.6336 17.7309L17.5753 15.7894C17.7126 15.6519 17.7898 15.4657 17.7898 15.2714C17.7898 15.0772 17.7126 14.8908 17.5753 14.7535L14.8014 11.9797ZM14.5977 16.6948C14.3671 16.9254 14.0585 17.0524 13.7287 17.0524C13.3989 17.0524 13.0903 16.9254 12.8597 16.6948L6.75811 10.5928C6.27899 10.1137 6.2788 9.33397 6.75792 8.85503L8.18157 7.4312L9.91935 9.16917L9.32769 9.76064C9.19037 9.89797 9.11312 10.0843 9.11312 10.2785C9.11312 10.4728 9.19037 10.659 9.32769 10.7965L12.656 14.1248C12.9421 14.4108 13.4058 14.4109 13.6919 14.1248L14.2836 13.5334L16.0213 15.2712L14.5977 16.6948Z" fill="#437FC8"/>
<path d="M13.0315 3.24023C12.6269 3.24023 12.2991 3.56811 12.2991 3.97266C12.2991 4.37701 12.6269 4.70508 13.0315 4.70508C14.7077 4.70508 16.2837 5.35777 17.4689 6.54319C18.6544 7.72842 19.3071 9.30427 19.3071 10.9806C19.3071 11.385 19.6349 11.7131 20.0395 11.7131C20.4438 11.7131 20.7719 11.3852 20.7719 10.9806C20.7719 8.91307 19.9668 6.96929 18.5048 5.50731C17.0428 4.04533 15.0991 3.24023 13.0315 3.24023Z" fill="#437FC8"/>
<path d="M16.1691 10.9802C16.1691 11.3845 16.4971 11.7126 16.9015 11.7126C17.3061 11.7126 17.6339 11.3845 17.6339 10.9802C17.6339 8.44244 15.5692 6.37793 13.0315 6.37793C12.6269 6.37793 12.2991 6.7058 12.2991 7.11035C12.2991 7.5149 12.6269 7.84277 13.0315 7.84277C14.7617 7.84277 16.1691 9.25021 16.1691 10.9802Z" fill="#437FC8"/>
</svg>
